<svg width="402" height="323" viewBox="0 0 402 323" fill="none" xmlns="http://www.w3.org/2000/svg">
<rect x="0.419922" y="98.3926" width="350" height="233.333" rx="20" transform="rotate(-16.1817 0.419922 98.3926)" fill="url(#paint0_linear_1_109)"/>
<g filter="url(#filter0_b_1_109)">
<rect x="0.419922" y="98.3926" width="350" height="233.333" rx="20" transform="rotate(-16.1817 0.419922 98.3926)" fill="white" fill-opacity="0.03"/>
</g>
<path fill-rule="evenodd" clip-rule="evenodd" d="M328.569 246.129C329.67 221.252 326.716 195.294 319.2 169.393C301.632 108.852 262.847 61.389 216.078 35.813L19.6276 92.8189C9.01948 95.8972 2.91534 106.992 5.9936 117.6L59.8725 303.274C62.9508 313.882 74.0458 319.986 84.6538 316.908L328.569 246.129Z" fill="white" fill-opacity="0.06"/>
<path fill-rule="evenodd" clip-rule="evenodd" d="M310.443 251.389C310.654 228.954 307.581 205.751 300.861 182.594C282.072 117.843 239.011 68.0515 187.87 43.9983L19.6276 92.8189C9.01948 95.8972 2.91534 106.992 5.9936 117.6L59.8725 303.274C62.9508 313.882 74.0458 319.986 84.6538 316.908L310.443 251.389Z" fill="white" fill-opacity="0.06"/>
<path d="M327.671 203.464L327.937 204.378L322.774 205.877L322.508 204.962L324.572 204.363L322.666 197.795C322.609 197.598 322.558 197.397 322.513 197.191L321.226 199.161C321.182 199.227 321.133 199.275 321.078 199.306C321.023 199.332 320.969 199.347 320.917 199.353C320.865 199.358 320.813 199.354 320.76 199.34C320.712 199.325 320.672 199.305 320.641 199.28L320.114 198.871L322.265 195.558L323.239 195.275L325.775 204.014L327.671 203.464ZM335.198 201.04C335.328 201.002 335.442 201.01 335.54 201.064C335.639 201.118 335.705 201.206 335.74 201.327L335.951 202.053L329.524 203.918L329.405 203.508C329.38 203.423 329.373 203.33 329.383 203.23C329.393 203.13 329.425 203.031 329.479 202.932L331.665 198.938C331.845 198.604 332.006 198.287 332.148 197.989C332.288 197.686 332.397 197.392 332.475 197.107C332.553 196.822 332.596 196.544 332.605 196.274C332.613 196 332.576 195.722 332.494 195.439C332.412 195.157 332.296 194.923 332.145 194.739C331.993 194.55 331.818 194.408 331.621 194.315C331.428 194.22 331.217 194.17 330.987 194.164C330.755 194.153 330.519 194.183 330.277 194.253C330.03 194.325 329.814 194.426 329.629 194.558C329.443 194.689 329.289 194.843 329.165 195.02C329.045 195.191 328.956 195.38 328.899 195.586C328.843 195.792 328.822 196.007 328.839 196.23C328.83 196.403 328.787 196.529 328.708 196.611C328.633 196.686 328.509 196.736 328.337 196.762L327.681 196.836C327.616 196.379 327.624 195.956 327.706 195.568C327.791 195.174 327.937 194.823 328.144 194.515C328.356 194.206 328.621 193.941 328.942 193.722C329.261 193.498 329.626 193.327 330.039 193.207C330.446 193.089 330.845 193.039 331.234 193.057C331.623 193.075 331.982 193.163 332.309 193.321C332.636 193.474 332.921 193.695 333.165 193.984C333.409 194.272 333.592 194.627 333.714 195.049C333.819 195.407 333.862 195.757 333.844 196.097C333.825 196.433 333.764 196.767 333.66 197.098C333.557 197.429 333.423 197.762 333.258 198.097C333.097 198.43 332.921 198.77 332.73 199.117L330.942 202.449C331.107 202.348 331.278 202.257 331.453 202.177C331.628 202.092 331.801 202.025 331.971 201.976L335.198 201.04ZM338.339 201.513C338.327 201.687 338.268 201.83 338.165 201.942C338.066 202.054 337.952 202.128 337.822 202.166L337.318 202.312L338.438 191.076C338.45 190.917 338.499 190.784 338.584 190.676C338.674 190.568 338.791 190.492 338.934 190.451L339.445 190.303L338.339 201.513ZM349.076 197.012C349.206 196.975 349.321 196.983 349.419 197.037C349.517 197.091 349.584 197.178 349.619 197.299L349.83 198.025L343.403 199.89L343.284 199.48C343.259 199.395 343.252 199.303 343.262 199.203C343.271 199.103 343.303 199.003 343.357 198.905L345.544 194.91C345.724 194.576 345.885 194.26 346.026 193.961C346.167 193.658 346.276 193.364 346.354 193.079C346.431 192.794 346.475 192.517 346.484 192.247C346.492 191.973 346.455 191.694 346.373 191.412C346.291 191.13 346.174 190.896 346.024 190.711C345.872 190.522 345.697 190.381 345.5 190.288C345.307 190.193 345.096 190.143 344.865 190.136C344.634 190.126 344.397 190.156 344.155 190.226C343.909 190.297 343.693 190.399 343.507 190.53C343.322 190.662 343.168 190.816 343.044 190.993C342.924 191.164 342.835 191.352 342.778 191.558C342.721 191.764 342.701 191.979 342.717 192.203C342.709 192.375 342.666 192.502 342.587 192.583C342.512 192.659 342.388 192.709 342.216 192.735L341.559 192.809C341.494 192.351 341.503 191.928 341.585 191.54C341.67 191.146 341.816 190.795 342.023 190.488C342.234 190.178 342.5 189.914 342.82 189.695C343.139 189.471 343.505 189.299 343.917 189.18C344.325 189.061 344.724 189.011 345.113 189.03C345.502 189.048 345.86 189.136 346.188 189.293C346.514 189.447 346.799 189.668 347.044 189.956C347.288 190.245 347.471 190.6 347.593 191.021C347.697 191.38 347.74 191.729 347.722 192.07C347.703 192.406 347.642 192.739 347.539 193.071C347.436 193.402 347.302 193.735 347.136 194.069C346.976 194.403 346.8 194.743 346.609 195.09L344.821 198.422C344.986 198.321 345.156 198.23 345.332 198.15C345.507 198.065 345.679 197.998 345.85 197.949L349.076 197.012ZM354.469 192.911L353.316 188.938C353.282 188.821 353.25 188.692 353.219 188.551C353.187 188.409 353.16 188.264 353.136 188.115L351.014 193.914L354.469 192.911ZM356.977 192.183L357.176 192.869C357.197 192.941 357.192 193.008 357.161 193.07C357.135 193.131 357.077 193.175 356.988 193.201L355.791 193.548L356.527 196.082L355.478 196.387L354.742 193.852L350.467 195.093C350.377 195.119 350.291 195.117 350.21 195.087C350.132 195.052 350.072 194.998 350.032 194.927L349.734 194.351L352.615 186.772L353.731 186.449L355.518 192.607L356.977 192.183Z" fill="white"/>
<path d="M61.586 163.307C62.4997 162.906 63.1245 162.38 63.4603 161.728C63.8024 161.065 63.8525 160.317 63.6106 159.484C63.5118 159.143 63.3632 158.865 63.1649 158.651C62.9729 158.425 62.7363 158.245 62.455 158.113C62.1826 157.979 61.8777 157.882 61.5403 157.825C61.2029 157.767 60.8412 157.726 60.4552 157.702L61.586 163.307ZM56.6015 149.345C56.1178 149.554 55.7232 149.785 55.4179 150.039C55.1099 150.283 54.8751 150.546 54.7134 150.826C54.5518 151.106 54.4562 151.396 54.4266 151.696C54.4061 151.994 54.4387 152.291 54.5245 152.586C54.6234 152.927 54.7688 153.21 54.9607 153.437C55.159 153.651 55.3912 153.832 55.6572 153.978C55.9295 154.113 56.2325 154.219 56.5662 154.297C56.8972 154.366 57.2526 154.419 57.6322 154.454L56.6015 149.345ZM59.8094 154.522C60.512 154.532 61.2166 154.566 61.9233 154.623C62.6273 154.672 63.2849 154.811 63.8961 155.042C64.5163 155.27 65.0652 155.621 65.5428 156.095C66.0178 156.56 66.3775 157.213 66.622 158.056C66.8639 158.889 66.9526 159.714 66.888 160.53C66.8208 161.336 66.6002 162.1 66.2263 162.821C65.8497 163.533 65.3236 164.181 64.6478 164.766C63.9694 165.342 63.1373 165.807 62.1516 166.161L62.5638 168.184C62.6147 168.393 62.5796 168.607 62.4588 168.827C62.3494 169.053 62.1693 169.202 61.9183 169.275L60.6948 169.63L60.1019 166.683C59.0115 166.843 57.9423 166.843 56.8942 166.68C55.8461 166.518 54.907 166.212 54.077 165.763L54.6579 163.947C54.7085 163.787 54.7939 163.646 54.9139 163.523C55.0402 163.389 55.1886 163.298 55.3589 163.248C55.5561 163.191 55.7875 163.202 56.0532 163.28C56.3163 163.35 56.6186 163.437 56.9601 163.542C57.2989 163.638 57.6794 163.727 58.1016 163.808C58.5237 163.89 58.9987 163.903 59.5267 163.847L58.2802 157.692C57.5917 157.697 56.8987 157.67 56.201 157.61C55.5123 157.548 54.8597 157.392 54.2433 157.143C53.6333 156.883 53.0874 156.492 52.6058 155.971C52.1242 155.45 51.7507 154.732 51.4854 153.818C51.2877 153.137 51.2297 152.435 51.3113 151.711C51.3904 150.979 51.6157 150.282 51.9873 149.62C52.3679 148.956 52.891 148.347 53.5567 147.794C54.2224 147.242 55.0417 146.8 56.0147 146.469L55.671 144.732C55.6265 144.511 55.6602 144.293 55.7721 144.076C55.884 143.858 56.07 143.712 56.3299 143.637L57.5534 143.282L58.103 145.979C59.0974 145.856 59.9969 145.891 60.8015 146.086C61.6036 146.271 62.3258 146.533 62.9682 146.871L62.5165 148.329C62.452 148.542 62.37 148.711 62.2706 148.837C62.1711 148.963 62.0317 149.052 61.8524 149.104C61.718 149.143 61.5449 149.15 61.3333 149.124C61.119 149.089 60.8785 149.047 60.6116 148.998C60.3421 148.94 60.0413 148.891 59.7091 148.852C59.3858 148.809 59.0377 148.799 58.6647 148.819L59.8094 154.522ZM71.3192 149.87C71.7234 149.656 72.1175 149.474 72.5015 149.323C72.8829 149.164 73.2574 149.031 73.6249 148.924C74.6467 148.628 75.5918 148.519 76.46 148.597C77.3283 148.676 78.1049 148.907 78.7898 149.292C79.4747 149.676 80.057 150.192 80.5366 150.84C81.0136 151.479 81.373 152.216 81.6149 153.049C81.914 154.08 82.0034 155.074 81.883 156.033C81.7715 156.988 81.4816 157.864 81.0131 158.661C80.5419 159.449 79.9108 160.138 79.1197 160.727C78.3375 161.313 77.4265 161.757 76.3867 162.059C75.7772 162.236 75.1808 162.341 74.5976 162.374C74.0144 162.407 73.4509 162.391 72.9071 162.325C72.3696 162.248 71.8556 162.135 71.3653 161.986C70.8813 161.825 70.4337 161.639 70.0226 161.428L70.6348 159.719C70.7615 159.352 70.9996 159.118 71.3492 159.016C71.5733 158.951 71.8227 158.957 72.0973 159.033C72.372 159.108 72.6819 159.188 73.0272 159.273C73.3813 159.355 73.7809 159.409 74.2259 159.435C74.6798 159.459 75.1936 159.388 75.7673 159.221C76.3768 159.044 76.886 158.79 77.2949 158.457C77.7038 158.125 78.0099 157.74 78.2132 157.302C78.4229 156.852 78.5337 156.363 78.5456 155.835C78.5639 155.295 78.4898 154.738 78.3234 154.165C78.0164 153.107 77.4679 152.372 76.6778 151.96C75.894 151.536 74.9015 151.499 73.7004 151.847C72.7771 152.115 71.8809 152.56 71.0117 153.181L68.7694 153.191L67.644 143.284L77.2439 140.498L77.6536 141.91C77.7915 142.385 77.7554 142.813 77.5454 143.195C77.3355 143.576 76.8764 143.87 76.1683 144.075L70.8305 145.624L71.3192 149.87ZM87.5949 162.145C87.3945 162.057 87.2657 161.915 87.2085 161.718C87.1877 161.646 87.1867 161.559 87.2055 161.456C87.2333 161.351 87.2726 161.252 87.3235 161.16C87.3909 161.023 87.4729 160.854 87.5695 160.651C87.6687 160.457 87.7601 160.236 87.8437 159.988C87.9299 159.749 87.9961 159.492 88.0424 159.216C88.1003 158.947 88.1215 158.668 88.1063 158.381C87.8194 158.465 87.5452 158.491 87.2835 158.46C87.0192 158.42 86.7759 158.335 86.5536 158.205C86.3403 158.073 86.1492 157.9 85.9803 157.686C85.8205 157.47 85.6989 157.219 85.6157 156.932C85.5429 156.681 85.52 156.435 85.5473 156.194C85.5808 155.941 85.6594 155.709 85.7828 155.499C85.9037 155.279 86.0722 155.089 86.2882 154.929C86.5016 154.76 86.7517 154.634 87.0385 154.551C87.3792 154.452 87.6932 154.429 87.9806 154.482C88.2743 154.523 88.5331 154.628 88.7569 154.796C88.987 154.953 89.1827 155.158 89.344 155.413C89.5117 155.656 89.6397 155.93 89.7282 156.234C89.853 156.665 89.9171 157.137 89.9205 157.651C89.9329 158.162 89.8825 158.692 89.7694 159.24C89.6563 159.788 89.4765 160.34 89.2301 160.898C88.9926 161.453 88.691 161.987 88.3252 162.502L87.5949 162.145ZM100.396 133.78L100.813 135.219C100.938 135.649 100.995 136.011 100.983 136.306C100.969 136.592 100.943 136.838 100.905 137.043L97.9381 154.348C97.8768 154.705 97.7397 155.037 97.5268 155.342C97.3114 155.637 96.9706 155.853 96.5045 155.988L94.0978 156.686L97.3025 139.648C97.3844 139.294 97.4696 138.968 97.5581 138.67C97.653 138.361 97.7697 138.06 97.9082 137.767L88.604 140.467C88.3979 140.527 88.1965 140.503 87.9999 140.394C87.8033 140.286 87.6751 140.129 87.6152 139.923L86.9637 137.678L100.396 133.78ZM108.819 138.989C109.223 138.774 109.617 138.592 110.001 138.442C110.383 138.282 110.757 138.149 111.125 138.043C112.147 137.746 113.092 137.637 113.96 137.716C114.828 137.794 115.605 138.025 116.29 138.41C116.975 138.794 117.557 139.31 118.037 139.958C118.514 140.597 118.873 141.334 119.115 142.167C119.414 143.198 119.503 144.193 119.383 145.151C119.271 146.106 118.982 146.983 118.513 147.779C118.042 148.567 117.411 149.256 116.62 149.845C115.837 150.431 114.926 150.876 113.887 151.177C113.277 151.354 112.681 151.459 112.098 151.492C111.514 151.526 110.951 151.509 110.407 151.444C109.87 151.366 109.356 151.253 108.865 151.104C108.381 150.943 107.934 150.757 107.523 150.546L108.135 148.838C108.261 148.47 108.5 148.236 108.849 148.135C109.073 148.07 109.323 148.075 109.597 148.151C109.872 148.227 110.182 148.307 110.527 148.391C110.881 148.473 111.281 148.527 111.726 148.554C112.18 148.577 112.694 148.506 113.267 148.34C113.877 148.163 114.386 147.908 114.795 147.576C115.204 147.243 115.51 146.858 115.713 146.42C115.923 145.97 116.034 145.481 116.046 144.953C116.064 144.413 115.99 143.857 115.823 143.283C115.516 142.225 114.968 141.49 114.178 141.078C113.394 140.654 112.401 140.617 111.2 140.965C110.277 141.233 109.381 141.678 108.512 142.3L106.269 142.309L105.144 132.402L114.744 129.616L115.154 131.028C115.291 131.503 115.255 131.931 115.045 132.313C114.835 132.695 114.376 132.988 113.668 133.194L108.33 134.743L108.819 138.989ZM134.656 134.378C135.147 136.072 135.392 137.6 135.388 138.961C135.391 140.311 135.188 141.488 134.78 142.491C134.38 143.491 133.799 144.32 133.038 144.979C132.283 145.625 131.399 146.096 130.386 146.39C129.373 146.683 128.375 146.759 127.391 146.617C126.413 146.464 125.488 146.071 124.615 145.44C123.742 144.809 122.945 143.923 122.225 142.781C121.503 141.63 120.895 140.208 120.404 138.513C119.91 136.81 119.661 135.284 119.658 133.934C119.655 132.584 119.853 131.409 120.253 130.408C120.653 129.408 121.226 128.586 121.972 127.942C122.724 127.286 123.607 126.811 124.62 126.517C125.633 126.223 126.632 126.152 127.619 126.303C128.612 126.442 129.545 126.828 130.418 127.459C131.3 128.087 132.101 128.972 132.821 130.114C133.55 131.253 134.162 132.675 134.656 134.378ZM131.227 135.373C130.819 133.965 130.378 132.83 129.904 131.967C129.43 131.103 128.938 130.449 128.43 130.003C127.931 129.556 127.426 129.289 126.915 129.204C126.402 129.11 125.904 129.133 125.42 129.274C124.944 129.411 124.515 129.657 124.132 130.012C123.755 130.354 123.476 130.848 123.294 131.494C123.112 132.139 123.052 132.954 123.114 133.937C123.184 134.917 123.424 136.111 123.832 137.519C124.241 138.926 124.677 140.062 125.143 140.928C125.617 141.792 126.103 142.448 126.603 142.896C127.102 143.343 127.604 143.616 128.108 143.712C128.618 143.797 129.111 143.771 129.586 143.633C130.07 143.493 130.505 143.25 130.891 142.905C131.274 142.551 131.557 142.051 131.739 141.405C131.93 140.757 131.994 139.941 131.932 138.958C131.871 137.975 131.636 136.78 131.227 135.373ZM140.694 146.737C140.493 146.649 140.364 146.507 140.307 146.31C140.286 146.238 140.285 146.151 140.304 146.048C140.332 145.943 140.371 145.844 140.422 145.751C140.49 145.615 140.572 145.446 140.668 145.243C140.767 145.049 140.859 144.828 140.942 144.58C141.029 144.341 141.095 144.084 141.141 143.808C141.199 143.539 141.22 143.26 141.205 142.973C140.918 143.056 140.644 143.083 140.382 143.052C140.118 143.012 139.875 142.927 139.652 142.797C139.439 142.664 139.248 142.491 139.079 142.278C138.919 142.062 138.798 141.811 138.714 141.524C138.642 141.273 138.619 141.027 138.646 140.786C138.679 140.533 138.758 140.301 138.882 140.09C139.002 139.871 139.171 139.681 139.387 139.521C139.6 139.352 139.85 139.226 140.137 139.143C140.478 139.044 140.792 139.021 141.079 139.074C141.373 139.115 141.632 139.219 141.856 139.388C142.086 139.545 142.281 139.75 142.443 140.005C142.61 140.248 142.738 140.521 142.827 140.826C142.952 141.256 143.016 141.729 143.019 142.243C143.032 142.754 142.981 143.284 142.868 143.832C142.755 144.38 142.575 144.932 142.329 145.49C142.091 146.044 141.79 146.579 141.424 147.093L140.694 146.737ZM156.746 135.154C157.105 135.05 157.417 135.071 157.683 135.218C157.955 135.353 158.14 135.586 158.236 135.917L158.813 137.907L145.475 141.778L145.156 140.675C145.09 140.451 145.068 140.205 145.087 139.937C145.113 139.657 145.2 139.389 145.349 139.132L149.535 131.503C149.882 130.858 150.182 130.251 150.435 129.682C150.697 129.111 150.893 128.563 151.023 128.039C151.152 127.516 151.218 127.006 151.22 126.51C151.228 126.002 151.158 125.493 151.01 124.982C150.875 124.516 150.689 124.127 150.453 123.817C150.215 123.497 149.935 123.253 149.614 123.084C149.301 122.912 148.954 122.819 148.57 122.803C148.193 122.777 147.79 122.826 147.359 122.951C146.965 123.065 146.614 123.23 146.308 123.446C146.007 123.649 145.757 123.892 145.557 124.174C145.354 124.446 145.202 124.743 145.101 125.064C145 125.385 144.951 125.72 144.955 126.068C144.922 126.525 144.804 126.856 144.601 127.06C144.398 127.265 144.058 127.398 143.58 127.459L141.742 127.657C141.606 126.685 141.629 125.794 141.812 124.983C141.992 124.163 142.301 123.437 142.74 122.804C143.184 122.16 143.745 121.614 144.421 121.165C145.104 120.704 145.876 120.349 146.736 120.1C147.632 119.839 148.492 119.736 149.314 119.789C150.133 119.833 150.877 120.02 151.547 120.351C152.216 120.681 152.797 121.144 153.291 121.74C153.784 122.335 154.152 123.05 154.394 123.883C154.602 124.6 154.687 125.295 154.649 125.967C154.619 126.636 154.506 127.301 154.309 127.961C154.12 128.618 153.864 129.275 153.54 129.933C153.216 130.591 152.872 131.264 152.508 131.953L149.424 137.702C149.809 137.454 150.198 137.239 150.592 137.057C150.993 136.863 151.381 136.711 151.758 136.602L156.746 135.154ZM172.156 123.496C172.647 125.19 172.892 126.718 172.888 128.079C172.891 129.429 172.688 130.606 172.28 131.609C171.88 132.609 171.299 133.439 170.538 134.097C169.783 134.744 168.899 135.214 167.886 135.508C166.873 135.802 165.875 135.878 164.891 135.735C163.913 135.582 162.988 135.19 162.115 134.558C161.242 133.927 160.445 133.041 159.725 131.899C159.002 130.748 158.395 129.326 157.904 127.632C157.41 125.929 157.161 124.402 157.158 123.052C157.155 121.702 157.353 120.527 157.753 119.527C158.153 118.526 158.726 117.704 159.472 117.06C160.224 116.404 161.107 115.929 162.12 115.636C163.133 115.342 164.132 115.27 165.119 115.421C166.112 115.561 167.045 115.946 167.918 116.577C168.8 117.205 169.601 118.091 170.321 119.232C171.05 120.372 171.662 121.793 172.156 123.496ZM168.727 124.491C168.319 123.084 167.878 121.948 167.404 121.085C166.93 120.221 166.438 119.567 165.93 119.122C165.431 118.674 164.926 118.407 164.415 118.322C163.902 118.228 163.403 118.251 162.919 118.392C162.444 118.53 162.015 118.776 161.632 119.13C161.255 119.472 160.976 119.966 160.794 120.612C160.612 121.258 160.552 122.072 160.614 123.055C160.684 124.036 160.924 125.229 161.332 126.637C161.741 128.044 162.177 129.181 162.643 130.047C163.117 130.91 163.603 131.566 164.103 132.014C164.602 132.462 165.104 132.734 165.608 132.831C166.118 132.916 166.611 132.889 167.086 132.751C167.57 132.611 168.005 132.368 168.391 132.023C168.774 131.669 169.057 131.169 169.239 130.523C169.43 129.875 169.494 129.06 169.432 128.076C169.371 127.093 169.136 125.898 168.727 124.491Z" fill="white"/>
<path d="M50.8666 128.2C50.9383 128.18 51.0095 128.191 51.0802 128.233L51.7598 128.641C51.498 129.213 51.1219 129.708 50.6313 130.127C50.1452 130.545 49.5033 130.87 48.7055 131.102C48.0153 131.302 47.3534 131.365 46.7198 131.292C46.0848 131.213 45.5055 131.017 44.9818 130.703C44.4568 130.384 43.9967 129.953 43.6015 129.412C43.2063 128.871 42.9034 128.237 42.6927 127.511C42.482 126.785 42.4031 126.086 42.4561 125.415C42.5091 124.744 42.6787 124.131 42.9649 123.576C43.2556 123.021 43.6555 122.54 44.1647 122.135C44.6726 121.725 45.2762 121.419 45.9753 121.216C46.6611 121.017 47.298 120.951 47.8861 121.019C48.4742 121.086 49.0223 121.25 49.5304 121.511L49.2738 122.234C49.2599 122.287 49.2351 122.335 49.1994 122.379C49.1668 122.418 49.1147 122.448 49.043 122.469C48.9623 122.492 48.8514 122.478 48.7101 122.427C48.5676 122.371 48.3866 122.316 48.1672 122.264C47.9477 122.211 47.6845 122.182 47.3774 122.179C47.069 122.172 46.7087 122.228 46.2964 122.347C45.7989 122.492 45.3693 122.711 45.0077 123.005C44.6448 123.295 44.3607 123.647 44.1554 124.062C43.9545 124.475 43.8394 124.941 43.8102 125.459C43.7809 125.978 43.8521 126.533 44.0238 127.125C44.198 127.725 44.4386 128.236 44.7455 128.657C45.0568 129.077 45.4079 129.408 45.7986 129.649C46.1925 129.885 46.6159 130.029 47.0686 130.082C47.5259 130.134 47.9898 130.092 48.4604 129.956C48.7472 129.872 49.0004 129.782 49.2199 129.684C49.4425 129.581 49.6398 129.465 49.8117 129.337C49.9881 129.209 50.1436 129.066 50.2782 128.911C50.416 128.749 50.5457 128.568 50.6673 128.368C50.724 128.278 50.7904 128.223 50.8666 128.2ZM56.8986 121.224L58.8747 128.034L58.1621 128.241C57.9918 128.29 57.8602 128.239 57.7672 128.086L57.4605 127.38C57.2596 127.793 57.0047 128.154 56.6957 128.462C56.3854 128.766 55.9928 128.987 55.5177 129.125C55.1457 129.233 54.7987 129.268 54.4768 129.23C54.158 129.187 53.8698 129.081 53.612 128.913C53.3543 128.744 53.1299 128.515 52.939 128.226C52.7526 127.935 52.6034 127.597 52.4916 127.211L51.2313 122.869L52.428 122.521L53.6882 126.864C53.8378 127.38 54.07 127.745 54.385 127.959C54.7045 128.173 55.1062 128.209 55.5903 128.069C55.9443 127.966 56.2497 127.788 56.5063 127.533C56.7661 127.273 56.9831 126.958 57.1572 126.586L55.7019 121.571L56.8986 121.224ZM60.3281 121.708C60.408 121.18 60.567 120.74 60.8053 120.389C61.0423 120.034 61.3872 119.79 61.8398 119.659C61.9832 119.617 62.1245 119.593 62.2635 119.587C62.4071 119.579 62.5402 119.594 62.6628 119.632L62.8348 120.551C62.8405 120.671 62.7895 120.746 62.6819 120.778C62.6192 120.796 62.5234 120.809 62.3946 120.817C62.2658 120.825 62.1252 120.852 61.9728 120.896C61.7577 120.958 61.5741 121.046 61.422 121.158C61.2743 121.269 61.1515 121.406 61.0535 121.571C60.9586 121.73 60.8841 121.916 60.8298 122.131C60.7788 122.341 60.7445 122.574 60.7269 122.832L61.9754 127.134L60.7721 127.484L58.7959 120.673L59.4817 120.474C59.6116 120.437 59.7084 120.435 59.772 120.47C59.8356 120.505 59.8939 120.581 59.947 120.697L60.3281 121.708ZM65.2257 120.287C65.3055 119.759 65.4646 119.319 65.7029 118.968C65.9399 118.613 66.2847 118.369 66.7374 118.238C66.8808 118.196 67.0221 118.172 67.1611 118.166C67.3047 118.158 67.4378 118.173 67.5603 118.21L67.7324 119.13C67.738 119.25 67.6871 119.325 67.5795 119.356C67.5168 119.375 67.421 119.388 67.2922 119.396C67.1633 119.404 67.0228 119.431 66.8704 119.475C66.6552 119.537 66.4716 119.624 66.3195 119.737C66.1719 119.847 66.0491 119.985 65.951 120.15C65.8562 120.308 65.7816 120.495 65.7274 120.71C65.6763 120.919 65.642 121.153 65.6245 121.411L66.873 125.713L65.6697 126.062L63.6935 119.252L64.3792 119.053C64.5092 119.016 64.606 119.014 64.6696 119.049C64.7332 119.084 64.7915 119.16 64.8446 119.275L65.2257 120.287ZM73.6458 119.251C73.5652 118.973 73.4514 118.731 73.3044 118.526C73.1606 118.315 72.9884 118.149 72.7879 118.027C72.5906 117.9 72.3714 117.823 72.1302 117.795C71.8878 117.764 71.6299 117.787 71.3565 117.867C70.7828 118.033 70.3767 118.333 70.1381 118.767C69.9027 119.195 69.8305 119.716 69.9215 120.331L73.6458 119.251ZM75.5405 122.163C75.4447 122.385 75.3131 122.593 75.146 122.788C74.9776 122.977 74.7869 123.149 74.5741 123.304C74.3657 123.456 74.1419 123.589 73.9027 123.702C73.6647 123.82 73.4225 123.915 73.176 123.986C72.7054 124.123 72.2479 124.17 71.8035 124.129C71.3623 124.082 70.9518 123.949 70.572 123.729C70.1955 123.503 69.8608 123.187 69.5681 122.781C69.2754 122.375 69.0439 121.879 68.8735 121.291C68.7357 120.816 68.6786 120.352 68.7024 119.898C68.7306 119.443 68.8379 119.025 69.0242 118.646C69.2091 118.262 69.4741 117.927 69.819 117.642C70.1627 117.353 70.5811 117.137 71.0741 116.994C71.4819 116.876 71.8785 116.836 72.2639 116.875C72.6525 116.908 73.01 117.018 73.3364 117.205C73.666 117.386 73.9578 117.646 74.2118 117.986C74.4644 118.321 74.661 118.73 74.8015 119.214C74.8561 119.402 74.8723 119.534 74.8502 119.608C74.8281 119.683 74.761 119.736 74.6489 119.769L70.0977 121.089C70.236 121.516 70.4028 121.873 70.5983 122.161C70.7982 122.448 71.0234 122.672 71.2741 122.833C71.5235 122.989 71.7937 123.083 72.0849 123.115C72.3747 123.142 72.681 123.109 73.0037 123.016C73.304 122.929 73.5519 122.82 73.7475 122.691C73.9463 122.555 74.1125 122.424 74.2459 122.298C74.3794 122.172 74.4879 122.06 74.5714 121.963C74.6582 121.86 74.7397 121.798 74.8159 121.776C74.9145 121.747 75.0017 121.763 75.0776 121.824L75.5405 122.163ZM76.835 116.51C76.9348 116.302 77.0481 116.106 77.1749 115.923C77.3017 115.741 77.4433 115.576 77.5998 115.428C77.7594 115.275 77.9351 115.144 78.127 115.035C78.322 114.92 78.5405 114.827 78.7826 114.757C79.1545 114.649 79.4999 114.617 79.8187 114.661C80.1406 114.698 80.4289 114.804 80.6835 114.978C80.9412 115.146 81.1655 115.375 81.3565 115.665C81.5474 115.954 81.6988 116.292 81.8106 116.677L83.0689 121.013L81.8655 121.363L80.6073 117.026C80.4577 116.511 80.2232 116.147 79.9037 115.933C79.5875 115.714 79.1895 115.674 78.71 115.813C78.3559 115.916 78.049 116.097 77.7892 116.357C77.5338 116.616 77.3184 116.929 77.143 117.296L78.5983 122.311L77.395 122.66L75.4188 115.85L76.1381 115.641C76.3084 115.592 76.4378 115.644 76.5263 115.798L76.835 116.51ZM86.9224 120.012C86.3846 120.168 85.9264 120.138 85.548 119.922C85.174 119.705 84.9051 119.314 84.7412 118.75L83.5317 114.582L82.7116 114.82C82.6399 114.84 82.5735 114.838 82.5125 114.812C82.4502 114.781 82.406 114.721 82.38 114.632L82.2415 114.154L83.3165 113.689L82.9816 111.505C82.9755 111.434 82.989 111.372 83.0221 111.318C83.0584 111.259 83.1147 111.219 83.1909 111.197L83.7959 111.021L84.4767 113.367L86.4465 112.796L86.6981 113.663L84.7284 114.234L85.9145 118.322C85.9977 118.609 86.1289 118.801 86.3082 118.9C86.4874 118.999 86.6869 119.016 86.9065 118.952C87.032 118.916 87.135 118.869 87.2155 118.812C87.2992 118.748 87.3688 118.687 87.4244 118.627C87.4799 118.567 87.5255 118.515 87.5612 118.471C87.6001 118.421 87.6375 118.39 87.6733 118.38C87.7361 118.362 87.8032 118.384 87.8746 118.445L88.39 118.915C88.2397 119.168 88.0352 119.393 87.7764 119.589C87.5163 119.781 87.2316 119.922 86.9224 120.012ZM96.4228 116.016C96.7948 115.908 97.1029 115.772 97.347 115.609C97.5912 115.446 97.7764 115.264 97.9025 115.062C98.0318 114.854 98.1062 114.633 98.1257 114.399C98.144 114.161 98.116 113.914 98.0419 113.658C97.8975 113.161 97.6067 112.82 97.1694 112.636C96.7308 112.447 96.1574 112.456 95.4493 112.661L93.3653 113.266L94.3387 116.621L96.4228 116.016ZM92.1422 109.051L93.0961 112.338L94.8171 111.839C95.1846 111.732 95.4911 111.6 95.7366 111.441C95.9866 111.281 96.1782 111.104 96.3113 110.91C96.449 110.714 96.5311 110.503 96.5578 110.277C96.5831 110.046 96.5606 109.81 96.4904 109.568C96.3252 108.998 96.0346 108.633 95.6186 108.472C95.2012 108.307 94.634 108.328 93.9169 108.536L92.1422 109.051ZM93.6185 107.507C94.2101 107.336 94.7357 107.246 95.1952 107.239C95.6593 107.231 96.0592 107.295 96.3951 107.431C96.7354 107.565 97.016 107.77 97.237 108.046C97.4567 108.318 97.6231 108.649 97.7363 109.038C97.8052 109.276 97.8335 109.516 97.821 109.757C97.8117 109.993 97.7604 110.227 97.6671 110.458C97.5739 110.689 97.4351 110.914 97.2507 111.133C97.0695 111.346 96.8402 111.543 96.5628 111.726C97.3099 111.655 97.9145 111.754 98.3765 112.023C98.8417 112.287 99.1614 112.719 99.3357 113.319C99.454 113.727 99.4858 114.121 99.4309 114.502C99.3806 114.881 99.2448 115.233 99.0238 115.56C98.8072 115.885 98.5077 116.176 98.1254 116.433C97.7419 116.685 97.2812 116.889 96.7434 117.045L93.3417 118.032L90.5462 108.399L93.6185 107.507ZM104.448 111.486C103.902 111.664 103.444 111.845 103.075 112.03C102.709 112.209 102.419 112.391 102.205 112.574C101.996 112.756 101.857 112.94 101.789 113.125C101.726 113.308 101.721 113.494 101.776 113.683C101.828 113.862 101.902 114.008 101.998 114.121C102.094 114.234 102.204 114.319 102.327 114.376C102.453 114.426 102.59 114.452 102.736 114.454C102.885 114.449 103.038 114.424 103.195 114.379C103.406 114.318 103.593 114.241 103.756 114.15C103.918 114.055 104.063 113.945 104.192 113.82C104.325 113.694 104.445 113.554 104.552 113.402C104.663 113.248 104.765 113.08 104.857 112.898L104.448 111.486ZM99.7745 109.825C100.046 109.352 100.373 108.963 100.755 108.658C101.138 108.353 101.594 108.123 102.123 107.97C102.504 107.859 102.86 107.824 103.192 107.863C103.525 107.903 103.824 108.006 104.091 108.171C104.357 108.337 104.589 108.564 104.784 108.852C104.979 109.14 105.132 109.475 105.243 109.856L106.507 114.212L105.976 114.366C105.859 114.4 105.765 114.408 105.691 114.391C105.617 114.368 105.546 114.306 105.477 114.205L105.155 113.598C105.024 113.816 104.892 114.015 104.76 114.194C104.626 114.369 104.478 114.529 104.316 114.673C104.152 114.813 103.969 114.936 103.767 115.044C103.571 115.154 103.343 115.247 103.083 115.322C102.818 115.399 102.559 115.435 102.305 115.431C102.05 115.423 101.814 115.37 101.596 115.273C101.383 115.174 101.192 115.028 101.024 114.834C100.859 114.634 100.732 114.379 100.642 114.07C100.564 113.801 100.563 113.522 100.64 113.233C100.715 112.939 100.89 112.647 101.166 112.358C101.441 112.069 101.828 111.787 102.327 111.511C102.824 111.231 103.457 110.969 104.227 110.726L104.073 110.195C103.92 109.666 103.69 109.301 103.383 109.098C103.075 108.891 102.702 108.851 102.262 108.979C101.967 109.065 101.729 109.175 101.549 109.31C101.373 109.438 101.224 109.571 101.104 109.708C100.986 109.84 100.885 109.959 100.8 110.066C100.717 110.168 100.625 110.234 100.522 110.264C100.441 110.287 100.366 110.287 100.296 110.264C100.224 110.236 100.159 110.196 100.101 110.145L99.7745 109.825ZM106.693 103.422L109.567 113.324L108.37 113.672L105.497 103.769L106.693 103.422ZM114.309 108.625C113.762 108.803 113.305 108.984 112.936 109.169C112.57 109.348 112.28 109.529 112.066 109.713C111.856 109.895 111.718 110.079 111.65 110.263C111.587 110.447 111.582 110.633 111.637 110.821C111.689 111 111.763 111.147 111.859 111.26C111.955 111.373 112.064 111.458 112.188 111.514C112.314 111.565 112.451 111.591 112.597 111.592C112.746 111.588 112.899 111.563 113.056 111.517C113.267 111.456 113.454 111.38 113.617 111.289C113.778 111.193 113.924 111.083 114.053 110.958C114.186 110.832 114.306 110.693 114.413 110.541C114.523 110.387 114.625 110.219 114.718 110.036L114.309 108.625ZM109.635 106.963C109.906 106.491 110.233 106.102 110.616 105.797C110.999 105.491 111.455 105.262 111.983 105.108C112.364 104.998 112.721 104.962 113.053 105.002C113.385 105.042 113.685 105.144 113.952 105.31C114.218 105.475 114.449 105.702 114.645 105.991C114.84 106.279 114.993 106.613 115.104 106.994L116.368 111.351L115.837 111.505C115.72 111.539 115.625 111.547 115.552 111.529C115.478 111.507 115.406 111.445 115.338 111.343L115.016 110.737C114.885 110.955 114.753 111.154 114.621 111.333C114.487 111.508 114.339 111.667 114.176 111.812C114.013 111.951 113.83 112.075 113.628 112.182C113.432 112.293 113.204 112.386 112.944 112.461C112.679 112.538 112.42 112.574 112.166 112.57C111.911 112.561 111.675 112.509 111.457 112.411C111.244 112.313 111.053 112.167 110.885 111.972C110.72 111.772 110.593 111.518 110.503 111.209C110.425 110.94 110.424 110.661 110.5 110.371C110.575 110.077 110.751 109.786 111.027 109.497C111.302 109.208 111.689 108.925 112.187 108.65C112.684 108.369 113.318 108.108 114.088 107.865L113.934 107.334C113.78 106.805 113.55 106.439 113.244 106.237C112.936 106.03 112.562 105.99 112.123 106.117C111.827 106.203 111.59 106.313 111.41 106.448C111.234 106.577 111.085 106.71 110.965 106.847C110.847 106.978 110.746 107.098 110.66 107.205C110.578 107.307 110.485 107.372 110.382 107.402C110.302 107.426 110.226 107.426 110.156 107.402C110.085 107.374 110.02 107.335 109.962 107.284L109.635 106.963ZM117.631 104.672C117.73 104.463 117.844 104.268 117.971 104.085C118.097 103.903 118.239 103.738 118.395 103.59C118.555 103.437 118.731 103.306 118.923 103.197C119.118 103.082 119.336 102.989 119.578 102.919C119.95 102.811 120.296 102.779 120.614 102.822C120.936 102.86 121.225 102.966 121.479 103.14C121.737 103.308 121.961 103.537 122.152 103.827C122.343 104.116 122.494 104.454 122.606 104.839L123.865 109.175L122.661 109.525L121.403 105.188C121.253 104.673 121.019 104.309 120.699 104.095C120.383 103.876 119.985 103.836 119.506 103.975C119.152 104.078 118.845 104.259 118.585 104.519C118.329 104.778 118.114 105.091 117.939 105.457L119.394 110.473L118.191 110.822L116.214 104.012L116.934 103.803C117.104 103.754 117.233 103.806 117.322 103.96L117.631 104.672ZM128.802 101.671C128.781 101.731 128.756 101.779 128.728 101.816C128.7 101.854 128.655 101.881 128.592 101.9C128.525 101.919 128.443 101.914 128.347 101.883C128.249 101.849 128.13 101.815 127.989 101.783C127.853 101.75 127.69 101.731 127.5 101.728C127.313 101.719 127.093 101.751 126.843 101.824C126.506 101.922 126.228 102.068 126.008 102.263C125.786 102.454 125.62 102.687 125.511 102.961C125.405 103.235 125.354 103.544 125.357 103.888C125.364 104.231 125.425 104.6 125.539 104.994C125.659 105.406 125.813 105.76 126 106.056C126.187 106.346 126.397 106.577 126.631 106.747C126.868 106.912 127.125 107.017 127.401 107.063C127.68 107.104 127.972 107.08 128.276 106.991C128.568 106.907 128.798 106.804 128.966 106.682C129.134 106.555 129.266 106.432 129.362 106.312C129.463 106.19 129.544 106.084 129.605 105.994C129.669 105.897 129.742 105.837 129.822 105.814C129.921 105.785 130.008 105.801 130.084 105.862L130.547 106.201C130.453 106.428 130.33 106.633 130.179 106.818C130.029 107.003 129.857 107.172 129.663 107.325C129.473 107.473 129.265 107.601 129.039 107.71C128.813 107.82 128.577 107.91 128.33 107.981C127.905 108.105 127.485 108.142 127.072 108.091C126.664 108.04 126.282 107.905 125.927 107.688C125.571 107.465 125.254 107.159 124.975 106.768C124.697 106.378 124.477 105.905 124.316 105.349C124.169 104.843 124.102 104.354 124.116 103.883C124.135 103.412 124.234 102.982 124.413 102.595C124.595 102.202 124.858 101.861 125.202 101.571C125.55 101.281 125.982 101.061 126.497 100.911C126.977 100.772 127.421 100.728 127.83 100.78C128.241 100.825 128.629 100.949 128.994 101.149L128.802 101.671ZM135.345 101.347C135.264 101.069 135.15 100.827 135.003 100.622C134.86 100.411 134.687 100.245 134.487 100.123C134.29 99.9961 134.07 99.9188 133.829 99.8915C133.587 99.8599 133.329 99.8837 133.055 99.963C132.482 100.129 132.076 100.43 131.837 100.863C131.602 101.291 131.529 101.813 131.62 102.428L135.345 101.347ZM137.24 104.259C137.144 104.481 137.012 104.69 136.845 104.884C136.677 105.074 136.486 105.246 136.273 105.4C136.065 105.552 135.841 105.685 135.602 105.799C135.364 105.916 135.121 106.011 134.875 106.082C134.404 106.219 133.947 106.267 133.502 106.226C133.061 106.179 132.651 106.045 132.271 105.825C131.894 105.599 131.56 105.283 131.267 104.877C130.974 104.471 130.743 103.975 130.572 103.388C130.435 102.913 130.378 102.448 130.401 101.994C130.43 101.539 130.537 101.121 130.723 100.742C130.908 100.358 131.173 100.023 131.518 99.7386C131.862 99.4493 132.28 99.2332 132.773 99.0901C133.181 98.9718 133.577 98.932 133.963 98.9708C134.352 99.0038 134.709 99.1139 135.035 99.301C135.365 99.4823 135.657 99.7427 135.911 100.082C136.163 100.417 136.36 100.826 136.5 101.31C136.555 101.499 136.571 101.63 136.549 101.704C136.527 101.779 136.46 101.832 136.348 101.865L131.797 103.185C131.935 103.612 132.102 103.969 132.297 104.257C132.497 104.544 132.722 104.768 132.973 104.929C133.222 105.085 133.493 105.179 133.784 105.211C134.074 105.239 134.38 105.206 134.703 105.112C135.003 105.025 135.251 104.916 135.447 104.787C135.645 104.651 135.811 104.521 135.945 104.394C136.078 104.268 136.187 104.156 136.27 104.059C136.357 103.956 136.439 103.894 136.515 103.872C136.613 103.843 136.701 103.859 136.777 103.92L137.24 104.259Z" fill="#96BFBF"/>
<path d="M88.6795 270.038L87.5266 266.065C87.4927 265.948 87.4602 265.819 87.4288 265.677C87.3975 265.536 87.3699 265.391 87.3462 265.242L85.224 271.04L88.6795 270.038ZM91.187 269.31L91.386 269.996C91.4068 270.067 91.402 270.134 91.3715 270.197C91.3454 270.258 91.2876 270.301 91.198 270.327L90.0013 270.674L90.7368 273.209L89.688 273.513L88.9526 270.979L84.677 272.22C84.5873 272.246 84.5017 272.244 84.4202 272.214C84.3419 272.178 84.2827 272.125 84.2426 272.054L83.9441 271.477L86.8253 263.899L87.9413 263.575L89.7282 269.733L91.187 269.31ZM93.2733 265.971C93.7441 265.718 94.1901 265.53 94.6114 265.408C95.1134 265.262 95.5785 265.208 96.0069 265.244C96.4352 265.28 96.8148 265.391 97.1457 265.576C97.4811 265.761 97.7651 266.011 97.9979 266.328C98.2351 266.643 98.4141 267.009 98.5351 267.426C98.6833 267.936 98.7277 268.424 98.668 268.888C98.6129 269.352 98.4714 269.776 98.2435 270.163C98.0188 270.544 97.7185 270.874 97.3428 271.154C96.967 271.433 96.5349 271.643 96.0463 271.785C95.764 271.867 95.4844 271.916 95.2075 271.933C94.932 271.955 94.6663 271.952 94.4104 271.924C94.159 271.895 93.9194 271.848 93.6915 271.783C93.4637 271.718 93.2563 271.64 93.0694 271.548L93.2909 270.93C93.3378 270.79 93.4262 270.701 93.5562 270.663C93.6458 270.637 93.757 270.644 93.8899 270.683C94.0214 270.718 94.1802 270.754 94.3663 270.793C94.5523 270.831 94.7633 270.855 94.9993 270.864C95.2384 270.868 95.5081 270.826 95.8084 270.739C96.1445 270.641 96.4314 270.5 96.6691 270.314C96.9068 270.128 97.0934 269.909 97.2289 269.656C97.3631 269.398 97.4414 269.116 97.4639 268.808C97.4863 268.5 97.4475 268.174 97.3473 267.829C97.2602 267.528 97.1367 267.27 96.9768 267.054C96.8214 266.837 96.6294 266.669 96.4007 266.551C96.1765 266.431 95.9185 266.363 95.6268 266.345C95.3351 266.328 95.0122 266.371 94.6581 266.473C94.4161 266.544 94.1687 266.637 93.916 266.754C93.6678 266.87 93.4199 267.012 93.1726 267.181L92.3552 267.178L91.8213 262.449L96.386 261.125L96.5382 261.649C96.5876 261.82 96.5748 261.976 96.4997 262.12C96.4279 262.257 96.2642 262.363 96.0087 262.437L92.9835 263.315L93.2733 265.971ZM101.073 263.708C101.543 263.455 101.989 263.267 102.411 263.145C102.913 262.999 103.378 262.944 103.806 262.98C104.235 263.017 104.614 263.127 104.945 263.313C105.28 263.498 105.565 263.748 105.797 264.065C106.034 264.38 106.213 264.746 106.334 265.162C106.483 265.673 106.527 266.161 106.467 266.625C106.412 267.088 106.271 267.513 106.043 267.9C105.818 268.281 105.518 268.611 105.142 268.89C104.766 269.169 104.334 269.38 103.846 269.522C103.563 269.604 103.284 269.653 103.007 269.67C102.731 269.692 102.466 269.689 102.21 269.661C101.958 269.632 101.719 269.585 101.491 269.52C101.263 269.455 101.056 269.376 100.869 269.285L101.09 268.667C101.137 268.527 101.226 268.438 101.356 268.4C101.445 268.374 101.556 268.381 101.689 268.42C101.821 268.455 101.98 268.491 102.166 268.53C102.352 268.568 102.563 268.592 102.799 268.601C103.038 268.604 103.307 268.563 103.608 268.475C103.944 268.378 104.231 268.236 104.468 268.051C104.706 267.865 104.893 267.646 105.028 267.393C105.162 267.135 105.241 266.852 105.263 266.545C105.286 266.237 105.247 265.91 105.147 265.565C105.06 265.265 104.936 265.007 104.776 264.791C104.621 264.574 104.429 264.406 104.2 264.287C103.976 264.168 103.718 264.099 103.426 264.082C103.134 264.065 102.812 264.107 102.457 264.21C102.215 264.28 101.968 264.374 101.715 264.491C101.467 264.607 101.219 264.749 100.972 264.918L100.155 264.915L99.6207 260.186L104.185 258.862L104.338 259.386C104.387 259.556 104.374 259.713 104.299 259.856C104.227 259.994 104.064 260.1 103.808 260.174L100.783 261.052L101.073 263.708ZM111.807 266.133C112.129 266.039 112.406 265.903 112.636 265.725C112.87 265.545 113.053 265.336 113.183 265.099C113.318 264.861 113.399 264.602 113.424 264.322C113.455 264.041 113.427 263.753 113.341 263.457C113.25 263.143 113.119 262.875 112.947 262.653C112.774 262.426 112.571 262.252 112.336 262.131C112.105 262.003 111.85 261.929 111.572 261.908C111.294 261.886 111.004 261.919 110.704 262.007C110.381 262.1 110.106 262.241 109.879 262.428C109.65 262.611 109.471 262.823 109.342 263.065C109.216 263.301 109.14 263.556 109.113 263.831C109.089 264.101 109.115 264.368 109.192 264.632C109.282 264.941 109.408 265.211 109.572 265.44C109.736 265.669 109.93 265.851 110.153 265.986C110.381 266.119 110.634 266.201 110.91 266.233C111.19 266.258 111.489 266.225 111.807 266.133ZM109.617 261.199C109.563 261.332 109.511 261.461 109.46 261.588C109.413 261.708 109.367 261.828 109.324 261.948C109.507 261.725 109.723 261.531 109.972 261.366C110.22 261.202 110.506 261.073 110.829 260.979C111.219 260.866 111.605 260.824 111.988 260.854C112.369 260.879 112.724 260.978 113.051 261.151C113.381 261.317 113.674 261.558 113.931 261.872C114.186 262.182 114.38 262.565 114.512 263.023C114.641 263.466 114.68 263.902 114.629 264.33C114.578 264.758 114.448 265.155 114.239 265.522C114.034 265.887 113.751 266.21 113.39 266.49C113.033 266.768 112.611 266.978 112.122 267.12C111.638 267.26 111.177 267.312 110.738 267.274C110.298 267.231 109.899 267.109 109.539 266.907C109.182 266.7 108.869 266.417 108.6 266.058C108.333 265.693 108.128 265.259 107.982 264.757C107.86 264.336 107.821 263.861 107.867 263.333C107.916 262.798 108.066 262.201 108.317 261.54L109.81 257.543C109.849 257.444 109.915 257.352 110.007 257.267C110.102 257.176 110.221 257.11 110.365 257.069L111.427 256.76L109.617 261.199ZM123.552 257.185C124.022 256.932 124.468 256.744 124.89 256.622C125.392 256.476 125.857 256.421 126.285 256.458C126.714 256.494 127.093 256.605 127.424 256.79C127.759 256.975 128.043 257.225 128.276 257.542C128.513 257.857 128.692 258.223 128.813 258.639C128.962 259.15 129.006 259.638 128.946 260.102C128.891 260.565 128.75 260.99 128.522 261.377C128.297 261.758 127.997 262.088 127.621 262.367C127.245 262.646 126.813 262.857 126.325 262.999C126.042 263.081 125.763 263.13 125.486 263.147C125.21 263.169 124.945 263.166 124.689 263.138C124.437 263.109 124.198 263.062 123.97 262.997C123.742 262.932 123.535 262.853 123.348 262.762L123.569 262.144C123.616 262.004 123.704 261.915 123.834 261.877C123.924 261.851 124.035 261.858 124.168 261.897C124.3 261.932 124.459 261.968 124.645 262.007C124.831 262.045 125.042 262.069 125.278 262.078C125.517 262.081 125.786 262.04 126.087 261.953C126.423 261.855 126.71 261.713 126.947 261.528C127.185 261.342 127.372 261.123 127.507 260.87C127.641 260.612 127.72 260.329 127.742 260.022C127.765 259.714 127.726 259.387 127.626 259.042C127.539 258.742 127.415 258.484 127.255 258.268C127.1 258.051 126.908 257.883 126.679 257.765C126.455 257.645 126.197 257.576 125.905 257.559C125.613 257.542 125.29 257.584 124.936 257.687C124.694 257.757 124.447 257.851 124.194 257.968C123.946 258.084 123.698 258.226 123.451 258.395L122.634 258.392L122.1 253.663L126.664 252.339L126.817 252.863C126.866 253.033 126.853 253.19 126.778 253.333C126.706 253.471 126.543 253.577 126.287 253.651L123.262 254.529L123.552 257.185ZM134.286 259.61C134.608 259.516 134.885 259.38 135.115 259.202C135.349 259.022 135.532 258.813 135.662 258.576C135.797 258.338 135.877 258.079 135.903 257.799C135.933 257.518 135.906 257.23 135.82 256.934C135.729 256.621 135.598 256.352 135.426 256.13C135.253 255.903 135.05 255.729 134.815 255.608C134.584 255.48 134.329 255.406 134.051 255.385C133.773 255.364 133.483 255.396 133.183 255.484C132.86 255.577 132.585 255.718 132.358 255.905C132.129 256.088 131.95 256.301 131.821 256.542C131.695 256.778 131.619 257.033 131.592 257.308C131.568 257.578 131.594 257.845 131.671 258.109C131.761 258.418 131.887 258.688 132.051 258.917C132.215 259.147 132.409 259.328 132.632 259.463C132.86 259.596 133.113 259.678 133.389 259.71C133.669 259.735 133.968 259.702 134.286 259.61ZM132.096 254.677C132.042 254.809 131.99 254.938 131.939 255.065C131.892 255.185 131.846 255.305 131.803 255.425C131.986 255.202 132.202 255.008 132.451 254.843C132.699 254.679 132.985 254.55 133.308 254.456C133.698 254.343 134.084 254.301 134.467 254.331C134.848 254.357 135.203 254.455 135.53 254.628C135.86 254.794 136.153 255.035 136.409 255.349C136.665 255.659 136.858 256.042 136.991 256.5C137.12 256.943 137.159 257.379 137.108 257.807C137.057 258.235 136.927 258.632 136.718 258.999C136.513 259.364 136.23 259.687 135.869 259.967C135.512 260.245 135.09 260.455 134.601 260.597C134.117 260.737 133.656 260.789 133.217 260.751C132.777 260.708 132.378 260.586 132.018 260.385C131.661 260.177 131.348 259.894 131.079 259.535C130.812 259.17 130.606 258.736 130.461 258.234C130.339 257.813 130.3 257.338 130.346 256.81C130.395 256.276 130.545 255.678 130.796 255.017L132.289 251.02C132.328 250.921 132.394 250.829 132.486 250.744C132.581 250.653 132.7 250.587 132.844 250.546L133.906 250.237L132.096 254.677ZM142.356 254.462L141.203 250.489C141.169 250.372 141.137 250.243 141.105 250.102C141.074 249.96 141.046 249.815 141.023 249.666L138.9 255.465L142.356 254.462ZM144.863 253.734L145.062 254.42C145.083 254.492 145.078 254.559 145.048 254.621C145.022 254.682 144.964 254.725 144.874 254.751L143.678 255.099L144.413 257.633L143.364 257.937L142.629 255.403L138.353 256.644C138.264 256.67 138.178 256.668 138.097 256.638C138.018 256.602 137.959 256.549 137.919 256.478L137.62 255.902L140.502 248.323L141.618 248L143.405 254.157L144.863 253.734ZM152.562 254.037C152.692 253.999 152.806 254.007 152.904 254.061C153.003 254.115 153.069 254.203 153.104 254.324L153.315 255.05L146.888 256.915L146.769 256.505C146.744 256.42 146.737 256.327 146.747 256.227C146.757 256.127 146.789 256.028 146.843 255.93L149.029 251.935C149.209 251.601 149.37 251.285 149.512 250.986C149.652 250.683 149.761 250.389 149.839 250.104C149.917 249.819 149.96 249.541 149.969 249.272C149.977 248.997 149.94 248.719 149.858 248.436C149.776 248.154 149.66 247.921 149.509 247.736C149.357 247.547 149.182 247.406 148.985 247.312C148.792 247.217 148.581 247.167 148.351 247.161C148.119 247.15 147.883 247.18 147.641 247.25C147.394 247.322 147.178 247.423 146.993 247.555C146.807 247.686 146.653 247.841 146.529 248.017C146.409 248.188 146.32 248.377 146.263 248.583C146.207 248.789 146.186 249.004 146.203 249.227C146.194 249.4 146.151 249.527 146.072 249.608C145.997 249.683 145.873 249.734 145.701 249.759L145.045 249.833C144.98 249.376 144.988 248.953 145.07 248.565C145.155 248.171 145.301 247.82 145.508 247.512C145.72 247.203 145.985 246.939 146.306 246.719C146.625 246.496 146.99 246.324 147.403 246.204C147.81 246.086 148.209 246.036 148.598 246.054C148.987 246.072 149.346 246.16 149.673 246.318C150 246.471 150.285 246.692 150.529 246.981C150.773 247.269 150.956 247.624 151.078 248.046C151.183 248.404 151.226 248.754 151.208 249.094C151.189 249.43 151.128 249.764 151.024 250.095C150.921 250.426 150.787 250.759 150.622 251.094C150.461 251.427 150.285 251.767 150.094 252.114L148.306 255.447C148.471 255.345 148.642 255.255 148.818 255.174C148.992 255.09 149.165 255.023 149.335 254.973L152.562 254.037ZM166.934 245.879C167.179 246.722 167.299 247.479 167.294 248.151C167.293 248.817 167.194 249.397 166.998 249.891C166.801 250.386 166.516 250.794 166.143 251.116C165.775 251.437 165.346 251.668 164.858 251.81C164.365 251.953 163.877 251.988 163.394 251.914C162.915 251.839 162.46 251.645 162.03 251.333C161.599 251.021 161.205 250.584 160.847 250.022C160.489 249.455 160.187 248.751 159.942 247.908C159.698 247.066 159.576 246.309 159.575 245.638C159.575 244.968 159.673 244.386 159.87 243.891C160.065 243.392 160.345 242.983 160.709 242.664C161.078 242.343 161.509 242.111 162.002 241.968C162.49 241.826 162.976 241.792 163.459 241.866C163.946 241.938 164.406 242.133 164.838 242.449C165.269 242.762 165.664 243.201 166.022 243.768C166.386 244.333 166.69 245.037 166.934 245.879ZM165.69 246.24C165.477 245.505 165.235 244.907 164.966 244.446C164.699 243.979 164.416 243.624 164.117 243.38C163.822 243.135 163.52 242.988 163.208 242.937C162.896 242.882 162.592 242.897 162.296 242.983C162 243.069 161.735 243.219 161.501 243.432C161.265 243.642 161.089 243.929 160.971 244.293C160.853 244.658 160.804 245.109 160.824 245.648C160.848 246.18 160.966 246.814 161.179 247.549C161.393 248.284 161.632 248.883 161.897 249.345C162.167 249.806 162.449 250.159 162.744 250.404C163.039 250.649 163.342 250.799 163.655 250.854C163.966 250.905 164.269 250.887 164.565 250.802C164.861 250.716 165.126 250.568 165.362 250.359C165.596 250.145 165.773 249.856 165.89 249.491C166.012 249.125 166.062 248.676 166.039 248.144C166.02 247.61 165.904 246.975 165.69 246.24ZM172.363 248.56C172.686 248.467 172.962 248.331 173.192 248.152C173.427 247.972 173.609 247.764 173.74 247.527C173.875 247.288 173.955 247.029 173.981 246.75C174.011 246.469 173.983 246.181 173.898 245.885C173.807 245.571 173.675 245.303 173.504 245.081C173.331 244.854 173.128 244.68 172.893 244.558C172.662 244.431 172.407 244.357 172.129 244.335C171.85 244.314 171.561 244.347 171.261 244.434C170.938 244.528 170.663 244.668 170.436 244.856C170.207 245.039 170.028 245.251 169.899 245.493C169.773 245.728 169.696 245.984 169.669 246.259C169.645 246.528 169.672 246.795 169.749 247.06C169.838 247.369 169.965 247.638 170.129 247.868C170.293 248.097 170.486 248.279 170.71 248.413C170.938 248.546 171.19 248.629 171.467 248.66C171.746 248.686 172.045 248.653 172.363 248.56ZM170.174 243.627C170.12 243.759 170.068 243.889 170.017 244.015C169.969 244.136 169.924 244.256 169.881 244.375C170.064 244.152 170.28 243.958 170.528 243.794C170.777 243.629 171.063 243.5 171.385 243.407C171.775 243.294 172.162 243.252 172.545 243.282C172.926 243.307 173.28 243.406 173.607 243.578C173.937 243.745 174.231 243.985 174.487 244.3C174.742 244.61 174.936 244.993 175.069 245.45C175.198 245.894 175.237 246.33 175.186 246.757C175.135 247.185 175.005 247.583 174.795 247.949C174.591 248.315 174.308 248.638 173.947 248.917C173.59 249.196 173.168 249.406 172.679 249.548C172.195 249.688 171.734 249.739 171.295 249.701C170.855 249.659 170.455 249.537 170.095 249.335C169.739 249.128 169.426 248.844 169.156 248.485C168.89 248.12 168.684 247.687 168.539 247.185C168.416 246.764 168.378 246.289 168.424 245.76C168.473 245.226 168.623 244.629 168.873 243.968L170.366 239.971C170.406 239.872 170.471 239.78 170.563 239.695C170.659 239.604 170.778 239.538 170.921 239.496L171.983 239.188L170.174 243.627ZM176.463 240.957C176.551 241.261 176.673 241.523 176.829 241.74C176.987 241.951 177.171 242.117 177.381 242.236C177.595 242.353 177.83 242.421 178.088 242.438C178.35 242.455 178.627 242.421 178.919 242.336C179.241 242.242 179.511 242.108 179.727 241.934C179.947 241.753 180.117 241.551 180.236 241.327C180.356 241.103 180.428 240.863 180.451 240.609C180.474 240.354 180.45 240.103 180.379 239.857C180.291 239.557 180.163 239.3 179.995 239.086C179.829 238.867 179.636 238.697 179.416 238.576C179.197 238.455 178.955 238.385 178.692 238.364C178.431 238.337 178.16 238.365 177.878 238.447C177.582 238.533 177.327 238.66 177.114 238.829C176.899 238.993 176.729 239.186 176.604 239.407C176.478 239.628 176.403 239.871 176.378 240.136C176.353 240.401 176.381 240.674 176.463 240.957ZM180.12 243.11C180.181 242.951 180.237 242.801 180.288 242.66C180.339 242.519 180.386 242.379 180.429 242.24C180.239 242.509 180.005 242.74 179.726 242.933C179.446 243.125 179.134 243.272 178.789 243.372C178.426 243.477 178.063 243.517 177.701 243.491C177.343 243.464 177.007 243.369 176.693 243.208C176.378 243.042 176.097 242.81 175.85 242.512C175.607 242.209 175.42 241.835 175.292 241.391C175.169 240.97 175.133 240.553 175.184 240.14C175.234 239.727 175.36 239.343 175.563 238.987C175.766 238.632 176.04 238.319 176.385 238.049C176.729 237.779 177.134 237.577 177.6 237.441C178.062 237.308 178.503 237.262 178.924 237.305C179.344 237.348 179.729 237.468 180.077 237.663C180.425 237.858 180.726 238.126 180.98 238.465C181.239 238.803 181.435 239.203 181.569 239.665C181.65 239.942 181.7 240.215 181.719 240.481C181.741 240.742 181.738 241.008 181.709 241.278C181.684 241.543 181.637 241.815 181.567 242.092C181.495 242.366 181.408 242.651 181.305 242.948L179.942 247.017C179.908 247.119 179.845 247.213 179.753 247.298C179.66 247.378 179.544 247.439 179.405 247.479L178.303 247.799L180.12 243.11ZM185.027 239.346C185.498 239.093 185.944 238.905 186.365 238.783C186.867 238.637 187.333 238.582 187.761 238.618C188.189 238.655 188.569 238.765 188.9 238.951C189.235 239.136 189.519 239.386 189.752 239.703C189.989 240.018 190.168 240.384 190.289 240.8C190.437 241.311 190.482 241.799 190.422 242.263C190.367 242.726 190.225 243.151 189.998 243.538C189.773 243.919 189.473 244.249 189.097 244.528C188.721 244.807 188.289 245.018 187.8 245.16C187.518 245.242 187.238 245.291 186.962 245.308C186.686 245.33 186.42 245.327 186.164 245.299C185.913 245.27 185.673 245.223 185.446 245.158C185.218 245.093 185.01 245.014 184.823 244.923L185.045 244.305C185.092 244.165 185.18 244.076 185.31 244.038C185.4 244.012 185.511 244.019 185.644 244.058C185.776 244.093 185.934 244.129 186.12 244.168C186.306 244.206 186.517 244.23 186.753 244.239C186.992 244.242 187.262 244.201 187.562 244.113C187.899 244.016 188.185 243.874 188.423 243.689C188.661 243.503 188.847 243.284 188.983 243.031C189.117 242.773 189.195 242.49 189.218 242.183C189.24 241.875 189.202 241.548 189.101 241.203C189.014 240.903 188.891 240.645 188.731 240.429C188.576 240.212 188.383 240.044 188.155 239.926C187.931 239.806 187.673 239.737 187.381 239.72C187.089 239.703 186.766 239.745 186.412 239.848C186.17 239.918 185.923 240.012 185.67 240.129C185.422 240.245 185.174 240.387 184.927 240.556L184.109 240.553L183.575 235.824L188.14 234.5L188.292 235.024C188.342 235.194 188.329 235.351 188.254 235.494C188.182 235.632 188.018 235.738 187.763 235.812L184.738 236.69L185.027 239.346ZM199.707 235.086C200.178 234.833 200.624 234.645 201.045 234.523C201.547 234.378 202.012 234.323 202.441 234.359C202.869 234.395 203.249 234.506 203.579 234.692C203.915 234.876 204.199 235.126 204.432 235.443C204.669 235.758 204.848 236.124 204.969 236.541C205.117 237.052 205.161 237.539 205.102 238.004C205.047 238.467 204.905 238.892 204.677 239.278C204.452 239.659 204.152 239.989 203.776 240.269C203.401 240.548 202.969 240.758 202.48 240.9C202.198 240.982 201.918 241.031 201.641 241.049C201.366 241.07 201.1 241.067 200.844 241.039C200.593 241.01 200.353 240.963 200.125 240.898C199.897 240.833 199.69 240.755 199.503 240.663L199.725 240.045C199.771 239.905 199.86 239.816 199.99 239.778C200.079 239.752 200.191 239.759 200.324 239.798C200.455 239.833 200.614 239.869 200.8 239.908C200.986 239.946 201.197 239.97 201.433 239.979C201.672 239.983 201.942 239.941 202.242 239.854C202.578 239.756 202.865 239.615 203.103 239.429C203.34 239.243 203.527 239.024 203.663 238.771C203.797 238.513 203.875 238.231 203.898 237.923C203.92 237.615 203.881 237.289 203.781 236.944C203.694 236.643 203.57 236.385 203.41 236.169C203.255 235.952 203.063 235.784 202.834 235.666C202.61 235.546 202.352 235.478 202.06 235.46C201.769 235.443 201.446 235.486 201.092 235.588C200.85 235.659 200.602 235.752 200.35 235.869C200.101 235.985 199.854 236.127 199.606 236.296L198.789 236.293L198.255 231.564L202.82 230.24L202.972 230.764C203.021 230.935 203.008 231.091 202.933 231.235C202.862 231.372 202.698 231.478 202.442 231.552L199.417 232.43L199.707 235.086ZM213.391 236.626L213.657 237.54L208.494 239.038L208.228 238.124L210.292 237.525L208.386 230.957C208.329 230.76 208.278 230.558 208.233 230.353L206.946 232.323C206.902 232.389 206.853 232.437 206.798 232.467C206.743 232.493 206.689 232.509 206.637 232.514C206.585 232.52 206.533 232.515 206.48 232.501C206.432 232.486 206.392 232.466 206.361 232.441L205.834 232.033L207.985 228.719L208.959 228.436L211.495 237.176L213.391 236.626ZM218.24 235.248C218.563 235.154 218.839 235.018 219.07 234.84C219.304 234.66 219.486 234.451 219.617 234.214C219.752 233.976 219.832 233.717 219.858 233.437C219.888 233.156 219.86 232.868 219.775 232.572C219.684 232.259 219.552 231.99 219.381 231.768C219.208 231.541 219.005 231.367 218.77 231.246C218.539 231.118 218.284 231.044 218.006 231.023C217.727 231.002 217.438 231.034 217.138 231.122C216.815 231.215 216.54 231.356 216.313 231.543C216.084 231.726 215.905 231.939 215.776 232.18C215.65 232.416 215.573 232.671 215.546 232.946C215.522 233.216 215.549 233.483 215.626 233.747C215.715 234.056 215.842 234.326 216.006 234.555C216.17 234.785 216.363 234.966 216.587 235.101C216.815 235.234 217.067 235.316 217.344 235.348C217.623 235.373 217.922 235.34 218.24 235.248ZM216.051 230.315C215.997 230.447 215.945 230.576 215.894 230.703C215.846 230.823 215.801 230.943 215.758 231.063C215.941 230.84 216.157 230.646 216.405 230.481C216.654 230.317 216.94 230.188 217.262 230.094C217.652 229.981 218.039 229.939 218.422 229.969C218.803 229.995 219.157 230.093 219.484 230.266C219.814 230.432 220.108 230.673 220.364 230.987C220.619 231.297 220.813 231.68 220.946 232.138C221.075 232.581 221.114 233.017 221.063 233.445C221.012 233.873 220.882 234.27 220.673 234.637C220.468 235.002 220.185 235.325 219.824 235.605C219.467 235.883 219.045 236.093 218.556 236.235C218.072 236.375 217.611 236.427 217.172 236.389C216.732 236.346 216.332 236.224 215.972 236.023C215.616 235.815 215.303 235.532 215.033 235.173C214.767 234.808 214.561 234.374 214.416 233.872C214.293 233.451 214.255 232.976 214.301 232.448C214.35 231.914 214.5 231.316 214.75 230.655L216.243 226.658C216.283 226.559 216.348 226.467 216.44 226.382C216.536 226.291 216.655 226.225 216.798 226.184L217.86 225.875L216.051 230.315ZM226.065 233.021C226.379 232.93 226.646 232.806 226.868 232.649C227.093 232.487 227.268 232.303 227.393 232.096C227.521 231.884 227.598 231.655 227.624 231.41C227.653 231.158 227.628 230.898 227.55 230.629C227.454 230.298 227.316 230.032 227.136 229.831C226.96 229.625 226.756 229.475 226.525 229.382C226.298 229.287 226.054 229.241 225.793 229.244C225.53 229.243 225.266 229.28 225.002 229.357C224.737 229.434 224.495 229.543 224.273 229.685C224.051 229.823 223.867 229.993 223.722 230.195C223.581 230.396 223.489 230.632 223.446 230.902C223.406 231.166 223.434 231.464 223.53 231.796C223.608 232.065 223.724 232.298 223.879 232.496C224.037 232.689 224.224 232.841 224.442 232.953C224.662 233.059 224.908 233.121 225.181 233.139C225.457 233.151 225.751 233.112 226.065 233.021ZM223.753 225.055C223.466 225.138 223.226 225.254 223.031 225.403C222.84 225.55 222.693 225.72 222.588 225.91C222.487 226.1 222.427 226.304 222.408 226.524C222.394 226.742 222.419 226.963 222.484 227.187C222.548 227.406 222.641 227.61 222.764 227.798C222.886 227.986 223.04 228.141 223.226 228.262C223.411 228.378 223.627 228.454 223.875 228.489C224.127 228.518 224.409 228.487 224.723 228.396C225.037 228.305 225.29 228.18 225.482 228.022C225.677 227.859 225.822 227.678 225.915 227.481C226.007 227.28 226.055 227.067 226.058 226.842C226.061 226.618 226.03 226.396 225.967 226.176C225.901 225.952 225.802 225.753 225.669 225.578C225.54 225.401 225.38 225.26 225.189 225.155C225.003 225.049 224.788 224.985 224.543 224.964C224.303 224.941 224.04 224.971 223.753 225.055ZM226.232 228.446C226.882 228.442 227.426 228.593 227.864 228.898C228.303 229.203 228.612 229.668 228.793 230.291C228.915 230.712 228.945 231.116 228.883 231.504C228.823 231.885 228.685 232.236 228.467 232.557C228.253 232.877 227.966 233.159 227.605 233.405C227.243 233.646 226.822 233.836 226.342 233.976C225.862 234.115 225.405 234.179 224.97 234.17C224.533 234.156 224.137 234.071 223.781 233.917C223.425 233.763 223.12 233.54 222.866 233.25C222.61 232.954 222.421 232.596 222.299 232.175C222.118 231.552 222.131 230.994 222.338 230.502C222.545 230.009 222.924 229.591 223.475 229.246C222.914 229.205 222.45 229.036 222.082 228.739C221.717 228.437 221.459 228.026 221.309 227.506C221.206 227.152 221.179 226.8 221.228 226.451C221.277 226.101 221.397 225.775 221.586 225.472C221.775 225.17 222.028 224.902 222.344 224.669C222.665 224.435 223.045 224.254 223.484 224.127C223.919 224.001 224.334 223.951 224.731 223.977C225.127 224.003 225.486 224.093 225.808 224.247C226.129 224.402 226.405 224.613 226.633 224.882C226.862 225.151 227.028 225.463 227.13 225.817C227.281 226.337 227.281 226.822 227.131 227.274C226.983 227.72 226.683 228.111 226.232 228.446Z" fill="white"/>
<path d="M82.2367 245.847L79.9654 242.864C79.898 242.775 79.8242 242.672 79.7441 242.553C79.6628 242.431 79.5812 242.301 79.4993 242.162C79.5089 242.497 79.5016 242.78 79.4773 243.012L79.1539 246.742L82.2367 245.847ZM85.4543 248.237L84.5899 248.488C84.49 248.517 84.4021 248.516 84.3262 248.483C84.2502 248.451 84.1857 248.401 84.1327 248.333L82.782 246.564L79.0768 247.639L78.8832 249.857C78.8803 249.933 78.8539 250.007 78.8042 250.08C78.7545 250.152 78.6817 250.203 78.5856 250.23L77.7213 250.481L78.6269 241.266L79.7563 240.938L85.4543 248.237ZM89.1457 240.837L88.0838 249.342C88.0716 249.429 88.0452 249.503 88.0048 249.565C87.9683 249.626 87.8962 249.672 87.7886 249.703L87.028 249.924L87.4219 247.298L83.418 242.499L84.3054 242.242C84.3938 242.216 84.4696 242.219 84.5329 242.251C84.599 242.278 84.6494 242.315 84.6842 242.363L87.3126 245.586C87.4209 245.73 87.5218 245.884 87.6153 246.048C87.6167 245.852 87.6247 245.665 87.6394 245.485L88.0897 241.375C88.0949 241.307 88.1189 241.246 88.1615 241.192C88.2069 241.133 88.2641 241.093 88.3333 241.073L89.1457 240.837ZM92.3281 239.814C92.7545 239.69 93.1592 239.65 93.5424 239.693C93.9255 239.736 94.276 239.853 94.5938 240.044C94.9116 240.235 95.188 240.498 95.4229 240.834C95.6605 241.165 95.8457 241.559 95.9783 242.016C96.1121 242.477 96.1672 242.911 96.1436 243.317C96.1238 243.723 96.0308 244.092 95.8646 244.423C95.6984 244.754 95.465 245.041 95.1643 245.282C94.8626 245.52 94.4985 245.7 94.0721 245.824C93.6418 245.949 93.2337 245.992 92.8479 245.954C92.4647 245.911 92.1143 245.794 91.7964 245.604C91.4786 245.413 91.2009 245.152 90.9633 244.821C90.7295 244.489 90.5457 244.092 90.4119 243.631C90.2793 243.174 90.2228 242.743 90.2426 242.337C90.2651 241.927 90.3594 241.556 90.5256 241.224C90.6919 240.893 90.9253 240.606 91.2259 240.365C91.5304 240.122 91.8978 239.939 92.3281 239.814ZM93.8396 245.023C94.4159 244.856 94.7904 244.539 94.9632 244.072C95.1349 243.602 95.1204 243.021 94.9197 242.329C94.718 241.634 94.4186 241.134 94.0218 240.828C93.6249 240.523 93.1384 240.453 92.5621 240.621C92.2702 240.705 92.0292 240.829 91.8392 240.993C91.6531 241.155 91.5143 241.352 91.423 241.582C91.3355 241.812 91.2954 242.075 91.3026 242.373C91.3126 242.666 91.3678 242.985 91.4681 243.331C91.6688 244.022 91.9675 244.521 92.3644 244.826C92.764 245.127 93.2557 245.193 93.8396 245.023ZM98.127 244.56L96.4332 238.723L97.0497 238.544C97.1957 238.501 97.3066 238.546 97.3824 238.678L97.6312 239.256C97.7694 238.928 97.9485 238.641 98.1683 238.394C98.3882 238.147 98.6748 237.972 99.0283 237.87C99.4201 237.756 99.7688 237.774 100.074 237.922C100.384 238.07 100.646 238.314 100.862 238.656C100.885 238.42 100.94 238.206 101.026 238.015C101.116 237.822 101.229 237.652 101.365 237.504C101.501 237.356 101.655 237.233 101.826 237.133C102.001 237.032 102.184 236.954 102.376 236.898C102.683 236.809 102.971 236.78 103.238 236.811C103.508 236.836 103.753 236.919 103.972 237.06C104.196 237.199 104.392 237.394 104.561 237.645C104.728 237.892 104.863 238.192 104.966 238.546L106.044 242.262L105.013 242.562L103.934 238.845C103.802 238.388 103.602 238.071 103.334 237.895C103.065 237.715 102.742 237.679 102.366 237.788C102.197 237.837 102.044 237.915 101.909 238.021C101.775 238.122 101.668 238.247 101.586 238.396C101.504 238.544 101.455 238.717 101.437 238.914C101.422 239.106 101.447 239.317 101.514 239.547L102.593 243.264L101.561 243.563L100.483 239.847C100.347 239.378 100.151 239.056 99.8961 238.88C99.641 238.704 99.3329 238.668 98.9718 238.773C98.7183 238.847 98.504 238.984 98.329 239.185C98.1529 239.382 98.0086 239.623 97.896 239.91L99.1585 244.261L98.127 244.56ZM106.993 235.659L108.687 241.496L107.661 241.793L105.967 235.956L106.993 235.659ZM106.68 233.763C106.709 233.862 106.715 233.963 106.699 234.063C106.685 234.159 106.653 234.251 106.604 234.341C106.558 234.425 106.494 234.5 106.413 234.565C106.336 234.629 106.247 234.675 106.147 234.704C106.047 234.733 105.948 234.741 105.848 234.729C105.753 234.715 105.663 234.685 105.578 234.638C105.493 234.588 105.419 234.526 105.356 234.453C105.292 234.376 105.245 234.287 105.216 234.187C105.187 234.087 105.179 233.988 105.192 233.888C105.204 233.785 105.233 233.691 105.279 233.607C105.324 233.519 105.384 233.443 105.457 233.38C105.534 233.316 105.623 233.27 105.723 233.241C105.823 233.212 105.922 233.204 106.022 233.216C106.125 233.228 106.219 233.259 106.305 233.309C106.393 233.354 106.47 233.418 106.535 233.499C106.603 233.575 106.651 233.663 106.68 233.763ZM110.995 239.301C111.257 239.5 111.515 239.619 111.767 239.658C112.02 239.697 112.285 239.677 112.562 239.597C113.107 239.438 113.47 239.123 113.649 238.65C113.828 238.177 113.814 237.582 113.605 236.863C113.495 236.483 113.366 236.167 113.217 235.914C113.073 235.66 112.912 235.465 112.735 235.329C112.557 235.189 112.364 235.106 112.156 235.079C111.949 235.051 111.728 235.072 111.493 235.14C111.159 235.237 110.887 235.399 110.679 235.626C110.473 235.852 110.306 236.136 110.176 236.478L110.995 239.301ZM109.92 235.79C110.078 235.415 110.291 235.089 110.561 234.811C110.83 234.533 111.172 234.333 111.587 234.213C111.925 234.115 112.249 234.092 112.56 234.143C112.869 234.191 113.157 234.313 113.423 234.511C113.687 234.705 113.925 234.973 114.137 235.316C114.349 235.658 114.525 236.072 114.666 236.556C114.79 236.986 114.849 237.404 114.842 237.81C114.834 238.213 114.76 238.582 114.62 238.918C114.483 239.249 114.28 239.54 114.011 239.788C113.744 240.032 113.415 240.211 113.023 240.325C112.666 240.429 112.341 240.458 112.049 240.414C111.76 240.364 111.486 240.261 111.228 240.102L111.977 242.684L110.945 242.983L108.678 235.17L109.295 234.991C109.441 234.948 109.551 234.993 109.627 235.125L109.92 235.79ZM117.572 232.489C117.998 232.365 118.403 232.325 118.786 232.368C119.169 232.41 119.52 232.527 119.838 232.718C120.155 232.909 120.432 233.173 120.667 233.509C120.904 233.84 121.089 234.234 121.222 234.691C121.356 235.152 121.411 235.586 121.387 235.992C121.368 236.398 121.275 236.766 121.108 237.098C120.942 237.429 120.709 237.716 120.408 237.957C120.106 238.194 119.742 238.375 119.316 238.499C118.886 238.624 118.478 238.667 118.092 238.629C117.709 238.586 117.358 238.469 117.04 238.278C116.722 238.087 116.445 237.826 116.207 237.495C115.973 237.163 115.79 236.767 115.656 236.306C115.523 235.849 115.467 235.417 115.486 235.012C115.509 234.601 115.603 234.23 115.769 233.899C115.936 233.567 116.169 233.281 116.47 233.04C116.774 232.797 117.142 232.614 117.572 232.489ZM119.083 237.698C119.66 237.531 120.034 237.214 120.207 236.747C120.379 236.277 120.364 235.696 120.164 235.004C119.962 234.309 119.662 233.808 119.266 233.503C118.869 233.197 118.382 233.128 117.806 233.295C117.514 233.38 117.273 233.504 117.083 233.668C116.897 233.83 116.758 234.026 116.667 234.257C116.579 234.486 116.539 234.75 116.546 235.048C116.556 235.341 116.612 235.66 116.712 236.006C116.913 236.697 117.211 237.196 117.608 237.501C118.008 237.802 118.5 237.867 119.083 237.698ZM125.356 231.373C125.334 231.471 125.276 231.534 125.18 231.562C125.122 231.579 125.05 231.576 124.965 231.555C124.88 231.534 124.776 231.514 124.654 231.496C124.535 231.472 124.396 231.46 124.238 231.46C124.079 231.457 123.899 231.484 123.699 231.542C123.526 231.592 123.377 231.66 123.253 231.746C123.127 231.829 123.025 231.923 122.947 232.028C122.873 232.133 122.825 232.245 122.801 232.365C122.78 232.479 122.787 232.596 122.821 232.715C122.865 232.865 122.943 232.977 123.057 233.052C123.174 233.127 123.315 233.18 123.478 233.211C123.641 233.243 123.821 233.262 124.019 233.267C124.215 233.268 124.417 233.274 124.624 233.285C124.834 233.291 125.04 233.306 125.243 233.33C125.446 233.355 125.635 233.404 125.811 233.478C125.986 233.552 126.141 233.661 126.274 233.806C126.411 233.945 126.513 234.132 126.581 234.367C126.659 234.635 126.683 234.899 126.654 235.157C126.624 235.412 126.539 235.651 126.4 235.875C126.26 236.094 126.067 236.292 125.822 236.467C125.577 236.642 125.276 236.782 124.919 236.885C124.512 237.004 124.124 237.045 123.756 237.011C123.386 236.972 123.056 236.882 122.765 236.742L122.894 236.28C122.91 236.221 122.935 236.172 122.97 236.133C123.004 236.094 123.054 236.065 123.119 236.046C123.189 236.026 123.269 236.031 123.362 236.063C123.454 236.094 123.564 236.127 123.69 236.161C123.821 236.194 123.972 236.215 124.145 236.223C124.319 236.231 124.522 236.201 124.757 236.133C124.956 236.075 125.124 235.999 125.259 235.906C125.393 235.808 125.498 235.701 125.572 235.584C125.646 235.467 125.69 235.344 125.702 235.215C125.719 235.085 125.708 234.955 125.67 234.824C125.623 234.663 125.541 234.543 125.422 234.465C125.307 234.382 125.167 234.325 125.004 234.293C124.839 234.257 124.657 234.24 124.457 234.239C124.26 234.234 124.056 234.229 123.846 234.223C123.64 234.216 123.434 234.201 123.227 234.178C123.023 234.149 122.833 234.096 122.656 234.018C122.479 233.941 122.322 233.828 122.183 233.681C122.048 233.529 121.943 233.328 121.871 233.078C121.806 232.855 121.791 232.629 121.824 232.398C121.856 232.164 121.938 231.944 122.07 231.74C122.201 231.531 122.382 231.343 122.612 231.176C122.843 231.009 123.123 230.878 123.454 230.782C123.838 230.67 124.2 230.632 124.539 230.667C124.881 230.697 125.194 230.785 125.478 230.932L125.356 231.373ZM127.746 229.636L129.44 235.474L128.414 235.771L126.72 229.934L127.746 229.636ZM127.433 227.74C127.462 227.84 127.468 227.941 127.452 228.041C127.438 228.137 127.406 228.229 127.357 228.318C127.311 228.403 127.247 228.477 127.166 228.543C127.089 228.607 127 228.653 126.901 228.682C126.801 228.711 126.701 228.719 126.602 228.706C126.506 228.693 126.416 228.662 126.332 228.616C126.246 228.566 126.172 228.504 126.109 228.431C126.045 228.354 125.999 228.265 125.97 228.165C125.941 228.065 125.933 227.966 125.945 227.866C125.957 227.763 125.986 227.669 126.032 227.585C126.078 227.497 126.137 227.421 126.21 227.358C126.287 227.294 126.376 227.248 126.476 227.219C126.576 227.19 126.675 227.181 126.775 227.194C126.878 227.206 126.973 227.237 127.058 227.287C127.146 227.332 127.223 227.395 127.288 227.476C127.356 227.553 127.404 227.641 127.433 227.74ZM137.429 229.832L135.157 226.848C135.09 226.76 135.016 226.656 134.936 226.538C134.855 226.416 134.773 226.285 134.691 226.147C134.701 226.481 134.694 226.764 134.669 226.996L134.346 230.726L137.429 229.832ZM140.646 232.222L139.782 232.472C139.682 232.501 139.594 232.5 139.518 232.468C139.442 232.436 139.378 232.386 139.325 232.318L137.974 230.548L134.269 231.623L134.075 233.841C134.072 233.917 134.046 233.991 133.996 234.064C133.947 234.137 133.874 234.187 133.778 234.215L132.913 234.466L133.819 225.25L134.948 224.922L140.646 232.222ZM143.879 226.461C143.612 226.259 143.353 226.14 143.101 226.105C142.848 226.066 142.584 226.087 142.307 226.167C141.765 226.324 141.405 226.639 141.225 227.112C141.046 227.585 141.061 228.18 141.269 228.898C141.379 229.279 141.507 229.596 141.651 229.85C141.795 230.1 141.955 230.295 142.133 230.434C142.31 230.571 142.503 230.652 142.71 230.679C142.918 230.707 143.139 230.686 143.374 230.618C143.712 230.52 143.983 230.358 144.188 230.132C144.397 229.905 144.567 229.62 144.697 229.278L143.879 226.461ZM143.733 222.124L146.196 230.611L145.585 230.789C145.439 230.831 145.326 230.787 145.246 230.656L144.948 229.974C144.786 230.346 144.572 230.67 144.306 230.947C144.041 231.224 143.699 231.423 143.28 231.545C142.946 231.642 142.624 231.666 142.315 231.619C142.004 231.567 141.716 231.445 141.452 231.251C141.187 231.057 140.949 230.789 140.737 230.446C140.525 230.103 140.349 229.69 140.209 229.206C140.084 228.776 140.026 228.36 140.034 227.957C140.041 227.551 140.112 227.181 140.248 226.846C140.384 226.51 140.586 226.221 140.852 225.977C141.122 225.728 141.452 225.547 141.844 225.433C142.201 225.329 142.524 225.302 142.814 225.351C143.106 225.396 143.383 225.497 143.645 225.654L142.707 222.421L143.733 222.124ZM150.691 225.452C150.622 225.214 150.524 225.007 150.398 224.831C150.275 224.65 150.127 224.508 149.955 224.404C149.786 224.294 149.598 224.228 149.392 224.205C149.184 224.178 148.963 224.198 148.728 224.266C148.237 224.409 147.889 224.666 147.684 225.038C147.482 225.405 147.42 225.851 147.498 226.379L150.691 225.452ZM152.315 227.949C152.233 228.139 152.12 228.318 151.977 228.484C151.832 228.647 151.669 228.794 151.486 228.926C151.308 229.057 151.116 229.171 150.911 229.268C150.707 229.369 150.499 229.45 150.288 229.511C149.885 229.628 149.492 229.669 149.112 229.634C148.733 229.594 148.382 229.479 148.056 229.291C147.733 229.097 147.446 228.826 147.196 228.478C146.945 228.13 146.746 227.705 146.6 227.202C146.482 226.794 146.433 226.396 146.453 226.007C146.478 225.617 146.57 225.259 146.729 224.934C146.888 224.605 147.115 224.318 147.411 224.074C147.705 223.826 148.064 223.641 148.486 223.518C148.836 223.417 149.176 223.382 149.506 223.416C149.839 223.444 150.146 223.538 150.426 223.699C150.708 223.854 150.958 224.077 151.176 224.368C151.392 224.655 151.561 225.006 151.681 225.421C151.728 225.582 151.742 225.695 151.723 225.759C151.704 225.823 151.647 225.868 151.551 225.896L147.649 227.028C147.768 227.394 147.911 227.7 148.078 227.947C148.25 228.193 148.443 228.385 148.658 228.522C148.872 228.656 149.103 228.737 149.353 228.764C149.601 228.788 149.864 228.76 150.14 228.68C150.398 228.605 150.61 228.512 150.778 228.401C150.948 228.285 151.091 228.173 151.205 228.064C151.319 227.956 151.412 227.861 151.484 227.777C151.558 227.689 151.628 227.635 151.694 227.617C151.778 227.592 151.853 227.606 151.918 227.658L152.315 227.949ZM160.204 220.218L160.008 226.603L159.195 226.839C159.095 226.868 159.007 226.823 158.931 226.703L156.492 223.119C156.435 223.04 156.385 222.959 156.34 222.876C156.294 222.789 156.248 222.705 156.204 222.622C156.21 222.716 156.217 222.812 156.225 222.909C156.231 223.003 156.232 223.101 156.228 223.202L156.061 227.536C156.065 227.677 156.007 227.764 155.888 227.799L155.116 228.023L151.532 222.734L152.339 222.5C152.419 222.477 152.493 222.478 152.559 222.505C152.628 222.53 152.681 222.569 152.717 222.621L154.925 226.054C155.071 226.312 155.199 226.558 155.308 226.792C155.306 226.656 155.303 226.517 155.3 226.376C155.301 226.235 155.302 226.09 155.306 225.944L155.442 221.806C155.444 221.743 155.463 221.685 155.498 221.633C155.537 221.58 155.591 221.544 155.66 221.524L156.109 221.393C156.186 221.371 156.255 221.372 156.316 221.396C156.377 221.42 156.426 221.458 156.462 221.51L158.763 224.94C158.844 225.063 158.921 225.184 158.994 225.305C159.066 225.425 159.136 225.544 159.204 225.662C159.186 225.53 159.172 225.396 159.162 225.262C159.155 225.122 159.149 224.978 159.143 224.83L159.194 220.742C159.196 220.675 159.218 220.614 159.26 220.56C159.302 220.502 159.359 220.463 159.432 220.442L160.204 220.218ZM165.23 222.239C164.762 222.392 164.37 222.547 164.053 222.705C163.74 222.859 163.491 223.014 163.308 223.172C163.128 223.328 163.009 223.485 162.951 223.644C162.897 223.801 162.893 223.961 162.94 224.122C162.985 224.276 163.048 224.401 163.13 224.498C163.213 224.595 163.307 224.667 163.412 224.716C163.521 224.759 163.638 224.782 163.763 224.783C163.891 224.779 164.022 224.758 164.157 224.718C164.337 224.666 164.497 224.601 164.637 224.523C164.776 224.441 164.9 224.346 165.011 224.239C165.125 224.131 165.228 224.012 165.319 223.881C165.414 223.75 165.502 223.606 165.581 223.449L165.23 222.239ZM161.224 220.815C161.457 220.41 161.737 220.077 162.065 219.815C162.393 219.553 162.784 219.357 163.237 219.225C163.564 219.13 163.869 219.1 164.154 219.134C164.439 219.168 164.696 219.256 164.924 219.398C165.153 219.54 165.351 219.734 165.518 219.981C165.686 220.228 165.817 220.515 165.912 220.842L166.995 224.576L166.54 224.708C166.44 224.737 166.359 224.744 166.296 224.729C166.232 224.71 166.171 224.657 166.112 224.57L165.837 224.05C165.724 224.236 165.611 224.407 165.498 224.56C165.383 224.71 165.256 224.847 165.117 224.971C164.977 225.091 164.82 225.197 164.647 225.288C164.478 225.383 164.283 225.463 164.06 225.527C163.833 225.593 163.611 225.624 163.394 225.621C163.175 225.613 162.972 225.568 162.786 225.485C162.603 225.4 162.44 225.275 162.295 225.109C162.154 224.937 162.045 224.719 161.968 224.454C161.901 224.223 161.9 223.984 161.966 223.736C162.03 223.484 162.181 223.234 162.417 222.987C162.653 222.739 162.985 222.497 163.412 222.261C163.838 222.02 164.381 221.796 165.041 221.588L164.909 221.133C164.777 220.679 164.58 220.366 164.318 220.192C164.054 220.015 163.733 219.981 163.357 220.09C163.103 220.164 162.9 220.258 162.746 220.374C162.595 220.484 162.467 220.598 162.364 220.715C162.263 220.828 162.176 220.93 162.103 221.022C162.033 221.109 161.953 221.166 161.865 221.191C161.796 221.212 161.731 221.211 161.671 221.191C161.61 221.167 161.554 221.134 161.504 221.09L161.224 220.815ZM167.155 215.327L169.618 223.815L168.592 224.112L166.129 215.624L167.155 215.327ZM174.156 218.643C174.087 218.405 173.99 218.198 173.864 218.022C173.74 217.841 173.593 217.699 173.421 217.594C173.252 217.485 173.064 217.419 172.857 217.396C172.649 217.368 172.428 217.389 172.194 217.457C171.702 217.6 171.354 217.857 171.15 218.228C170.948 218.595 170.886 219.042 170.964 219.569L174.156 218.643ZM175.78 221.139C175.698 221.33 175.585 221.508 175.442 221.675C175.298 221.837 175.134 221.985 174.952 222.117C174.773 222.248 174.582 222.362 174.376 222.459C174.172 222.56 173.965 222.641 173.754 222.702C173.35 222.819 172.958 222.86 172.577 222.825C172.199 222.785 171.847 222.67 171.522 222.481C171.199 222.288 170.912 222.017 170.661 221.669C170.41 221.321 170.212 220.896 170.066 220.392C169.948 219.985 169.899 219.587 169.919 219.198C169.943 218.808 170.035 218.45 170.195 218.124C170.353 217.795 170.581 217.509 170.876 217.265C171.171 217.017 171.529 216.831 171.952 216.709C172.302 216.607 172.641 216.573 172.972 216.606C173.305 216.635 173.611 216.729 173.891 216.889C174.174 217.045 174.424 217.268 174.641 217.559C174.858 217.846 175.026 218.197 175.147 218.612C175.194 218.773 175.208 218.886 175.189 218.949C175.17 219.013 175.112 219.059 175.016 219.087L171.115 220.219C171.234 220.584 171.377 220.891 171.544 221.138C171.715 221.384 171.909 221.576 172.123 221.713C172.337 221.847 172.569 221.928 172.818 221.955C173.067 221.979 173.329 221.951 173.606 221.87C173.863 221.796 174.076 221.703 174.243 221.592C174.414 221.475 174.556 221.363 174.671 221.255C174.785 221.147 174.878 221.051 174.95 220.968C175.024 220.88 175.094 220.826 175.159 220.807C175.244 220.783 175.318 220.796 175.384 220.848L175.78 221.139Z" fill="#96BFBF"/>
<circle cx="285.666" cy="65.251" r="15.9091" transform="rotate(-16.1817 285.666 65.251)" fill="#EB001B"/>
<circle cx="304.001" cy="59.9307" r="15.9091" transform="rotate(-16.1817 304.001 59.9307)" fill="#F79E1B"/>
<path fill-rule="evenodd" clip-rule="evenodd" d="M298.381 74.8142C301.89 71.1505 303.405 65.7669 301.889 60.5439C300.373 55.3209 296.213 51.5842 291.287 50.3682C287.777 54.0319 286.263 59.4156 287.778 64.6385C289.294 69.8615 293.455 73.5983 298.381 74.8142Z" fill="#FF5F00"/>
<defs>
<filter id="filter0_b_1_109" x="-74.8039" y="-74.3706" width="551.608" height="472.076" filterUnits="userSpaceOnUse" color-interpolation-filters="sRGB">
<feFlood flood-opacity="0" result="BackgroundImageFix"/>
<feGaussianBlur in="BackgroundImage" stdDeviation="40"/>
<feComposite in2="SourceAlpha" operator="in" result="effect1_backgroundBlur_1_109"/>
<feBlend mode="normal" in="SourceGraphic" in2="effect1_backgroundBlur_1_109" result="shape"/>
</filter>
<linearGradient id="paint0_linear_1_109" x1="-88.386" y1="49.834" x2="434.729" y2="276.24" gradientUnits="userSpaceOnUse">
<stop offset="0.0364583"/>
<stop offset="0.878935" stop-color="#0FB8B8"/>
</linearGradient>
</defs>
</svg>
