<svg width="396" height="309" viewBox="0 0 396 309" fill="none" xmlns="http://www.w3.org/2000/svg">
<rect x="55.0244" y="0.412109" width="350" height="233.333" rx="20" transform="rotate(13.4829 55.0244 0.412109)" fill="url(#paint0_linear_1_96)"/>
<g filter="url(#filter0_b_1_96)">
<rect x="55.0244" y="0.412109" width="350" height="233.333" rx="20" transform="rotate(13.4829 55.0244 0.412109)" fill="white" fill-opacity="0.03"/>
</g>
<path fill-rule="evenodd" clip-rule="evenodd" d="M58.66 7.92037C54.638 10.6198 51.5797 14.7791 50.3613 19.8609L5.28448 207.866C2.70911 218.607 9.32887 229.402 20.0701 231.978L321.707 304.299C331.546 306.658 341.431 301.302 345.001 292.129C360.794 227.51 334.463 123.673 100.743 11.3739L74.4732 5.07523C72.1207 4.51119 69.7657 4.38821 67.4949 4.65299L58.66 7.92037Z" fill="white" fill-opacity="0.06"/>
<path d="M75.7989 88.1226C76.7914 88.2262 77.5948 88.0781 78.2089 87.6783C78.8343 87.2716 79.2482 86.6462 79.4506 85.8021C79.5333 85.4572 79.5416 85.1425 79.4754 84.8579C79.4205 84.5664 79.3036 84.2936 79.1246 84.0395C78.9546 83.7876 78.7373 83.5531 78.4726 83.3361C78.2079 83.1191 77.9138 82.9046 77.5903 82.6927L75.7989 88.1226ZM78.3778 73.5236C77.8543 73.4652 77.3971 73.4708 77.0062 73.5402C76.6174 73.6006 76.2834 73.7124 76.0043 73.8759C75.7251 74.0393 75.4985 74.2441 75.3243 74.4903C75.1592 74.7386 75.0407 75.0125 74.9689 75.312C74.8862 75.6569 74.8723 75.9751 74.9272 76.2666C74.9933 76.5512 75.1057 76.8229 75.2644 77.0817C75.4344 77.3336 75.645 77.5761 75.8962 77.8091C76.1497 78.033 76.4325 78.2544 76.7448 78.4732L78.3778 73.5236ZM78.603 79.6098C79.2086 79.9662 79.8042 80.3441 80.3899 80.7437C80.9777 81.1342 81.48 81.5809 81.8969 82.084C82.3229 82.5892 82.6261 83.1658 82.8067 83.8138C82.9894 84.4527 82.9785 85.1987 82.774 86.0518C82.5716 86.8959 82.2405 87.6563 81.7807 88.3331C81.3231 89.0008 80.7534 89.5553 80.0718 89.9965C79.3923 90.4287 78.6142 90.7316 77.7375 90.9053C76.863 91.07 75.9099 91.0622 74.8782 90.882L74.235 92.8441C74.1758 93.0507 74.0394 93.2195 73.8256 93.3506C73.6187 93.493 73.3882 93.5337 73.134 93.4728L71.8952 93.1757L72.8387 90.321C71.8117 89.9212 70.8829 89.3914 70.0525 88.7316C69.2222 88.0718 68.5575 87.3414 68.0585 86.5403L69.462 85.25C69.5854 85.1356 69.7295 85.055 69.8943 85.0081C70.0704 84.9543 70.2446 84.9481 70.4171 84.9895C70.6168 85.0373 70.8126 85.1611 71.0047 85.3607C71.199 85.5513 71.4185 85.7767 71.6632 86.0369C71.9101 86.288 72.1968 86.5535 72.5232 86.8334C72.8496 87.1132 73.2561 87.3594 73.7426 87.572L75.7054 81.6073C75.1045 81.2712 74.5158 80.9045 73.9392 80.5071C73.3717 80.1119 72.8817 79.6537 72.4692 79.1325C72.068 78.6044 71.787 77.9948 71.6264 77.3036C71.4658 76.6124 71.4965 75.804 71.7185 74.8782C71.8838 74.1884 72.181 73.5494 72.61 72.9613C73.0411 72.364 73.5819 71.8698 74.2324 71.4787C74.8919 71.0897 75.6477 70.8198 76.4996 70.669C77.3516 70.5181 78.2822 70.5397 79.2915 70.7337L79.8525 69.0542C79.9229 68.8407 80.0605 68.6674 80.2652 68.5341C80.4699 68.4008 80.7039 68.3657 80.9671 68.4288L82.2059 68.7259L81.3483 71.342C82.2734 71.727 83.0375 72.2029 83.6406 72.7698C84.2459 73.3277 84.7439 73.9126 85.1347 74.5245L84.0208 75.5676C83.8593 75.7208 83.7041 75.8276 83.5553 75.8879C83.4065 75.9482 83.2413 75.9566 83.0598 75.913C82.9236 75.8804 82.77 75.8004 82.599 75.673C82.4302 75.5365 82.2419 75.381 82.0342 75.2065C81.8287 75.0228 81.5914 74.8315 81.3224 74.6327C81.0624 74.436 80.7652 74.2543 80.4309 74.0878L78.603 79.6098ZM97.0674 93.3372L96.4636 95.8559L85.5723 93.2445L86.1761 90.7259L90.1651 91.6823L92.9168 80.2056C93.0256 79.7518 93.1513 79.2876 93.2938 78.8131L89.8941 80.503C89.7003 80.5909 89.5173 80.6334 89.3453 80.6306C89.1844 80.6208 89.0347 80.5849 88.896 80.5228C88.7664 80.463 88.6547 80.3882 88.561 80.2986C88.4695 80.1998 88.4064 80.1031 88.3715 80.0084L87.6588 78.297L94.8868 74.6312L97.6504 75.2939L93.5278 92.4885L97.0674 93.3372ZM98.9742 99.985C98.8435 99.8097 98.8021 99.6222 98.8499 99.4225C98.8673 99.3499 98.9096 99.2737 98.9768 99.1938C99.053 99.1161 99.1361 99.0497 99.2261 98.9945C99.3521 98.9095 99.5072 98.8027 99.6916 98.6742C99.8738 98.5547 100.063 98.408 100.258 98.2341C100.451 98.0692 100.636 97.8784 100.813 97.6616C100.996 97.4561 101.152 97.2248 101.281 96.9678C100.991 96.8981 100.74 96.7851 100.528 96.6287C100.318 96.4632 100.148 96.269 100.019 96.0462C99.8995 95.8255 99.8191 95.5806 99.778 95.3116C99.746 95.0448 99.7648 94.7662 99.8344 94.4758C99.8954 94.2216 99.9973 93.9965 100.14 93.8005C100.295 93.5975 100.477 93.435 100.689 93.313C100.903 93.1819 101.143 93.1003 101.41 93.0683C101.679 93.0272 101.959 93.0415 102.249 93.1112C102.594 93.1938 102.878 93.3292 103.102 93.5172C103.337 93.6983 103.51 93.9173 103.621 94.1743C103.743 94.4244 103.812 94.6999 103.826 95.0009C103.851 95.2949 103.827 95.5962 103.753 95.9048C103.649 96.3405 103.471 96.7825 103.219 97.2309C102.977 97.6815 102.671 98.1168 102.302 98.5369C101.932 98.957 101.502 99.3483 101.012 99.7107C100.531 100.075 100.005 100.39 99.4323 100.656L98.9742 99.985ZM118.655 97.8654C119.018 97.9524 119.279 98.1253 119.438 98.3841C119.608 98.6361 119.653 98.9299 119.572 99.2657L119.089 101.281L105.584 98.0425L105.851 96.9262C105.906 96.6993 106.008 96.4742 106.157 96.2509C106.318 96.0207 106.527 95.8308 106.783 95.6812L114.196 91.1239C114.817 90.7353 115.378 90.3564 115.88 89.9871C116.39 89.62 116.831 89.241 117.203 88.8504C117.575 88.4597 117.885 88.0492 118.132 87.6189C118.39 87.1818 118.582 86.7046 118.706 86.1872C118.819 85.7153 118.85 85.286 118.798 84.8994C118.749 84.5037 118.627 84.1529 118.432 83.8469C118.245 83.5431 117.989 83.2897 117.664 83.0869C117.349 82.8771 116.974 82.72 116.539 82.6156C116.139 82.5198 115.753 82.4896 115.38 82.5249C115.018 82.5533 114.68 82.6403 114.367 82.7859C114.056 82.9225 113.777 83.1052 113.53 83.3339C113.283 83.5627 113.075 83.8296 112.906 84.1345C112.652 84.515 112.386 84.744 112.108 84.8214C111.83 84.8988 111.469 84.8457 111.023 84.6621L109.329 83.9246C109.691 83.0133 110.152 82.2505 110.712 81.6361C111.275 81.0127 111.903 80.5346 112.597 80.202C113.302 79.8624 114.06 79.6649 114.869 79.6095C115.691 79.5473 116.537 79.6206 117.408 79.8295C118.316 80.0471 119.114 80.3824 119.802 80.8353C120.492 81.2791 121.046 81.8103 121.464 82.4288C121.882 83.0473 122.158 83.7373 122.292 84.4989C122.426 85.2605 122.392 86.0633 122.19 86.9074C122.016 87.6335 121.746 88.279 121.38 88.844C121.023 89.4111 120.596 89.9325 120.098 90.4082C119.609 90.886 119.061 91.3305 118.454 91.7416C117.846 92.1526 117.214 92.5674 116.557 92.9857L111.032 96.4551C111.489 96.4303 111.934 96.4362 112.367 96.4728C112.811 96.5024 113.223 96.563 113.604 96.6544L118.655 97.8654ZM128.877 90.3681C129.335 90.3818 129.767 90.4183 130.176 90.4778C130.586 90.5281 130.977 90.5979 131.349 90.6872C132.384 90.9352 133.259 91.3082 133.974 91.8061C134.69 92.304 135.25 92.8895 135.655 93.5624C136.06 94.2354 136.311 94.9721 136.407 95.7725C136.505 96.5639 136.453 97.3816 136.25 98.2257C136 99.2695 135.586 100.178 135.007 100.951C134.437 101.726 133.751 102.344 132.95 102.804C132.151 103.256 131.262 103.542 130.282 103.662C129.312 103.785 128.301 103.72 127.248 103.467C126.631 103.319 126.061 103.115 125.538 102.856C125.015 102.596 124.533 102.303 124.093 101.976C123.664 101.643 123.274 101.291 122.921 100.918C122.58 100.539 122.284 100.156 122.031 99.7688L123.408 98.5874C123.7 98.3311 124.023 98.2453 124.377 98.3302C124.604 98.3846 124.818 98.5127 125.019 98.7145C125.22 98.9163 125.45 99.1393 125.708 99.3836C125.975 99.63 126.296 99.8748 126.669 100.118C127.052 100.363 127.534 100.556 128.115 100.695C128.732 100.843 129.3 100.874 129.82 100.787C130.34 100.701 130.797 100.517 131.19 100.237C131.595 99.9504 131.933 99.5804 132.205 99.1273C132.488 98.6673 132.699 98.1468 132.838 97.566C133.095 96.495 132.982 95.5849 132.499 94.8357C132.028 94.0796 131.184 93.5558 129.968 93.2642C129.033 93.0401 128.034 92.9829 126.971 93.0928L125.019 91.9911L128.944 82.8257L138.664 85.1563L138.321 86.5858C138.206 87.0668 137.963 87.4212 137.591 87.6489C137.22 87.8766 136.676 87.9045 135.959 87.7326L130.554 86.4367L128.877 90.3681ZM153.61 99.1486C153.199 100.864 152.655 102.312 151.978 103.494C151.312 104.668 150.554 105.59 149.702 106.259C148.86 106.931 147.945 107.364 146.958 107.559C145.981 107.748 144.981 107.719 143.955 107.473C142.929 107.227 142.024 106.799 141.24 106.188C140.466 105.571 139.856 104.772 139.41 103.792C138.964 102.811 138.71 101.647 138.65 100.298C138.591 98.9405 138.768 97.404 139.179 95.6886C139.592 93.9641 140.132 92.5146 140.797 91.3401C141.463 90.1656 142.217 89.2426 143.059 88.5712C143.902 87.8997 144.806 87.4688 145.774 87.2784C146.752 87.081 147.754 87.1053 148.779 87.3512C149.805 87.5971 150.709 88.0298 151.491 88.6493C152.285 89.2619 152.905 90.0584 153.352 91.0389C153.807 92.0215 154.065 93.1871 154.126 94.5357C154.195 95.8865 154.023 97.4241 153.61 99.1486ZM150.138 98.3162C150.48 96.8913 150.658 95.6864 150.674 94.7015C150.689 93.7166 150.586 92.9049 150.365 92.2664C150.153 91.6301 149.846 91.1486 149.445 90.8219C149.045 90.4862 148.6 90.2596 148.11 90.1421C147.629 90.0268 147.135 90.0282 146.626 90.1462C146.129 90.2574 145.642 90.5485 145.164 91.0195C144.687 91.4904 144.232 92.1683 143.799 93.0531C143.375 93.94 142.992 95.096 142.651 96.5209C142.309 97.9459 142.126 99.1497 142.101 100.132C142.086 101.117 142.184 101.928 142.396 102.564C142.609 103.201 142.91 103.686 143.3 104.019C143.702 104.346 144.143 104.567 144.624 104.682C145.114 104.8 145.612 104.804 146.118 104.695C146.627 104.577 147.119 104.282 147.597 103.811C148.084 103.342 148.544 102.666 148.976 101.781C149.409 100.896 149.797 99.7412 150.138 98.3162Z" fill="white"/>
<path d="M83.8596 52.3118C83.9322 52.3292 83.9887 52.3739 84.029 52.446L84.4176 53.1366C83.9073 53.5038 83.3352 53.7481 82.7014 53.8697C82.0722 53.9924 81.3536 53.9568 80.5459 53.7632C79.847 53.5956 79.2405 53.323 78.7264 52.9454C78.2133 52.5633 77.8071 52.1059 77.5077 51.5735C77.2093 51.0364 77.0224 50.4349 76.9469 49.769C76.8715 49.103 76.9219 48.4025 77.0981 47.6673C77.2744 46.9321 77.5517 46.286 77.93 45.7288C78.3083 45.1717 78.759 44.7231 79.2821 44.383C79.8097 44.044 80.395 43.8244 81.0381 43.7243C81.6822 43.6196 82.3583 43.6521 83.0662 43.8218C83.7605 43.9883 84.3465 44.2464 84.8241 44.596C85.3018 44.9457 85.6968 45.3595 86.0093 45.8376L85.4284 46.339C85.3903 46.3778 85.3448 46.4077 85.2918 46.4286C85.2444 46.446 85.1844 46.446 85.1118 46.4286C85.0301 46.409 84.9406 46.342 84.8433 46.2275C84.7471 46.1084 84.6167 45.9716 84.4522 45.817C84.2877 45.6624 84.0729 45.5077 83.8077 45.3529C83.5435 45.1936 83.2027 45.0639 82.7852 44.9638C82.2815 44.843 81.7997 44.8211 81.3397 44.8979C80.8809 44.9703 80.4597 45.1356 80.0762 45.394C79.6973 45.6535 79.3667 46.0013 79.0846 46.4376C78.8024 46.8738 78.5895 47.3914 78.4459 47.9905C78.3001 48.5986 78.2563 49.1615 78.3145 49.6794C78.3773 50.1983 78.5187 50.6593 78.7388 51.0624C78.9645 51.462 79.2609 51.797 79.6279 52.0674C79.9996 52.3389 80.4236 52.5317 80.9001 52.646C81.1905 52.7156 81.4553 52.7623 81.6943 52.786C81.939 52.8063 82.1676 52.8035 82.3802 52.7777C82.5973 52.753 82.8028 52.7063 82.9968 52.6376C83.1965 52.5655 83.3988 52.4724 83.6037 52.3584C83.6971 52.3088 83.7824 52.2933 83.8596 52.3118ZM92.5537 49.2351L90.9004 56.1307L90.1789 55.9577C90.0064 55.9163 89.9177 55.8062 89.9125 55.6274L89.9951 54.8626C89.6162 55.1221 89.2162 55.3093 88.7951 55.4243C88.3751 55.5348 87.9246 55.5323 87.4436 55.417C87.0669 55.3267 86.748 55.1854 86.487 54.9933C86.2315 54.7977 86.0335 54.563 85.8927 54.2893C85.752 54.0156 85.6703 53.7057 85.6478 53.3596C85.6297 53.0145 85.6675 52.6469 85.761 52.2566L86.8154 47.8592L88.027 48.1497L86.9727 52.5471C86.8476 53.069 86.8687 53.5012 87.0362 53.8436C87.2081 54.1872 87.5392 54.4177 88.0293 54.5353C88.3878 54.6212 88.7415 54.6172 89.0903 54.5233C89.4448 54.4259 89.7895 54.2591 90.1245 54.0227L91.3421 48.9446L92.5537 49.2351ZM95.294 51.3534C95.625 50.9336 95.9809 50.6303 96.3616 50.4432C96.7435 50.2516 97.1636 50.2108 97.622 50.3207C97.7672 50.3555 97.9018 50.4046 98.0258 50.4679C98.1543 50.5323 98.2626 50.6111 98.3506 50.7042L98.0451 51.5883C97.9906 51.6952 97.909 51.7356 97.8001 51.7095C97.7365 51.6943 97.6468 51.6583 97.5308 51.6017C97.4148 51.5451 97.2796 51.4983 97.1253 51.4613C96.9075 51.4091 96.7047 51.3941 96.5171 51.4163C96.3339 51.4395 96.159 51.4984 95.9924 51.5928C95.8315 51.6838 95.6742 51.8093 95.5207 51.9692C95.3728 52.1257 95.2274 52.3116 95.0846 52.5269L94.0401 56.8834L92.8216 56.5913L94.4749 49.6957L95.1693 49.8622C95.3009 49.8937 95.3856 49.9405 95.4236 50.0024C95.4615 50.0642 95.4749 50.1586 95.4637 50.2855L95.294 51.3534ZM100.253 52.5424C100.584 52.1227 100.94 51.8193 101.321 51.6322C101.703 51.4406 102.123 51.3998 102.581 51.5097C102.726 51.5445 102.861 51.5936 102.985 51.6569C103.113 51.7213 103.222 51.8001 103.31 51.8932L103.004 52.7773C102.95 52.8842 102.868 52.9246 102.759 52.8985C102.696 52.8833 102.606 52.8473 102.49 52.7907C102.374 52.7341 102.239 52.6873 102.084 52.6503C101.867 52.5981 101.664 52.5831 101.476 52.6053C101.293 52.6285 101.118 52.6874 100.951 52.7818C100.791 52.8728 100.633 52.9983 100.48 53.1582C100.332 53.3147 100.186 53.5006 100.044 53.7159L98.9992 58.0724L97.7807 57.7803L99.434 50.8847L100.128 51.0512C100.26 51.0827 100.345 51.1295 100.383 51.1914C100.421 51.2532 100.434 51.3476 100.423 51.4745L100.253 52.5424ZM108.083 55.8089C108.15 55.5276 108.171 55.2614 108.145 55.0104C108.124 54.7559 108.057 54.5262 107.943 54.3213C107.834 54.1129 107.682 53.9373 107.486 53.7943C107.291 53.6468 107.055 53.5398 106.778 53.4734C106.197 53.3342 105.696 53.3939 105.274 53.6527C104.858 53.908 104.537 54.3253 104.312 54.9048L108.083 55.8089ZM108.288 59.2773C108.094 59.4229 107.877 59.5388 107.636 59.6249C107.395 59.7064 107.145 59.7615 106.883 59.79C106.627 59.8197 106.367 59.8245 106.103 59.8044C105.838 59.7888 105.58 59.7511 105.331 59.6913C104.854 59.577 104.433 59.3921 104.067 59.1364C103.707 58.8773 103.416 58.5581 103.196 58.1788C102.98 57.796 102.846 57.3559 102.792 56.8584C102.739 56.3608 102.783 55.8148 102.926 55.2204C103.041 54.7393 103.222 54.3075 103.467 53.9248C103.717 53.5432 104.016 53.2336 104.366 52.9959C104.717 52.7537 105.113 52.5942 105.553 52.5175C105.995 52.4363 106.466 52.4555 106.965 52.5752C107.378 52.6742 107.742 52.8359 108.058 53.0604C108.379 53.2814 108.635 53.554 108.826 53.8781C109.023 54.1988 109.148 54.5694 109.2 54.99C109.254 55.406 109.222 55.8591 109.105 56.3492C109.059 56.5398 109.008 56.6619 108.952 56.7157C108.896 56.7694 108.811 56.7827 108.698 56.7555L104.09 55.6506C103.999 56.0895 103.967 56.4825 103.994 56.8298C104.026 57.1781 104.111 57.484 104.249 57.7475C104.389 58.0065 104.577 58.222 104.814 58.394C105.052 58.5615 105.335 58.6844 105.661 58.7628C105.965 58.8357 106.234 58.8642 106.469 58.8484C106.708 58.8291 106.917 58.7976 107.096 58.754C107.274 58.7104 107.424 58.6671 107.545 58.624C107.671 58.5776 107.773 58.5636 107.85 58.5821C107.95 58.606 108.017 58.6631 108.053 58.7533L108.288 59.2773ZM112.21 55.0061C112.4 54.8741 112.595 54.7602 112.796 54.6643C112.997 54.5684 113.201 54.4952 113.41 54.4445C113.625 54.3903 113.842 54.3633 114.063 54.3635C114.289 54.3601 114.525 54.3879 114.77 54.4466C115.147 54.5369 115.463 54.6799 115.718 54.8755C115.979 55.0677 116.177 55.3023 116.313 55.5794C116.453 55.8531 116.535 56.1631 116.558 56.5092C116.58 56.8553 116.545 57.2235 116.451 57.6138L115.398 62.0044L114.18 61.7122L115.233 57.3217C115.358 56.7998 115.334 56.3671 115.162 56.0235C114.996 55.6765 114.67 55.4448 114.184 55.3283C113.826 55.2424 113.469 55.2481 113.115 55.3455C112.765 55.4439 112.423 55.6091 112.089 55.841L110.872 60.919L109.653 60.6269L111.306 53.7313L112.035 53.906C112.207 53.9473 112.294 54.0568 112.294 54.2345L112.21 55.0061ZM119.242 63.0412C118.698 62.9107 118.315 62.658 118.093 62.2832C117.875 61.9095 117.835 61.4368 117.972 60.865L118.984 56.6446L118.153 56.4455C118.081 56.4281 118.024 56.393 117.984 56.3402C117.945 56.2828 117.937 56.2088 117.958 56.118L118.074 55.6347L119.238 55.7627L120.028 53.699C120.058 53.6342 120.101 53.5868 120.156 53.5568C120.217 53.5234 120.286 53.516 120.363 53.5345L120.976 53.6813L120.406 56.057L122.4 56.5352L122.19 57.4133L120.195 56.9351L119.203 61.0738C119.133 61.3643 119.152 61.5967 119.259 61.7711C119.366 61.9455 119.531 62.0594 119.753 62.1127C119.88 62.1431 119.993 62.1534 120.091 62.1434C120.195 62.1299 120.286 62.1109 120.364 62.0864C120.442 62.0619 120.507 62.0392 120.56 62.0183C120.619 61.994 120.666 61.9861 120.703 61.9948C120.766 62.0101 120.814 62.0623 120.845 62.1514L121.06 62.8148C120.805 62.9599 120.516 63.0538 120.194 63.0966C119.873 63.1348 119.556 63.1163 119.242 63.0412ZM129.475 64.271C129.852 64.3613 130.187 64.396 130.48 64.375C130.773 64.3541 131.024 64.2872 131.233 64.1742C131.448 64.0578 131.622 63.9028 131.755 63.7091C131.889 63.5108 131.987 63.2824 132.049 63.0237C132.17 62.52 132.086 62.0799 131.797 61.7035C131.509 61.3226 131.007 61.0462 130.29 60.8743L128.18 60.3683L127.365 63.765L129.475 64.271ZM129.203 56.1003L128.405 59.4289L130.147 59.8467C130.52 59.936 130.852 59.9724 131.143 59.956C131.44 59.9407 131.694 59.8816 131.906 59.7788C132.122 59.6771 132.298 59.5345 132.433 59.351C132.569 59.1629 132.667 58.9463 132.726 58.7013C132.864 58.125 132.792 57.6638 132.51 57.3179C132.229 56.9675 131.726 56.7052 131 56.5311L129.203 56.1003ZM131.25 55.4897C131.849 55.6333 132.35 55.8158 132.752 56.0371C133.16 56.2596 133.476 56.5129 133.7 56.7971C133.93 57.0824 134.072 57.3996 134.127 57.7488C134.184 58.0935 134.165 58.4633 134.07 58.8581C134.012 59.0986 133.918 59.3208 133.788 59.5247C133.663 59.7251 133.503 59.9026 133.307 60.0573C133.112 60.212 132.88 60.3388 132.612 60.4376C132.349 60.5329 132.052 60.5912 131.72 60.6126C132.405 60.9206 132.881 61.3059 133.149 61.7686C133.423 62.2277 133.487 62.7614 133.341 63.3695C133.242 63.7824 133.075 64.1406 132.839 64.4439C132.607 64.7484 132.315 64.9878 131.961 65.1621C131.612 65.3375 131.208 65.4422 130.749 65.476C130.29 65.5054 129.789 65.4547 129.244 65.3242L125.8 64.4983L128.139 54.7438L131.25 55.4897ZM138.69 64.3065C138.128 64.1908 137.641 64.122 137.228 64.0999C136.822 64.0744 136.48 64.0885 136.203 64.1421C135.931 64.1968 135.72 64.2877 135.569 64.4148C135.423 64.5429 135.328 64.7023 135.282 64.8929C135.238 65.0745 135.23 65.2381 135.258 65.3838C135.285 65.5296 135.338 65.6575 135.418 65.7677C135.502 65.8744 135.608 65.9645 135.734 66.038C135.866 66.108 136.012 66.1621 136.171 66.2002C136.384 66.2513 136.584 66.2777 136.771 66.2793C136.958 66.2763 137.139 66.2525 137.313 66.2078C137.492 66.1642 137.665 66.1025 137.833 66.0228C138.005 65.9442 138.177 65.8486 138.348 65.736L138.69 64.3065ZM135.452 60.5499C135.921 60.2738 136.398 60.0977 136.882 60.0217C137.365 59.9457 137.875 59.9719 138.41 60.1003C138.796 60.1928 139.124 60.3385 139.393 60.5374C139.662 60.7362 139.871 60.9736 140.021 61.2495C140.171 61.5253 140.259 61.8369 140.286 62.1841C140.313 62.5313 140.281 62.8978 140.188 63.2835L139.131 67.6945L138.593 67.5656C138.475 67.5373 138.389 67.4974 138.334 67.4459C138.28 67.3898 138.249 67.3007 138.239 67.1785L138.26 66.4924C138.038 66.6168 137.825 66.7241 137.621 66.8144C137.418 66.9001 137.211 66.9655 136.998 67.0105C136.787 67.051 136.567 67.0679 136.338 67.061C136.113 67.0598 135.869 67.0277 135.606 66.9645C135.338 66.9004 135.095 66.8037 134.876 66.6745C134.659 66.5407 134.48 66.3778 134.338 66.1856C134.202 65.9945 134.109 65.773 134.059 65.5211C134.014 65.2657 134.03 64.9814 134.105 64.6683C134.17 64.396 134.307 64.153 134.517 63.9393C134.728 63.7211 135.024 63.5547 135.407 63.4401C135.79 63.3255 136.266 63.2716 136.835 63.2786C137.406 63.281 138.085 63.3672 138.875 63.5373L139.004 62.9996C139.132 62.4641 139.113 62.0324 138.947 61.7047C138.782 61.3724 138.477 61.1529 138.033 61.0463C137.733 60.9744 137.472 60.9526 137.249 60.9808C137.032 61.0055 136.837 61.0476 136.665 61.107C136.498 61.1629 136.35 61.2164 136.223 61.2675C136.101 61.315 135.988 61.3263 135.884 61.3013C135.802 61.2817 135.737 61.2444 135.687 61.1894C135.639 61.1299 135.603 61.0635 135.577 60.9902L135.452 60.5499ZM144.633 58.4105L142.229 68.4374L141.017 68.1469L143.421 58.12L144.633 58.4105ZM148.675 66.7005C148.113 66.5848 147.625 66.5159 147.213 66.4939C146.806 66.4684 146.465 66.4824 146.188 66.536C145.916 66.5907 145.704 66.6816 145.554 66.8087C145.408 66.9369 145.312 67.0963 145.266 67.2869C145.223 67.4684 145.215 67.632 145.242 67.7778C145.27 67.9235 145.323 68.0515 145.402 68.1616C145.487 68.2684 145.593 68.3585 145.719 68.4319C145.851 68.502 145.996 68.556 146.155 68.5941C146.368 68.6453 146.568 68.6716 146.755 68.6732C146.943 68.6703 147.124 68.6464 147.298 68.6018C147.476 68.5582 147.649 68.4965 147.817 68.4168C147.99 68.3381 148.161 68.2425 148.332 68.13L148.675 66.7005ZM145.437 62.9439C145.906 62.6677 146.383 62.4916 146.866 62.4156C147.35 62.3397 147.86 62.3659 148.395 62.4943C148.781 62.5867 149.108 62.7324 149.377 62.9313C149.646 63.1302 149.856 63.3675 150.006 63.6434C150.155 63.9193 150.244 64.2308 150.271 64.5781C150.298 64.9253 150.265 65.2918 150.173 65.6775L149.115 70.0885L148.578 69.9595C148.46 69.9313 148.373 69.8913 148.318 69.8398C148.265 69.7837 148.233 69.6946 148.224 69.5725L148.245 68.8863C148.023 69.0107 147.81 69.118 147.606 69.2083C147.403 69.294 147.195 69.3594 146.983 69.4045C146.772 69.445 146.552 69.4618 146.323 69.455C146.098 69.4538 145.854 69.4216 145.59 69.3585C145.323 69.2943 145.079 69.1976 144.861 69.0684C144.643 68.9347 144.464 68.7717 144.323 68.5795C144.186 68.3884 144.093 68.1669 144.043 67.915C143.999 67.6596 144.014 67.3754 144.089 67.0622C144.155 66.79 144.292 66.547 144.502 66.3333C144.712 66.1151 145.009 65.9486 145.392 65.834C145.774 65.7194 146.25 65.6656 146.82 65.6725C147.39 65.6749 148.07 65.7612 148.86 65.9313L148.988 65.3935C149.117 64.858 149.098 64.4264 148.932 64.0986C148.767 63.7663 148.462 63.5468 148.017 63.4402C147.718 63.3684 147.456 63.3466 147.234 63.3748C147.017 63.3995 146.822 63.4416 146.649 63.5009C146.482 63.5569 146.335 63.6104 146.208 63.6614C146.086 63.709 145.973 63.7203 145.868 63.6953C145.787 63.6757 145.721 63.6384 145.672 63.5834C145.624 63.5239 145.587 63.4574 145.562 63.3841L145.437 62.9439ZM153.518 64.9103C153.708 64.7783 153.903 64.6643 154.104 64.5684C154.304 64.4726 154.509 64.3993 154.718 64.3486C154.933 64.2944 155.15 64.2674 155.371 64.2676C155.597 64.2643 155.833 64.292 156.078 64.3507C156.455 64.441 156.771 64.584 157.026 64.7796C157.287 64.9718 157.485 65.2064 157.62 65.4836C157.761 65.7573 157.843 66.0672 157.865 66.4133C157.888 66.7594 157.852 67.1277 157.759 67.5179L156.706 71.9085L155.488 71.6163L156.54 67.2258C156.665 66.7039 156.642 66.2712 156.47 65.9276C156.304 65.5806 155.978 65.3489 155.492 65.2325C155.134 65.1465 154.777 65.1522 154.423 65.2496C154.073 65.348 153.731 65.5132 153.397 65.7451L152.179 70.8231L150.961 70.531L152.614 63.6354L153.343 63.8101C153.515 63.8514 153.602 63.9609 153.602 64.1386L153.518 64.9103ZM164.711 67.8315C164.663 67.8727 164.617 67.9026 164.574 67.9211C164.531 67.9396 164.478 67.9413 164.415 67.926C164.347 67.9097 164.278 67.8645 164.21 67.7905C164.142 67.7119 164.055 67.6239 163.949 67.5265C163.847 67.4301 163.715 67.3335 163.551 67.2366C163.392 67.1362 163.186 67.0556 162.932 66.9947C162.592 66.9131 162.277 66.9025 161.989 66.963C161.702 67.019 161.443 67.1392 161.212 67.3237C160.985 67.5092 160.788 67.7522 160.62 68.0527C160.456 68.3542 160.327 68.7046 160.231 69.104C160.131 69.5215 160.089 69.905 160.106 70.2546C160.124 70.5997 160.193 70.9041 160.312 71.1678C160.437 71.428 160.607 71.6465 160.824 71.8233C161.047 71.9966 161.312 72.1202 161.621 72.1942C161.916 72.2649 162.167 72.2891 162.373 72.2667C162.581 72.2398 162.757 72.1979 162.9 72.1411C163.048 72.0853 163.171 72.0332 163.269 71.9847C163.373 71.9328 163.465 71.9166 163.547 71.9362C163.647 71.9601 163.715 72.0172 163.751 72.1074L163.985 72.6315C163.79 72.7816 163.582 72.8997 163.36 72.9856C163.138 73.0715 162.905 73.1332 162.661 73.1706C162.422 73.2046 162.178 73.2132 161.927 73.1964C161.677 73.1795 161.427 73.1412 161.178 73.0814C160.746 72.978 160.364 72.8023 160.03 72.5542C159.7 72.3073 159.435 72.0014 159.235 71.6366C159.035 71.2673 158.911 70.844 158.863 70.3668C158.814 69.8896 158.857 69.3697 158.992 68.807C159.115 68.2942 159.299 67.8368 159.544 67.4349C159.794 67.034 160.092 66.7097 160.44 66.4619C160.793 66.2106 161.19 66.0443 161.632 65.9631C162.078 65.8829 162.562 65.9054 163.084 66.0305C163.57 66.147 163.977 66.3287 164.307 66.5756C164.642 66.8191 164.918 67.1181 165.135 67.4726L164.711 67.8315ZM170.556 70.7878C170.624 70.5065 170.644 70.2403 170.618 69.9893C170.598 69.7348 170.53 69.5051 170.416 69.3002C170.308 69.0919 170.156 68.9162 169.96 68.7732C169.765 68.6257 169.529 68.5187 169.252 68.4523C168.671 68.3131 168.17 68.3728 167.748 68.6316C167.331 68.8869 167.01 69.3042 166.785 69.8837L170.556 70.7878ZM170.761 74.2562C170.568 74.4018 170.351 74.5177 170.109 74.6038C169.869 74.6853 169.618 74.7404 169.357 74.769C169.1 74.7986 168.84 74.8034 168.576 74.7833C168.311 74.7677 168.054 74.73 167.804 74.6702C167.328 74.5559 166.907 74.371 166.541 74.1153C166.181 73.8562 165.89 73.537 165.669 73.1577C165.454 72.7749 165.319 72.3348 165.266 71.8373C165.212 71.3397 165.257 70.7937 165.399 70.1993C165.515 69.7182 165.695 69.2864 165.94 68.9037C166.19 68.5221 166.49 68.2125 166.84 67.9748C167.191 67.7326 167.586 67.5731 168.027 67.4964C168.469 67.4152 168.939 67.4344 169.438 67.5541C169.851 67.6531 170.216 67.8148 170.531 68.0393C170.853 68.2603 171.109 68.5329 171.3 68.857C171.497 69.1777 171.621 69.5483 171.674 69.9689C171.728 70.3849 171.696 70.838 171.578 71.3281C171.533 71.5187 171.482 71.6408 171.426 71.6946C171.37 71.7483 171.285 71.7616 171.172 71.7344L166.563 70.6295C166.472 71.0684 166.44 71.4615 166.468 71.8087C166.499 72.157 166.584 72.4629 166.723 72.7264C166.862 72.9854 167.05 73.2009 167.287 73.3729C167.526 73.5404 167.808 73.6633 168.135 73.7417C168.439 73.8146 168.708 73.8431 168.942 73.8273C169.182 73.808 169.391 73.7765 169.569 73.7329C169.748 73.6893 169.897 73.646 170.018 73.603C170.144 73.5565 170.246 73.5425 170.323 73.561C170.423 73.5849 170.491 73.642 170.527 73.7322L170.761 74.2562Z" fill="#8B8C8C"/>
<path d="M287.383 253.677L287.161 254.603L281.933 253.349L282.155 252.424L284.245 252.925L285.839 246.274C285.887 246.075 285.942 245.874 286.005 245.673L283.912 246.748C283.841 246.784 283.774 246.801 283.712 246.801C283.651 246.796 283.596 246.783 283.548 246.762C283.501 246.74 283.457 246.711 283.419 246.673C283.384 246.636 283.36 246.599 283.344 246.561L283.089 245.946L286.598 244.131L287.585 244.368L285.463 253.217L287.383 253.677ZM295.123 255.295C295.254 255.327 295.35 255.39 295.408 255.486C295.467 255.582 295.481 255.691 295.452 255.813L295.276 256.549L288.768 254.988L288.868 254.573C288.889 254.487 288.928 254.403 288.986 254.321C289.044 254.239 289.121 254.168 289.217 254.11L293.093 251.721C293.415 251.519 293.711 251.324 293.982 251.135C294.254 250.941 294.495 250.739 294.703 250.53C294.912 250.321 295.087 250.101 295.228 249.871C295.371 249.637 295.477 249.377 295.545 249.091C295.614 248.805 295.628 248.544 295.588 248.309C295.55 248.07 295.468 247.861 295.343 247.682C295.222 247.504 295.064 247.356 294.867 247.237C294.671 247.113 294.45 247.022 294.205 246.963C293.956 246.903 293.718 246.884 293.492 246.907C293.266 246.929 293.055 246.987 292.86 247.079C292.671 247.168 292.5 247.288 292.349 247.439C292.198 247.59 292.074 247.767 291.977 247.969C291.885 248.115 291.784 248.203 291.676 248.235C291.573 248.263 291.441 248.246 291.278 248.183L290.671 247.922C290.841 247.493 291.058 247.13 291.321 246.833C291.59 246.532 291.89 246.3 292.223 246.135C292.56 245.971 292.921 245.873 293.308 245.841C293.696 245.804 294.099 245.836 294.516 245.936C294.929 246.035 295.3 246.189 295.629 246.397C295.959 246.606 296.226 246.859 296.433 247.159C296.641 247.453 296.779 247.786 296.848 248.158C296.918 248.53 296.901 248.929 296.799 249.355C296.712 249.718 296.576 250.044 296.392 250.331C296.209 250.613 295.991 250.873 295.738 251.109C295.484 251.346 295.203 251.569 294.894 251.778C294.589 251.988 294.268 252.197 293.93 252.404L290.727 254.414C290.921 254.408 291.114 254.413 291.306 254.431C291.5 254.443 291.683 254.471 291.855 254.512L295.123 255.295ZM297.618 257.261C297.521 257.406 297.4 257.502 297.254 257.548C297.113 257.596 296.977 257.604 296.845 257.573L296.335 257.45L302.869 248.241C302.958 248.109 303.067 248.017 303.194 247.966C303.326 247.916 303.465 247.909 303.61 247.944L304.127 248.068L297.618 257.261ZM309.176 258.665C309.307 258.696 309.402 258.76 309.461 258.856C309.52 258.951 309.534 259.06 309.505 259.183L309.329 259.918L302.821 258.358L302.921 257.942C302.941 257.856 302.981 257.772 303.039 257.69C303.097 257.608 303.174 257.538 303.269 257.479L307.146 255.09C307.468 254.889 307.764 254.694 308.035 254.504C308.307 254.31 308.548 254.109 308.756 253.9C308.965 253.69 309.14 253.471 309.281 253.241C309.424 253.006 309.529 252.746 309.598 252.46C309.667 252.174 309.681 251.914 309.641 251.679C309.603 251.439 309.521 251.23 309.396 251.051C309.275 250.874 309.117 250.725 308.92 250.606C308.724 250.482 308.503 250.391 308.258 250.332C308.009 250.272 307.771 250.254 307.545 250.276C307.318 250.299 307.108 250.356 306.913 250.449C306.724 250.538 306.553 250.658 306.402 250.808C306.251 250.959 306.127 251.136 306.03 251.338C305.938 251.484 305.837 251.573 305.729 251.604C305.626 251.633 305.494 251.615 305.331 251.552L304.724 251.292C304.894 250.862 305.111 250.499 305.374 250.202C305.643 249.902 305.943 249.669 306.276 249.504C306.612 249.34 306.974 249.242 307.361 249.21C307.749 249.173 308.152 249.205 308.569 249.305C308.982 249.404 309.353 249.558 309.682 249.767C310.011 249.975 310.279 250.229 310.486 250.528C310.694 250.823 310.832 251.156 310.901 251.527C310.971 251.899 310.954 252.298 310.852 252.725C310.765 253.088 310.629 253.413 310.445 253.7C310.262 253.982 310.044 254.242 309.791 254.479C309.537 254.715 309.256 254.938 308.946 255.147C308.642 255.357 308.321 255.566 307.983 255.773L304.78 257.784C304.974 257.777 305.167 257.783 305.359 257.8C305.553 257.813 305.736 257.84 305.908 257.881L309.176 258.665ZM315.892 257.77L316.856 253.747C316.884 253.629 316.92 253.501 316.963 253.362C317.006 253.224 317.053 253.084 317.106 252.943L312.393 256.931L315.892 257.77ZM318.431 258.379L318.264 259.073C318.247 259.146 318.209 259.201 318.152 259.24C318.099 259.281 318.027 259.29 317.937 259.268L316.725 258.977L316.11 261.544L315.048 261.289L315.663 258.723L311.334 257.685C311.243 257.663 311.17 257.619 311.113 257.553C311.063 257.483 311.038 257.408 311.038 257.326L311.064 256.677L317.318 251.518L318.448 251.789L316.953 258.024L318.431 258.379Z" fill="white"/>
<path d="M46.7651 193.243L47.7296 189.22C47.7579 189.102 47.7935 188.974 47.8363 188.835C47.8791 188.697 47.927 188.557 47.98 188.416L43.2662 192.404L46.7651 193.243ZM49.3041 193.852L49.1376 194.546C49.1202 194.619 49.0829 194.675 49.0255 194.714C48.9727 194.754 48.9009 194.763 48.8101 194.741L47.5985 194.451L46.9832 197.017L45.9213 196.762L46.5366 194.196L42.2073 193.158C42.1165 193.136 42.0431 193.092 41.987 193.026C41.9365 192.956 41.9114 192.881 41.9118 192.799L41.9378 192.151L48.192 186.992L49.322 187.263L47.827 193.498L49.3041 193.852ZM52.7694 191.983C53.3038 191.996 53.7842 192.054 54.2108 192.156C54.7191 192.278 55.1504 192.461 55.5047 192.704C55.8591 192.947 56.1341 193.232 56.3296 193.557C56.5297 193.883 56.6526 194.241 56.6983 194.631C56.7484 195.023 56.7229 195.429 56.6218 195.851C56.4977 196.369 56.2949 196.814 56.0133 197.188C55.7362 197.563 55.4029 197.862 55.0134 198.086C54.6296 198.306 54.2053 198.444 53.7407 198.5C53.276 198.557 52.7963 198.526 52.3017 198.407C52.0158 198.339 51.7483 198.244 51.4993 198.121C51.2491 198.004 51.0197 197.87 50.8111 197.719C50.6071 197.569 50.4222 197.41 50.2564 197.24C50.0907 197.071 49.9492 196.9 49.8321 196.728L50.3305 196.301C50.4405 196.202 50.5613 196.169 50.6929 196.2C50.7837 196.222 50.8771 196.283 50.9731 196.383C51.0702 196.478 51.1902 196.588 51.3329 196.714C51.4756 196.839 51.6471 196.964 51.8475 197.089C52.0536 197.211 52.3086 197.308 52.6127 197.381C52.953 197.462 53.2724 197.481 53.5708 197.438C53.8692 197.394 54.1399 197.296 54.3829 197.143C54.627 196.985 54.835 196.779 55.0068 196.522C55.1786 196.266 55.3064 195.963 55.3902 195.614C55.4631 195.309 55.4836 195.024 55.4516 194.757C55.4241 194.491 55.3403 194.251 55.2001 194.035C55.0645 193.82 54.8742 193.633 54.6293 193.473C54.3844 193.314 54.0827 193.191 53.7242 193.105C53.4791 193.046 53.2179 193.005 52.9403 192.982C52.6673 192.96 52.3815 192.961 52.0829 192.985L51.3744 192.578L53.2507 188.204L57.8727 189.313L57.7454 189.844C57.7041 190.016 57.6153 190.146 57.4792 190.233C57.3487 190.317 57.1542 190.328 56.8955 190.266L53.8323 189.532L52.7694 191.983ZM60.6666 193.877C61.201 193.89 61.6815 193.947 62.1081 194.05C62.6163 194.172 63.0477 194.354 63.402 194.598C63.7564 194.841 64.0313 195.125 64.2269 195.45C64.427 195.777 64.5499 196.135 64.5955 196.525C64.6457 196.916 64.6202 197.323 64.519 197.745C64.395 198.262 64.1922 198.708 63.9105 199.082C63.6334 199.457 63.3002 199.756 62.9107 199.979C62.5268 200.199 62.1026 200.337 61.6379 200.394C61.1733 200.451 60.6936 200.419 60.199 200.301C59.9131 200.232 59.6456 200.137 59.3965 200.015C59.1464 199.897 58.917 199.763 58.7084 199.612C58.5044 199.463 58.3195 199.303 58.1537 199.134C57.9879 198.965 57.8465 198.794 57.7294 198.622L58.2278 198.194C58.3378 198.096 58.4586 198.062 58.5902 198.094C58.6809 198.116 58.7743 198.177 58.8704 198.276C58.9675 198.372 59.0874 198.482 59.2301 198.607C59.3728 198.733 59.5444 198.858 59.7448 198.983C59.9508 199.104 60.2059 199.201 60.5099 199.274C60.8503 199.356 61.1697 199.375 61.4681 199.331C61.7665 199.287 62.0372 199.189 62.2802 199.036C62.5243 198.879 62.7322 198.672 62.9041 198.416C63.0759 198.159 63.2037 197.856 63.2875 197.507C63.3604 197.203 63.3808 196.918 63.3488 196.651C63.3214 196.385 63.2376 196.144 63.0974 195.928C62.9617 195.713 62.7715 195.526 62.5266 195.367C62.2817 195.207 61.98 195.084 61.6215 194.998C61.3764 194.94 61.1151 194.899 60.8376 194.875C60.5646 194.853 60.2788 194.854 59.9802 194.878L59.2717 194.471L61.148 190.098L65.77 191.206L65.6427 191.737C65.6013 191.91 65.5126 192.039 65.3765 192.127C65.246 192.211 65.0514 192.222 64.7928 192.16L61.7296 191.425L60.6666 193.877ZM68.7939 201.296C69.1206 201.375 69.4281 201.393 69.7163 201.352C70.0091 201.312 70.2708 201.221 70.5015 201.079C70.7367 200.939 70.9347 200.754 71.0954 200.524C71.2608 200.295 71.3793 200.03 71.4511 199.731C71.5273 199.413 71.5459 199.115 71.507 198.837C71.4692 198.554 71.3785 198.302 71.2348 198.081C71.0968 197.856 70.9122 197.665 70.6809 197.509C70.4496 197.353 70.182 197.238 69.8779 197.165C69.5512 197.087 69.2426 197.073 68.9522 197.123C68.6629 197.169 68.4023 197.265 68.1706 197.411C67.9445 197.553 67.7515 197.738 67.5919 197.963C67.4378 198.185 67.3287 198.43 67.2645 198.698C67.1894 199.011 67.1662 199.308 67.195 199.588C67.2237 199.869 67.302 200.123 67.4299 200.35C67.5622 200.579 67.7407 200.775 67.9653 200.939C68.1955 201.1 68.4717 201.219 68.7939 201.296ZM69.3328 195.926C69.2205 196.014 69.111 196.101 69.0043 196.185C68.9032 196.267 68.8044 196.349 68.7078 196.431C68.9773 196.328 69.2609 196.266 69.5584 196.246C69.8558 196.226 70.168 196.256 70.4947 196.334C70.8895 196.429 71.2459 196.584 71.5637 196.799C71.8827 197.01 72.1416 197.271 72.3404 197.583C72.5449 197.891 72.6807 198.245 72.748 198.645C72.8163 199.041 72.795 199.47 72.684 199.933C72.5763 200.382 72.3945 200.78 72.1386 201.126C71.8828 201.473 71.5731 201.754 71.2096 201.969C70.8506 202.185 70.445 202.326 69.9929 202.39C69.5453 202.455 69.0742 202.429 68.5795 202.31C68.0894 202.193 67.6632 202.009 67.3008 201.759C66.9396 201.504 66.6525 201.2 66.4397 200.847C66.2325 200.49 66.1008 200.089 66.0444 199.644C65.9937 199.195 66.0292 198.716 66.1511 198.208C66.2534 197.781 66.4552 197.35 66.7566 196.913C67.0636 196.474 67.4894 196.029 68.034 195.579L71.3099 192.844C71.393 192.778 71.4956 192.73 71.6175 192.702C71.7451 192.67 71.8815 192.671 72.0268 192.706L73.1023 192.964L69.3328 195.926ZM83.4278 199.334C83.9622 199.347 84.4427 199.405 84.8692 199.507C85.3775 199.629 85.8088 199.811 86.1632 200.055C86.5175 200.298 86.7925 200.582 86.9881 200.908C87.1882 201.234 87.311 201.592 87.3567 201.982C87.4069 202.373 87.3814 202.78 87.2802 203.202C87.1561 203.719 86.9533 204.165 86.6717 204.539C86.3946 204.914 86.0613 205.213 85.6718 205.437C85.288 205.656 84.8637 205.795 84.3991 205.851C83.9344 205.908 83.4548 205.877 82.9601 205.758C82.6742 205.69 82.4067 205.594 82.1577 205.472C81.9075 205.355 81.6782 205.22 81.4696 205.07C81.2655 204.92 81.0806 204.76 80.9149 204.591C80.7491 204.422 80.6077 204.251 80.4905 204.079L80.989 203.652C81.0989 203.553 81.2197 203.52 81.3513 203.551C81.4421 203.573 81.5355 203.634 81.6315 203.734C81.7287 203.829 81.8486 203.939 81.9913 204.065C82.134 204.19 82.3055 204.315 82.506 204.44C82.712 204.561 82.967 204.659 83.2711 204.731C83.6115 204.813 83.9308 204.832 84.2292 204.788C84.5276 204.745 84.7983 204.646 85.0413 204.494C85.2854 204.336 85.4934 204.129 85.6652 203.873C85.8371 203.617 85.9649 203.314 86.0487 202.964C86.1216 202.66 86.142 202.375 86.11 202.108C86.0825 201.842 85.9987 201.601 85.8585 201.385C85.7229 201.171 85.5326 200.983 85.2877 200.824C85.0428 200.664 84.7411 200.542 84.3826 200.456C84.1376 200.397 83.8763 200.356 83.5987 200.333C83.3257 200.31 83.04 200.311 82.7414 200.336L82.0328 199.928L83.9092 195.555L88.5312 196.663L88.4039 197.194C88.3625 197.367 88.2738 197.497 88.1377 197.584C88.0072 197.668 87.8126 197.679 87.5539 197.617L84.4907 196.882L83.4278 199.334ZM91.555 206.754C91.8818 206.832 92.1892 206.85 92.4775 206.809C92.7702 206.769 93.032 206.678 93.2626 206.537C93.4978 206.396 93.6958 206.211 93.8566 205.981C94.0219 205.752 94.1405 205.488 94.2123 205.188C94.2884 204.87 94.3071 204.572 94.2682 204.294C94.2304 204.012 94.1396 203.76 93.996 203.538C93.858 203.313 93.6734 203.122 93.4421 202.966C93.2108 202.81 92.9431 202.695 92.6391 202.622C92.3123 202.544 92.0038 202.53 91.7134 202.58C91.424 202.626 91.1635 202.722 90.9317 202.868C90.7056 203.011 90.5127 203.195 90.353 203.42C90.199 203.643 90.0898 203.888 90.0257 204.155C89.9506 204.469 89.9274 204.765 89.9561 205.046C89.9849 205.326 90.0632 205.58 90.191 205.807C90.3234 206.036 90.5019 206.232 90.7264 206.397C90.9566 206.557 91.2328 206.676 91.555 206.754ZM92.094 201.383C91.9817 201.471 91.8721 201.558 91.7654 201.643C91.6643 201.724 91.5655 201.806 91.469 201.888C91.7385 201.785 92.022 201.724 92.3195 201.704C92.617 201.684 92.9291 201.713 93.2559 201.791C93.6507 201.886 94.007 202.041 94.3249 202.256C94.6439 202.467 94.9027 202.729 95.1016 203.04C95.306 203.348 95.4419 203.702 95.5091 204.102C95.5775 204.498 95.5561 204.927 95.4452 205.39C95.3374 205.839 95.1557 206.237 94.8998 206.584C94.6439 206.93 94.3343 207.211 93.9707 207.426C93.6118 207.643 93.2062 207.783 92.7541 207.847C92.3065 207.913 91.8353 207.886 91.3407 207.768C90.8506 207.65 90.4244 207.466 90.062 207.216C89.7007 206.962 89.4137 206.658 89.2009 206.304C88.9937 205.948 88.8619 205.546 88.8056 205.101C88.7548 204.652 88.7904 204.174 88.9122 203.665C89.0145 203.239 89.2163 202.807 89.5177 202.371C89.8248 201.931 90.2506 201.486 90.7952 201.036L94.0711 198.301C94.1542 198.235 94.2567 198.187 94.3787 198.159C94.5063 198.127 94.6427 198.129 94.7879 198.164L95.8634 198.421L92.094 201.383ZM101.115 206.274L102.08 202.251C102.108 202.133 102.144 202.005 102.187 201.867C102.229 201.728 102.277 201.589 102.33 201.448L97.6165 205.436L101.115 206.274ZM103.654 206.883L103.488 207.578C103.47 207.65 103.433 207.706 103.376 207.745C103.323 207.785 103.251 207.794 103.16 207.773L101.949 207.482L101.333 210.048L100.272 209.794L100.887 207.227L96.5575 206.189C96.4668 206.168 96.3933 206.124 96.3372 206.057C96.2868 205.988 96.2617 205.912 96.262 205.831L96.288 205.182L102.542 200.023L103.672 200.294L102.177 206.529L103.654 206.883ZM110.194 210.956C110.326 210.988 110.421 211.051 110.479 211.147C110.538 211.243 110.553 211.352 110.523 211.474L110.347 212.209L103.839 210.649L103.939 210.234C103.96 210.148 103.999 210.064 104.057 209.981C104.115 209.899 104.192 209.829 104.288 209.77L108.165 207.382C108.486 207.18 108.783 206.985 109.054 206.796C109.326 206.602 109.566 206.4 109.775 206.191C109.983 205.982 110.158 205.762 110.3 205.532C110.442 205.298 110.548 205.038 110.616 204.752C110.685 204.466 110.699 204.205 110.66 203.97C110.621 203.731 110.539 203.521 110.414 203.343C110.294 203.165 110.135 203.017 109.938 202.897C109.742 202.774 109.522 202.682 109.277 202.624C109.027 202.564 108.789 202.545 108.563 202.568C108.337 202.59 108.126 202.648 107.931 202.74C107.742 202.829 107.572 202.949 107.42 203.1C107.269 203.251 107.145 203.427 107.049 203.63C106.956 203.776 106.856 203.864 106.747 203.896C106.644 203.924 106.512 203.907 106.349 203.844L105.742 203.583C105.913 203.154 106.129 202.79 106.392 202.494C106.661 202.193 106.962 201.961 107.294 201.796C107.631 201.632 107.993 201.534 108.379 201.502C108.767 201.465 109.17 201.497 109.588 201.597C110 201.696 110.372 201.85 110.701 202.058C111.03 202.267 111.298 202.52 111.504 202.819C111.712 203.114 111.85 203.447 111.92 203.819C111.989 204.191 111.972 204.59 111.87 205.016C111.783 205.379 111.648 205.704 111.464 205.991C111.281 206.274 111.062 206.533 110.809 206.77C110.555 207.007 110.274 207.23 109.965 207.439C109.66 207.649 109.339 207.857 109.001 208.064L105.798 210.075C105.992 210.069 106.185 210.074 106.377 210.092C106.571 210.104 106.754 210.131 106.927 210.173L110.194 210.956ZM126.72 210.981C126.515 211.834 126.245 212.552 125.909 213.133C125.578 213.711 125.205 214.167 124.789 214.499C124.374 214.831 123.924 215.045 123.441 215.14C122.962 215.236 122.475 215.225 121.98 215.107C121.481 214.987 121.04 214.776 120.657 214.473C120.278 214.171 119.979 213.777 119.759 213.293C119.539 212.808 119.413 212.233 119.381 211.568C119.349 210.898 119.436 210.137 119.641 209.284C119.845 208.43 120.113 207.713 120.445 207.13C120.777 206.547 121.15 206.09 121.566 205.757C121.982 205.421 122.428 205.203 122.902 205.106C123.381 205.01 123.871 205.021 124.37 205.141C124.864 205.26 125.303 205.471 125.687 205.774C126.074 206.078 126.378 206.474 126.596 206.963C126.816 207.448 126.941 208.025 126.973 208.695C127.009 209.366 126.924 210.128 126.72 210.981ZM125.461 210.679C125.639 209.935 125.725 209.296 125.719 208.761C125.718 208.224 125.648 207.775 125.509 207.415C125.374 207.057 125.184 206.778 124.939 206.58C124.695 206.378 124.423 206.241 124.123 206.169C123.824 206.097 123.519 206.096 123.21 206.166C122.901 206.231 122.606 206.393 122.323 206.652C122.04 206.91 121.775 207.278 121.526 207.756C121.282 208.23 121.071 208.84 120.893 209.584C120.715 210.328 120.626 210.967 120.628 211.5C120.634 212.034 120.705 212.481 120.84 212.839C120.974 213.198 121.164 213.478 121.408 213.681C121.653 213.879 121.926 214.014 122.225 214.086C122.525 214.157 122.829 214.161 123.137 214.095C123.446 214.026 123.743 213.862 124.025 213.603C124.313 213.346 124.578 212.98 124.821 212.505C125.069 212.032 125.282 211.423 125.461 210.679ZM130.111 215.998C130.437 216.076 130.745 216.095 131.033 216.053C131.326 216.013 131.588 215.922 131.818 215.781C132.054 215.641 132.252 215.455 132.412 215.225C132.578 214.996 132.696 214.732 132.768 214.432C132.844 214.115 132.863 213.817 132.824 213.539C132.786 213.256 132.695 213.004 132.552 212.782C132.414 212.557 132.229 212.367 131.998 212.21C131.767 212.054 131.499 211.94 131.195 211.867C130.868 211.788 130.559 211.774 130.269 211.825C129.98 211.871 129.719 211.966 129.487 212.112C129.261 212.255 129.068 212.439 128.909 212.665C128.755 212.887 128.646 213.132 128.581 213.4C128.506 213.713 128.483 214.01 128.512 214.29C128.541 214.57 128.619 214.824 128.747 215.052C128.879 215.28 129.058 215.477 129.282 215.641C129.512 215.802 129.789 215.921 130.111 215.998ZM130.65 210.628C130.537 210.716 130.428 210.802 130.321 210.887C130.22 210.968 130.121 211.05 130.025 211.133C130.294 211.029 130.578 210.968 130.875 210.948C131.173 210.928 131.485 210.957 131.812 211.036C132.206 211.13 132.563 211.285 132.881 211.501C133.2 211.712 133.458 211.973 133.657 212.284C133.862 212.593 133.998 212.947 134.065 213.347C134.133 213.742 134.112 214.171 134.001 214.634C133.893 215.084 133.711 215.481 133.455 215.828C133.2 216.175 132.89 216.455 132.526 216.671C132.167 216.887 131.762 217.027 131.31 217.092C130.862 217.157 130.391 217.13 129.896 217.012C129.406 216.894 128.98 216.711 128.618 216.46C128.256 216.206 127.969 215.902 127.757 215.549C127.549 215.192 127.418 214.791 127.361 214.345C127.311 213.896 127.346 213.418 127.468 212.91C127.57 212.483 127.772 212.051 128.073 211.615C128.38 211.175 128.806 210.73 129.351 210.28L132.627 207.546C132.71 207.479 132.812 207.432 132.934 207.403C133.062 207.372 133.198 207.373 133.344 207.408L134.419 207.666L130.65 210.628ZM137.436 211.42C137.362 211.728 137.339 212.015 137.366 212.281C137.399 212.543 137.478 212.778 137.601 212.985C137.728 213.193 137.9 213.369 138.115 213.512C138.335 213.655 138.592 213.763 138.887 213.834C139.214 213.912 139.515 213.929 139.789 213.884C140.07 213.836 140.317 213.744 140.532 213.609C140.747 213.473 140.927 213.301 141.074 213.091C141.22 212.881 141.323 212.652 141.383 212.402C141.456 212.098 141.472 211.811 141.431 211.542C141.395 211.27 141.312 211.027 141.181 210.813C141.05 210.599 140.875 210.418 140.656 210.27C140.443 210.118 140.193 210.008 139.907 209.939C139.608 209.867 139.324 209.852 139.055 209.893C138.787 209.929 138.544 210.013 138.325 210.143C138.107 210.273 137.921 210.447 137.768 210.664C137.615 210.882 137.505 211.134 137.436 211.42ZM139.548 215.101C139.68 214.993 139.802 214.89 139.917 214.793C140.032 214.696 140.141 214.597 140.247 214.498C139.949 214.638 139.632 214.722 139.293 214.752C138.955 214.781 138.612 214.754 138.262 214.67C137.895 214.582 137.56 214.437 137.258 214.235C136.961 214.034 136.715 213.785 136.522 213.49C136.33 213.189 136.201 212.849 136.134 212.468C136.072 212.084 136.096 211.667 136.203 211.218C136.306 210.791 136.481 210.411 136.729 210.077C136.977 209.743 137.277 209.472 137.629 209.263C137.982 209.055 138.374 208.919 138.807 208.855C139.24 208.79 139.692 208.815 140.164 208.928C140.632 209.04 141.037 209.219 141.382 209.465C141.726 209.71 142.001 210.004 142.207 210.346C142.413 210.688 142.542 211.07 142.595 211.49C142.652 211.912 142.625 212.357 142.513 212.824C142.445 213.105 142.354 213.367 142.238 213.608C142.129 213.845 141.994 214.075 141.836 214.296C141.683 214.513 141.507 214.726 141.309 214.932C141.112 215.135 140.895 215.339 140.658 215.547L137.459 218.408C137.38 218.48 137.279 218.53 137.157 218.558C137.036 218.582 136.905 218.577 136.765 218.543L135.648 218.276L139.548 215.101ZM145.675 214.259C146.21 214.272 146.69 214.329 147.117 214.432C147.625 214.554 148.056 214.736 148.411 214.98C148.765 215.223 149.04 215.507 149.236 215.832C149.436 216.159 149.559 216.517 149.604 216.907C149.654 217.298 149.629 217.705 149.528 218.127C149.404 218.644 149.201 219.09 148.919 219.464C148.642 219.839 148.309 220.138 147.919 220.361C147.536 220.581 147.111 220.719 146.647 220.776C146.182 220.833 145.702 220.802 145.208 220.683C144.922 220.614 144.654 220.519 144.405 220.397C144.155 220.279 143.926 220.145 143.717 219.994C143.513 219.845 143.328 219.685 143.162 219.516C142.997 219.347 142.855 219.176 142.738 219.004L143.236 218.576C143.346 218.478 143.467 218.444 143.599 218.476C143.69 218.498 143.783 218.559 143.879 218.658C143.976 218.754 144.096 218.864 144.239 218.989C144.381 219.115 144.553 219.24 144.753 219.365C144.96 219.486 145.215 219.583 145.519 219.656C145.859 219.738 146.178 219.757 146.477 219.713C146.775 219.669 147.046 219.571 147.289 219.418C147.533 219.261 147.741 219.054 147.913 218.798C148.085 218.541 148.212 218.238 148.296 217.889C148.369 217.585 148.39 217.3 148.358 217.033C148.33 216.767 148.246 216.526 148.106 216.31C147.97 216.095 147.78 215.908 147.535 215.749C147.29 215.589 146.989 215.466 146.63 215.38C146.385 215.322 146.124 215.281 145.846 215.257C145.573 215.235 145.287 215.236 144.989 215.26L144.28 214.853L146.157 210.48L150.779 211.588L150.651 212.119C150.61 212.292 150.521 212.421 150.385 212.509C150.255 212.593 150.06 212.604 149.801 212.542L146.738 211.807L145.675 214.259ZM160.539 217.823C161.074 217.836 161.554 217.893 161.981 217.996C162.489 218.117 162.92 218.3 163.275 218.543C163.629 218.787 163.904 219.071 164.099 219.396C164.3 219.723 164.422 220.081 164.468 220.471C164.518 220.862 164.493 221.268 164.392 221.691C164.268 222.208 164.065 222.654 163.783 223.028C163.506 223.403 163.173 223.702 162.783 223.925C162.399 224.145 161.975 224.283 161.51 224.34C161.046 224.396 160.566 224.365 160.072 224.247C159.786 224.178 159.518 224.083 159.269 223.961C159.019 223.843 158.79 223.709 158.581 223.558C158.377 223.409 158.192 223.249 158.026 223.08C157.86 222.91 157.719 222.74 157.602 222.568L158.1 222.14C158.21 222.042 158.331 222.008 158.463 222.04C158.554 222.062 158.647 222.122 158.743 222.222C158.84 222.317 158.96 222.428 159.103 222.553C159.245 222.679 159.417 222.804 159.617 222.929C159.823 223.05 160.078 223.147 160.382 223.22C160.723 223.302 161.042 223.321 161.341 223.277C161.639 223.233 161.91 223.135 162.153 222.982C162.397 222.825 162.605 222.618 162.777 222.361C162.948 222.105 163.076 221.802 163.16 221.453C163.233 221.149 163.253 220.863 163.221 220.597C163.194 220.331 163.11 220.09 162.97 219.874C162.834 219.659 162.644 219.472 162.399 219.312C162.154 219.153 161.853 219.03 161.494 218.944C161.249 218.886 160.988 218.844 160.71 218.821C160.437 218.799 160.151 218.8 159.853 218.824L159.144 218.417L161.021 214.044L165.643 215.152L165.515 215.683C165.474 215.855 165.385 215.985 165.249 216.073C165.119 216.157 164.924 216.167 164.665 216.105L161.602 215.371L160.539 217.823ZM171.668 225.933L171.446 226.859L166.218 225.605L166.44 224.68L168.53 225.181L170.125 218.53C170.172 218.33 170.228 218.13 170.29 217.929L168.197 219.004C168.126 219.04 168.059 219.057 167.997 219.057C167.936 219.052 167.882 219.038 167.834 219.017C167.786 218.996 167.743 218.967 167.704 218.929C167.67 218.892 167.645 218.855 167.63 218.817L167.374 218.202L170.883 216.387L171.87 216.624L169.748 225.473L171.668 225.933ZM176.564 227.136C176.89 227.214 177.198 227.232 177.486 227.191C177.779 227.151 178.041 227.06 178.271 226.919C178.507 226.778 178.705 226.593 178.865 226.363C179.031 226.134 179.149 225.87 179.221 225.57C179.297 225.252 179.316 224.954 179.277 224.676C179.239 224.394 179.148 224.142 179.005 223.92C178.867 223.695 178.682 223.504 178.451 223.348C178.219 223.192 177.952 223.077 177.648 223.005C177.321 222.926 177.012 222.912 176.722 222.963C176.433 223.008 176.172 223.104 175.94 223.25C175.714 223.393 175.521 223.577 175.362 223.802C175.208 224.025 175.099 224.27 175.034 224.537C174.959 224.851 174.936 225.147 174.965 225.428C174.994 225.708 175.072 225.962 175.2 226.19C175.332 226.418 175.511 226.614 175.735 226.779C175.965 226.939 176.241 227.058 176.564 227.136ZM177.103 221.765C176.99 221.854 176.881 221.94 176.774 222.025C176.673 222.106 176.574 222.188 176.478 222.27C176.747 222.167 177.031 222.106 177.328 222.086C177.626 222.066 177.938 222.095 178.265 222.173C178.659 222.268 179.016 222.423 179.334 222.638C179.653 222.849 179.911 223.111 180.11 223.422C180.315 223.73 180.451 224.084 180.518 224.484C180.586 224.88 180.565 225.309 180.454 225.772C180.346 226.221 180.164 226.619 179.908 226.966C179.653 227.312 179.343 227.593 178.979 227.808C178.62 228.025 178.215 228.165 177.763 228.229C177.315 228.295 176.844 228.268 176.349 228.15C175.859 228.032 175.433 227.848 175.071 227.598C174.709 227.344 174.422 227.04 174.21 226.686C174.002 226.33 173.871 225.928 173.814 225.483C173.763 225.034 173.799 224.556 173.921 224.047C174.023 223.621 174.225 223.189 174.526 222.753C174.833 222.313 175.259 221.868 175.804 221.418L179.08 218.683C179.163 218.617 179.265 218.569 179.387 218.541C179.515 218.509 179.651 218.511 179.797 218.546L180.872 218.804L177.103 221.765ZM184.465 229.073C184.782 229.149 185.076 229.174 185.347 229.148C185.623 229.118 185.866 229.044 186.076 228.927C186.292 228.806 186.473 228.645 186.617 228.445C186.766 228.241 186.874 228.002 186.939 227.73C187.02 227.394 187.031 227.095 186.975 226.832C186.923 226.565 186.82 226.334 186.666 226.138C186.516 225.944 186.326 225.784 186.097 225.657C185.87 225.525 185.622 225.428 185.354 225.363C185.087 225.299 184.821 225.274 184.559 225.288C184.298 225.297 184.054 225.354 183.827 225.458C183.605 225.563 183.409 225.722 183.238 225.936C183.072 226.145 182.949 226.418 182.869 226.754C182.803 227.026 182.789 227.287 182.825 227.536C182.867 227.781 182.955 228.006 183.088 228.21C183.227 228.412 183.41 228.588 183.638 228.738C183.872 228.885 184.147 228.997 184.465 229.073ZM186.399 221.007C186.108 220.937 185.842 220.919 185.599 220.952C185.36 220.986 185.148 221.06 184.962 221.173C184.781 221.288 184.628 221.436 184.503 221.618C184.383 221.8 184.295 222.005 184.241 222.231C184.187 222.454 184.168 222.677 184.181 222.901C184.195 223.125 184.252 223.335 184.354 223.533C184.456 223.725 184.607 223.898 184.805 224.051C185.009 224.201 185.27 224.314 185.588 224.39C185.905 224.466 186.187 224.483 186.432 224.441C186.683 224.396 186.898 224.31 187.076 224.185C187.256 224.056 187.403 223.894 187.517 223.701C187.63 223.507 187.714 223.299 187.767 223.077C187.821 222.85 187.834 222.627 187.805 222.409C187.78 222.192 187.711 221.991 187.597 221.805C187.487 221.621 187.332 221.458 187.13 221.319C186.933 221.18 186.689 221.076 186.399 221.007ZM186.874 225.181C187.441 225.499 187.839 225.899 188.069 226.381C188.299 226.864 188.338 227.42 188.187 228.051C188.084 228.477 187.91 228.844 187.664 229.149C187.424 229.452 187.13 229.688 186.781 229.859C186.438 230.031 186.048 230.134 185.613 230.169C185.179 230.199 184.719 230.156 184.233 230.04C183.747 229.923 183.318 229.753 182.945 229.529C182.572 229.301 182.27 229.032 182.037 228.721C181.804 228.411 181.649 228.067 181.572 227.689C181.496 227.306 181.509 226.901 181.611 226.474C181.762 225.843 182.05 225.365 182.473 225.04C182.897 224.714 183.433 224.538 184.083 224.511C183.616 224.198 183.296 223.821 183.123 223.381C182.956 222.938 182.935 222.453 183.061 221.927C183.147 221.568 183.298 221.25 183.514 220.97C183.73 220.691 183.995 220.466 184.309 220.297C184.623 220.128 184.975 220.02 185.365 219.974C185.76 219.93 186.179 219.961 186.624 220.067C187.064 220.173 187.45 220.335 187.782 220.554C188.113 220.772 188.38 221.028 188.584 221.322C188.787 221.615 188.921 221.935 188.987 222.282C189.052 222.629 189.042 222.982 188.956 223.34C188.83 223.867 188.59 224.289 188.235 224.607C187.886 224.922 187.432 225.113 186.874 225.181Z" fill="white"/>
<path d="M53.1395 169.034L52.6422 165.318C52.6276 165.207 52.6147 165.081 52.6037 164.938C52.5935 164.792 52.5872 164.638 52.5847 164.477C52.4274 164.772 52.2808 165.015 52.1449 165.204L50.0179 168.285L53.1395 169.034ZM54.7524 172.703L53.8772 172.493C53.7761 172.469 53.7005 172.424 53.6504 172.359C53.6002 172.293 53.569 172.218 53.5565 172.133L53.2587 169.926L49.507 169.027L48.2411 170.858C48.201 170.923 48.1414 170.974 48.0622 171.013C47.983 171.051 47.8948 171.059 47.7975 171.036L46.9223 170.826L52.2703 163.266L53.4138 163.54L54.7524 172.703ZM61.6225 168.1L56.4905 174.965C56.4368 175.034 56.3772 175.086 56.3115 175.119C56.2498 175.154 56.1644 175.158 56.0555 175.132L55.2854 174.947L56.9271 172.861L55.8228 166.71L56.7214 166.925C56.8108 166.946 56.8753 166.987 56.9146 167.045C56.9588 167.101 56.9841 167.159 56.9905 167.218L57.6792 171.319C57.7022 171.498 57.7137 171.681 57.7136 171.871C57.8119 171.701 57.9117 171.542 58.0132 171.393L60.4388 168.045C60.477 167.988 60.5281 167.947 60.5919 167.921C60.6605 167.892 60.7298 167.886 60.7998 167.903L61.6225 168.1ZM64.8942 168.786C65.326 168.889 65.6977 169.055 66.0094 169.281C66.321 169.508 66.5677 169.783 66.7493 170.107C66.931 170.43 67.0407 170.796 67.0786 171.204C67.1214 171.609 67.0872 172.043 66.9762 172.506C66.8643 172.973 66.6975 173.377 66.4757 173.718C66.2578 174.061 65.9946 174.335 65.6861 174.541C65.3777 174.747 65.0331 174.88 64.6524 174.941C64.2726 174.998 63.8669 174.975 63.4351 174.871C62.9995 174.767 62.6234 174.603 62.3069 174.379C61.9952 174.152 61.7485 173.877 61.5669 173.553C61.3853 173.23 61.2731 172.866 61.2304 172.461C61.1915 172.057 61.2281 171.621 61.34 171.154C61.451 170.691 61.6154 170.289 61.8333 169.946C62.056 169.6 62.3216 169.325 62.6301 169.119C62.9386 168.913 63.2831 168.78 63.6638 168.719C64.0484 168.659 64.4585 168.681 64.8942 168.786ZM63.6296 174.06C64.213 174.2 64.6953 174.11 65.0764 173.79C65.4584 173.466 65.7334 172.954 65.9013 172.254C66.0701 171.55 66.0577 170.967 65.864 170.505C65.6704 170.043 65.2818 169.743 64.6983 169.603C64.4027 169.532 64.1319 169.52 63.886 169.568C63.6439 169.617 63.4261 169.719 63.2326 169.874C63.043 170.03 62.8776 170.24 62.7366 170.502C62.6003 170.761 62.4903 171.066 62.4063 171.416C62.2385 172.116 62.2513 172.697 62.445 173.159C62.6435 173.618 63.0383 173.919 63.6296 174.06ZM67.5842 175.78L69.0014 169.869L69.6257 170.019C69.7735 170.054 69.8476 170.148 69.8481 170.301L69.7785 170.926C70.0607 170.709 70.3584 170.548 70.6717 170.443C70.9851 170.337 71.3207 170.327 71.6785 170.412C72.0753 170.508 72.3696 170.695 72.5615 170.976C72.7573 171.257 72.8644 171.6 72.8828 172.003C73.0197 171.81 73.1729 171.651 73.3425 171.527C73.5159 171.404 73.6984 171.312 73.8899 171.251C74.0814 171.19 74.2761 171.159 74.474 171.157C74.6758 171.156 74.8739 171.179 75.0684 171.225C75.3796 171.3 75.6437 171.417 75.8606 171.576C76.0823 171.732 76.254 171.925 76.3755 172.156C76.501 172.387 76.5749 172.654 76.5972 172.955C76.6204 173.253 76.5891 173.581 76.5033 173.939L75.601 177.702L74.5566 177.451L75.4589 173.688C75.5699 173.225 75.5527 172.851 75.4074 172.565C75.2629 172.275 75.0001 172.085 74.6189 171.994C74.4477 171.953 74.2769 171.944 74.1064 171.969C73.9407 171.991 73.7855 172.047 73.6409 172.135C73.4962 172.224 73.3674 172.35 73.2545 172.512C73.1464 172.671 73.0644 172.867 73.0084 173.101L72.1061 176.864L71.0617 176.613L71.964 172.85C72.0778 172.376 72.0674 171.999 71.9327 171.72C71.7981 171.441 71.5479 171.257 71.1823 171.17C70.9256 171.108 70.6715 171.121 70.4201 171.209C70.1696 171.293 69.9245 171.432 69.6848 171.625L68.6286 176.03L67.5842 175.78ZM79.6935 172.433L78.2764 178.343L77.2378 178.094L78.655 172.184L79.6935 172.433ZM80.3601 170.631C80.3358 170.732 80.2916 170.822 80.2274 170.901C80.168 170.977 80.0948 171.042 80.008 171.095C79.9261 171.146 79.8337 171.179 79.731 171.195C79.6323 171.213 79.5323 171.21 79.4312 171.185C79.33 171.161 79.2394 171.119 79.1593 171.058C79.083 170.999 79.0197 170.928 78.9695 170.846C78.9201 170.76 78.8863 170.67 78.8679 170.575C78.8505 170.476 78.8539 170.376 78.8781 170.275C78.9023 170.174 78.9446 170.083 79.005 170.003C79.0663 169.919 79.1379 169.852 79.2199 169.802C79.3028 169.748 79.3917 169.711 79.4866 169.693C79.5854 169.676 79.6854 169.679 79.7865 169.703C79.8876 169.728 79.9783 169.77 80.0584 169.83C80.1424 169.891 80.2091 169.965 80.2585 170.051C80.3126 170.134 80.3479 170.227 80.3645 170.329C80.3858 170.429 80.3843 170.529 80.3601 170.631ZM81.3686 177.579C81.4976 177.882 81.6624 178.112 81.8628 178.272C82.0632 178.431 82.3035 178.544 82.5835 178.611C83.1359 178.743 83.6069 178.649 83.9968 178.327C84.3866 178.005 84.6687 177.48 84.8431 176.753C84.9354 176.367 84.9797 176.028 84.9759 175.735C84.976 175.443 84.9328 175.195 84.8464 174.989C84.761 174.779 84.6347 174.611 84.4676 174.484C84.3004 174.358 84.0982 174.266 83.861 174.209C83.5225 174.128 83.2063 174.135 82.9123 174.229C82.6222 174.324 82.3361 174.488 82.0541 174.72L81.3686 177.579ZM82.1722 173.996C82.4948 173.748 82.8419 173.57 83.2134 173.462C83.5849 173.354 83.9807 173.35 84.4008 173.45C84.7431 173.532 85.0365 173.673 85.281 173.871C85.5264 174.066 85.7155 174.315 85.8485 174.618C85.9823 174.918 86.0565 175.269 86.0711 175.671C86.0857 176.074 86.0342 176.52 85.9167 177.01C85.8122 177.446 85.6564 177.838 85.4492 178.187C85.243 178.533 84.9959 178.817 84.708 179.04C84.4249 179.26 84.1047 179.412 83.7476 179.495C83.3952 179.575 83.0206 179.567 82.6239 179.472C82.2621 179.385 81.9654 179.25 81.7337 179.067C81.5068 178.881 81.3203 178.656 81.1741 178.39L80.5474 181.004L79.503 180.754L81.4 172.842L82.0243 172.992C82.1721 173.027 82.2462 173.121 82.2467 173.273L82.1722 173.996ZM90.4549 174.914C90.8867 175.018 91.2584 175.183 91.5701 175.41C91.8818 175.637 92.1284 175.912 92.3101 176.235C92.4917 176.559 92.6015 176.924 92.6394 177.332C92.6821 177.737 92.6479 178.171 92.537 178.634C92.4251 179.101 92.2582 179.505 92.0364 179.847C91.8185 180.19 91.5553 180.464 91.2469 180.67C90.9384 180.875 90.5938 181.009 90.2131 181.07C89.8334 181.127 89.4276 181.103 88.9958 181C88.5602 180.895 88.1841 180.731 87.8676 180.507C87.5559 180.28 87.3092 180.005 87.1276 179.682C86.946 179.359 86.8338 178.994 86.7911 178.589C86.7522 178.185 86.7888 177.75 86.9007 177.283C87.0117 176.82 87.1761 176.417 87.394 176.075C87.6167 175.729 87.8823 175.453 88.1908 175.248C88.4993 175.042 88.8439 174.909 89.2246 174.848C89.6091 174.788 90.0193 174.81 90.4549 174.914ZM89.1903 180.189C89.7737 180.329 90.256 180.239 90.6371 179.919C91.0192 179.595 91.2941 179.083 91.462 178.383C91.6308 177.679 91.6184 177.096 91.4247 176.634C91.2311 176.172 90.8425 175.871 90.2591 175.731C89.9634 175.66 89.6926 175.649 89.4467 175.697C89.2046 175.746 88.9868 175.848 88.7933 176.003C88.6037 176.159 88.4384 176.368 88.2973 176.631C88.1611 176.89 88.051 177.195 87.967 177.545C87.7992 178.245 87.8121 178.826 88.0057 179.288C88.2042 179.747 88.599 180.047 89.1903 180.189ZM97.7709 177.798C97.7037 177.872 97.6215 177.897 97.5242 177.874C97.4659 177.86 97.4049 177.823 97.3413 177.762C97.2776 177.702 97.1974 177.633 97.1006 177.557C97.0086 177.477 96.8939 177.398 96.7563 177.32C96.6197 177.238 96.4503 177.172 96.248 177.124C96.073 177.082 95.9098 177.068 95.7586 177.081C95.6083 177.09 95.4733 177.121 95.3535 177.175C95.2376 177.229 95.1398 177.302 95.0602 177.394C94.9854 177.483 94.9335 177.588 94.9046 177.709C94.8682 177.861 94.8807 177.997 94.942 178.119C95.0072 178.241 95.1029 178.357 95.2292 178.465C95.3554 178.574 95.5029 178.679 95.6717 178.781C95.8415 178.88 96.0137 178.985 96.1885 179.096C96.368 179.205 96.5399 179.32 96.7041 179.442C96.8682 179.564 97.0083 179.7 97.1242 179.851C97.2402 180.003 97.3204 180.174 97.3649 180.366C97.4143 180.554 97.4105 180.767 97.3536 181.005C97.2884 181.277 97.1791 181.518 97.0259 181.728C96.8736 181.934 96.6817 182.1 96.4501 182.226C96.2194 182.347 95.9543 182.423 95.6548 182.455C95.3553 182.486 95.0247 182.458 94.6629 182.371C94.2506 182.272 93.893 182.116 93.5902 181.904C93.2884 181.688 93.0459 181.446 92.8629 181.18L93.2031 180.842C93.2463 180.799 93.2926 180.769 93.3419 180.752C93.3912 180.735 93.4489 180.735 93.5151 180.751C93.5851 180.767 93.6525 180.812 93.7172 180.886C93.7819 180.959 93.8608 181.041 93.9539 181.134C94.0508 181.227 94.1725 181.32 94.319 181.412C94.4654 181.505 94.6572 181.58 94.8945 181.637C95.0968 181.685 95.2798 181.702 95.4436 181.688C95.6084 181.67 95.7521 181.628 95.8747 181.563C95.9972 181.498 96.0959 181.413 96.1705 181.307C96.2491 181.203 96.3042 181.084 96.3359 180.952C96.3751 180.789 96.3625 180.644 96.2982 180.517C96.2388 180.388 96.1459 180.269 96.0197 180.16C95.8945 180.048 95.745 179.942 95.5713 179.843C95.4025 179.741 95.2283 179.635 95.0488 179.527C94.8731 179.419 94.7012 179.303 94.5332 179.181C94.3699 179.055 94.2308 178.915 94.1158 178.76C94.0008 178.605 93.9195 178.429 93.872 178.232C93.8294 178.033 93.8383 177.807 93.899 177.554C93.953 177.328 94.0515 177.124 94.1943 176.94C94.338 176.752 94.518 176.602 94.7342 176.489C94.9514 176.373 95.2014 176.299 95.4844 176.268C95.7674 176.237 96.0762 176.262 96.4107 176.342C96.7997 176.436 97.1329 176.581 97.4103 176.779C97.6926 176.975 97.9209 177.206 98.0952 177.474L97.7709 177.798ZM100.707 177.471L99.2902 183.382L98.2516 183.133L99.6688 177.222L100.707 177.471ZM101.374 175.669C101.35 175.77 101.305 175.86 101.241 175.939C101.182 176.016 101.109 176.08 101.022 176.134C100.94 176.184 100.848 176.217 100.745 176.234C100.646 176.251 100.546 176.248 100.445 176.224C100.344 176.199 100.253 176.157 100.173 176.097C100.097 176.037 100.034 175.967 99.9833 175.885C99.9339 175.799 99.9001 175.708 99.8817 175.613C99.8643 175.515 99.8677 175.415 99.8919 175.314C99.9162 175.212 99.9585 175.122 100.019 175.042C100.08 174.958 100.152 174.891 100.234 174.84C100.317 174.786 100.406 174.75 100.5 174.731C100.599 174.714 100.699 174.717 100.8 174.742C100.901 174.766 100.992 174.808 101.072 174.869C101.156 174.93 101.223 175.003 101.272 175.089C101.326 175.172 101.362 175.265 101.378 175.368C101.4 175.467 101.398 175.568 101.374 175.669ZM109.024 182.433L108.527 178.717C108.512 178.606 108.5 178.48 108.489 178.337C108.478 178.191 108.472 178.037 108.47 177.876C108.312 178.172 108.166 178.414 108.03 178.604L105.903 181.685L109.024 182.433ZM110.637 186.102L109.762 185.892C109.661 185.868 109.585 185.823 109.535 185.758C109.485 185.692 109.454 185.617 109.441 185.532L109.144 183.325L105.392 182.426L104.126 184.257C104.086 184.322 104.026 184.373 103.947 184.412C103.868 184.45 103.78 184.458 103.682 184.435L102.807 184.225L108.155 176.665L109.299 176.94L110.637 186.102ZM116.298 182.696C116.166 182.389 115.999 182.158 115.798 182.002C115.597 181.843 115.357 181.73 115.077 181.663C114.528 181.532 114.059 181.627 113.669 181.949C113.28 182.271 112.998 182.795 112.823 183.523C112.731 183.908 112.685 184.246 112.685 184.539C112.685 184.827 112.729 185.076 112.814 185.285C112.9 185.491 113.027 185.657 113.194 185.784C113.361 185.91 113.564 186.002 113.801 186.059C114.143 186.141 114.459 186.134 114.749 186.039C115.044 185.945 115.332 185.782 115.614 185.549L116.298 182.696ZM118.317 178.855L116.256 187.45L115.638 187.301C115.49 187.266 115.414 187.171 115.409 187.018L115.488 186.278C115.163 186.521 114.816 186.697 114.448 186.806C114.081 186.916 113.685 186.919 113.261 186.818C112.923 186.737 112.631 186.599 112.385 186.404C112.141 186.206 111.952 185.957 111.818 185.657C111.684 185.358 111.61 185.007 111.595 184.604C111.581 184.202 111.632 183.756 111.75 183.265C111.854 182.83 112.009 182.439 112.216 182.094C112.423 181.744 112.668 181.458 112.952 181.234C113.236 181.01 113.555 180.858 113.907 180.778C114.264 180.695 114.641 180.701 115.038 180.796C115.4 180.883 115.694 181.019 115.921 181.205C116.153 181.388 116.343 181.613 116.493 181.879L117.278 178.606L118.317 178.855ZM122.716 185.191C122.773 184.95 122.791 184.722 122.769 184.507C122.751 184.289 122.693 184.092 122.596 183.916C122.503 183.738 122.372 183.587 122.204 183.464C122.037 183.338 121.835 183.246 121.598 183.189C121.1 183.07 120.67 183.121 120.308 183.343C119.951 183.562 119.676 183.92 119.483 184.416L122.716 185.191ZM122.891 188.164C122.726 188.289 122.539 188.388 122.332 188.462C122.126 188.532 121.912 188.579 121.688 188.604C121.468 188.629 121.245 188.633 121.018 188.616C120.791 188.603 120.571 188.57 120.357 188.519C119.948 188.421 119.587 188.263 119.274 188.043C118.965 187.821 118.716 187.548 118.527 187.223C118.342 186.895 118.227 186.517 118.181 186.091C118.135 185.664 118.173 185.196 118.295 184.687C118.394 184.275 118.549 183.904 118.759 183.576C118.973 183.249 119.23 182.984 119.53 182.78C119.831 182.573 120.17 182.436 120.548 182.37C120.926 182.3 121.33 182.317 121.757 182.42C122.111 182.504 122.424 182.643 122.694 182.835C122.97 183.025 123.189 183.259 123.353 183.536C123.522 183.811 123.628 184.129 123.674 184.489C123.72 184.846 123.693 185.234 123.592 185.654C123.553 185.818 123.509 185.922 123.461 185.969C123.413 186.015 123.34 186.026 123.243 186.003L119.293 185.056C119.215 185.432 119.188 185.769 119.211 186.066C119.238 186.365 119.311 186.627 119.43 186.853C119.549 187.075 119.711 187.26 119.914 187.407C120.118 187.551 120.36 187.656 120.64 187.723C120.901 187.786 121.131 187.81 121.332 187.797C121.538 187.78 121.717 187.753 121.87 187.716C122.023 187.678 122.151 187.641 122.254 187.604C122.363 187.564 122.45 187.552 122.516 187.568C122.601 187.589 122.66 187.638 122.691 187.715L122.891 188.164ZM133.573 185.351L130.242 190.803L129.419 190.606C129.318 190.581 129.264 190.498 129.257 190.357L128.911 186.035C128.901 185.938 128.897 185.843 128.899 185.748C128.902 185.65 128.905 185.554 128.907 185.46C128.866 185.545 128.825 185.632 128.783 185.72C128.742 185.805 128.695 185.891 128.641 185.977L126.351 189.66C126.284 189.784 126.191 189.831 126.07 189.803L125.288 189.615L124.792 183.246L125.609 183.442C125.69 183.461 125.753 183.499 125.797 183.555C125.845 183.612 125.872 183.671 125.878 183.734L126.098 187.81C126.096 188.106 126.086 188.383 126.065 188.641C126.131 188.521 126.197 188.399 126.264 188.276C126.334 188.153 126.407 188.028 126.483 187.902L128.649 184.374C128.682 184.321 128.727 184.28 128.783 184.252C128.843 184.225 128.908 184.22 128.978 184.237L129.433 184.346C129.511 184.365 129.57 184.4 129.612 184.451C129.653 184.502 129.676 184.559 129.682 184.622L129.983 188.742C129.994 188.888 130 189.032 130.004 189.172C130.007 189.313 130.009 189.451 130.009 189.587C130.059 189.463 130.113 189.341 130.171 189.219C130.234 189.094 130.3 188.966 130.368 188.834L132.436 185.307C132.47 185.249 132.519 185.208 132.583 185.182C132.648 185.152 132.717 185.146 132.791 185.164L133.573 185.351ZM136.94 189.595C136.458 189.496 136.04 189.437 135.686 189.418C135.338 189.396 135.045 189.408 134.808 189.454C134.574 189.501 134.393 189.579 134.264 189.688C134.139 189.798 134.057 189.934 134.018 190.098C133.981 190.253 133.974 190.394 133.997 190.519C134.021 190.643 134.066 190.753 134.134 190.848C134.207 190.939 134.298 191.016 134.406 191.079C134.519 191.139 134.644 191.186 134.78 191.218C134.963 191.262 135.134 191.285 135.294 191.286C135.455 191.284 135.61 191.263 135.759 191.225C135.912 191.187 136.061 191.135 136.204 191.066C136.352 190.999 136.499 190.917 136.646 190.82L136.94 189.595ZM134.164 186.375C134.566 186.138 134.975 185.988 135.389 185.922C135.804 185.857 136.241 185.88 136.7 185.99C137.03 186.069 137.311 186.194 137.542 186.364C137.772 186.535 137.952 186.738 138.08 186.975C138.208 187.211 138.284 187.478 138.308 187.776C138.331 188.074 138.303 188.388 138.223 188.718L137.317 192.499L136.856 192.389C136.755 192.364 136.681 192.33 136.634 192.286C136.588 192.238 136.561 192.162 136.553 192.057L136.571 191.469C136.381 191.575 136.198 191.667 136.023 191.745C135.849 191.818 135.671 191.874 135.489 191.913C135.308 191.948 135.12 191.962 134.924 191.956C134.731 191.955 134.521 191.928 134.296 191.873C134.066 191.818 133.858 191.736 133.67 191.625C133.484 191.51 133.33 191.37 133.209 191.206C133.092 191.042 133.012 190.852 132.97 190.636C132.932 190.417 132.945 190.174 133.009 189.905C133.065 189.672 133.183 189.464 133.362 189.28C133.543 189.093 133.797 188.951 134.125 188.852C134.453 188.754 134.861 188.708 135.349 188.714C135.838 188.716 136.421 188.79 137.098 188.936L137.208 188.475C137.318 188.016 137.302 187.646 137.16 187.365C137.018 187.08 136.757 186.892 136.376 186.801C136.119 186.739 135.895 186.72 135.704 186.745C135.518 186.766 135.351 186.802 135.203 186.853C135.06 186.901 134.934 186.946 134.825 186.99C134.72 187.031 134.623 187.041 134.534 187.019C134.464 187.002 134.408 186.97 134.366 186.923C134.324 186.872 134.293 186.815 134.271 186.753L134.164 186.375ZM142.033 184.541L139.973 193.136L138.934 192.887L140.995 184.292L142.033 184.541ZM146.476 190.888C146.534 190.647 146.551 190.419 146.529 190.204C146.511 189.986 146.454 189.789 146.356 189.613C146.263 189.434 146.132 189.284 145.964 189.161C145.797 189.035 145.595 188.943 145.358 188.886C144.86 188.767 144.43 188.818 144.068 189.04C143.712 189.259 143.437 189.616 143.243 190.113L146.476 190.888ZM146.651 193.861C146.486 193.986 146.3 194.085 146.093 194.159C145.887 194.229 145.672 194.276 145.448 194.301C145.228 194.326 145.005 194.33 144.779 194.313C144.551 194.299 144.331 194.267 144.117 194.216C143.708 194.118 143.347 193.959 143.034 193.74C142.725 193.518 142.476 193.245 142.287 192.919C142.102 192.591 141.987 192.214 141.941 191.788C141.895 191.361 141.933 190.893 142.056 190.384C142.154 189.971 142.309 189.601 142.519 189.273C142.733 188.946 142.99 188.681 143.29 188.477C143.591 188.269 143.93 188.133 144.308 188.067C144.687 187.997 145.09 188.014 145.518 188.116C145.872 188.201 146.184 188.34 146.455 188.532C146.73 188.722 146.95 188.955 147.113 189.233C147.282 189.508 147.389 189.826 147.434 190.186C147.48 190.543 147.453 190.931 147.352 191.351C147.313 191.515 147.269 191.619 147.221 191.665C147.173 191.711 147.1 191.723 147.003 191.699L143.053 190.752C142.975 191.129 142.948 191.466 142.971 191.763C142.998 192.062 143.071 192.324 143.19 192.55C143.309 192.772 143.471 192.957 143.674 193.104C143.878 193.248 144.12 193.353 144.4 193.42C144.661 193.483 144.892 193.507 145.092 193.493C145.298 193.477 145.477 193.45 145.63 193.413C145.783 193.375 145.911 193.338 146.014 193.301C146.123 193.261 146.21 193.249 146.276 193.265C146.362 193.286 146.42 193.335 146.451 193.412L146.651 193.861Z" fill="#8B8C8C"/>
<path d="M326.179 98.7167L315.99 112.625L311.761 111.611L311.531 98.5053C311.52 97.6997 311.419 97.3811 310.906 96.92C310.07 96.1676 308.599 95.2979 307.275 94.6578L307.478 94.2329L314.285 95.865C314.73 95.9712 315.122 96.233 315.391 96.6031C315.66 96.9732 315.787 97.4272 315.751 97.8831L315.291 107.235L321.977 97.7093L326.179 98.7167ZM340.251 113.104C341.247 109.026 335.64 107.444 336.117 105.63C336.262 105.078 336.932 104.615 338.123 104.741C339.508 104.937 340.814 105.504 341.903 106.381L343.391 103.269C342.302 102.532 341.091 101.996 339.813 101.685C335.859 100.737 332.572 102.174 331.826 105.177C331.267 107.397 332.981 109.119 334.319 110.225C335.697 111.356 336.105 111.968 335.934 112.643C335.674 113.68 334.334 113.841 333.178 113.583C331.16 113.132 330.132 112.279 329.303 111.622L327.767 114.836C328.599 115.489 330.233 116.278 332.017 116.723C336.219 117.731 339.467 116.315 340.251 113.104ZM349.481 120.655L353.181 121.542L353.661 105.306L350.245 104.487C349.88 104.396 349.497 104.417 349.145 104.546C348.793 104.676 348.487 104.908 348.269 105.213L338.833 118.102L343.033 119.109L344.422 116.999L349.554 118.23L349.481 120.655ZM346.333 114.107L349.829 108.804L349.65 114.902L346.333 114.107ZM331.894 100.087L324.88 114.757L320.879 113.797L327.897 99.1287L331.894 100.087Z" fill="white"/>
<defs>
<filter id="filter0_b_1_96" x="-75.2713" y="-75.4805" width="546.542" height="460.292" filterUnits="userSpaceOnUse" color-interpolation-filters="sRGB">
<feFlood flood-opacity="0" result="BackgroundImageFix"/>
<feGaussianBlur in="BackgroundImage" stdDeviation="40"/>
<feComposite in2="SourceAlpha" operator="in" result="effect1_backgroundBlur_1_96"/>
<feBlend mode="normal" in="SourceGraphic" in2="effect1_backgroundBlur_1_96" result="shape"/>
</filter>
<linearGradient id="paint0_linear_1_96" x1="4.87517" y1="-24.8131" x2="486.747" y2="184.515" gradientUnits="userSpaceOnUse">
<stop offset="0.119355" stop-color="#282828"/>
<stop offset="0.843296" stop-color="#0B0B0B"/>
</linearGradient>
</defs>
</svg>
