<svg width="502" height="549" viewBox="0 0 502 549" fill="none" xmlns="http://www.w3.org/2000/svg">
<path d="M251 1C212.676 36.4584 114.897 72.6332 1 148.923C1 148.923 8.16327 406.802 251 547.561V1Z" fill="#67A948" stroke="#3E6F26" stroke-miterlimit="10" stroke-linecap="round" stroke-linejoin="round"/>
<path d="M251 1C289.324 36.4584 387.103 72.6332 501 148.923C501 148.923 493.837 406.802 251 547.561V1Z" fill="#3E6F26" stroke="#3E6F26" stroke-miterlimit="10" stroke-linecap="round" stroke-linejoin="round"/>
<path d="M251.003 23.2C204.8 55.0767 124.929 85.879 19.2697 156.438C19.2697 156.438 25.7167 395.334 251.003 526.065C475.931 395.334 482.737 156.438 482.737 156.438C377.078 85.5208 297.565 55.0767 251.003 23.2Z" fill="#3E6F26" stroke="#3E6F26" stroke-miterlimit="10" stroke-linecap="round" stroke-linejoin="round"/>
<path d="M482.733 156.081C377.074 85.5221 297.562 54.7198 251 22.843V525.35C476.286 394.977 482.733 156.081 482.733 156.081Z" fill="#67A948" stroke="#3E6F26" stroke-miterlimit="10" stroke-linecap="round" stroke-linejoin="round"/>
<path d="M338.752 263.892H166.116C158.236 263.892 151.789 257.445 151.789 249.923V170.41C151.789 115.969 196.918 71.9148 252.434 71.9148C307.95 71.9148 353.079 115.969 353.079 170.41V249.923C353.079 257.445 346.632 263.892 338.752 263.892ZM180.443 235.955H324.425V170.41C324.425 131.37 292.191 99.8518 252.434 99.8518C212.678 99.8518 180.443 131.37 180.443 170.41V235.955Z" fill="white" stroke="#3E6F26" stroke-miterlimit="10" stroke-linecap="round" stroke-linejoin="round"/>
<path d="M360.961 225.56H141.047V407.508H360.961V225.56Z" fill="#67A948" stroke="#3E6F26" stroke-miterlimit="10" stroke-linecap="round" stroke-linejoin="round"/>
<path d="M273.929 301.137C273.929 288.243 263.184 277.856 249.932 277.856C236.68 277.856 225.935 288.243 225.935 301.137C225.935 310.091 230.949 317.97 238.47 321.91L234.531 363.099H265.333L261.393 321.91C268.914 317.612 273.929 310.091 273.929 301.137Z" fill="#3E6F26" stroke="#3E6F26" stroke-miterlimit="10" stroke-linecap="round" stroke-linejoin="round"/>
</svg>
