<svg width="30" height="31" viewBox="0 0 30 31" fill="none" xmlns="http://www.w3.org/2000/svg">
<g clip-path="url(#clip0_122_26)">
<path d="M21.7208 0.560547H8.27869C3.71382 0.560547 0 4.27455 0 8.83941V22.2815C0 26.8465 3.71382 30.5604 8.27869 30.5604H21.7208C26.286 30.5604 29.9998 26.8464 29.9998 22.2815V8.83941C30 4.27455 26.286 0.560547 21.7208 0.560547ZM27.3383 22.2815C27.3383 25.3789 24.8183 27.8986 21.721 27.8986H8.27869C5.1815 27.8988 2.66173 25.3789 2.66173 22.2815V8.83941C2.66173 5.74222 5.1815 3.22228 8.27869 3.22228H21.7208C24.8181 3.22228 27.3381 5.74222 27.3381 8.83941V22.2815H27.3383Z" fill="white"/>
<path d="M14.9998 7.83057C10.7374 7.83057 7.26965 11.2983 7.26965 15.5608C7.26965 19.8231 10.7374 23.2906 14.9998 23.2906C19.2623 23.2906 22.73 19.8231 22.73 15.5608C22.73 11.2983 19.2623 7.83057 14.9998 7.83057ZM14.9998 20.6287C12.2052 20.6287 9.93138 18.3552 9.93138 15.5606C9.93138 12.7658 12.205 10.4921 14.9998 10.4921C17.7947 10.4921 20.0683 12.7658 20.0683 15.5606C20.0683 18.3552 17.7945 20.6287 14.9998 20.6287Z" fill="white"/>
<path d="M23.0543 5.57349C22.5415 5.57349 22.0377 5.7811 21.6755 6.14487C21.3116 6.50687 21.1024 7.01082 21.1024 7.52542C21.1024 8.03842 21.3117 8.5422 21.6755 8.90597C22.0375 9.26797 22.5415 9.47736 23.0543 9.47736C23.5689 9.47736 24.0711 9.26797 24.4348 8.90597C24.7986 8.5422 25.0062 8.03825 25.0062 7.52542C25.0062 7.01082 24.7986 6.50687 24.4348 6.14487C24.0728 5.7811 23.5689 5.57349 23.0543 5.57349Z" fill="white"/>
</g>
<defs>
<clipPath id="clip0_122_26">
<rect width="30" height="30" fill="white" transform="translate(0 0.560547)"/>
</clipPath>
</defs>
</svg>
