<svg width="30" height="31" viewBox="0 0 30 31" fill="none" xmlns="http://www.w3.org/2000/svg">
<g clip-path="url(#clip0_122_31)">
<path d="M9.37546 25.3457H5.2739V12.1035H9.37546V25.3457ZM9.7847 7.88454C9.7847 6.55862 8.70895 5.48242 7.38373 5.48242C6.05347 5.48242 4.98047 6.55862 4.98047 7.88454C4.98047 9.21091 6.05347 10.2871 7.38373 10.2871C8.70895 10.2871 9.7847 9.21091 9.7847 7.88454ZM24.7266 18.0604C24.7266 14.5056 23.9756 11.8691 19.823 11.8691C17.8276 11.8691 16.4882 12.8671 15.9414 13.9048H15.9375V12.1035H11.9531V25.3457H15.9375V18.7708C15.9375 17.049 16.3758 15.3809 18.5101 15.3809C20.6154 15.3809 20.6836 17.3499 20.6836 18.8802V25.3457H24.7266V18.0604ZM30 27.0449V4.07617C30 2.13754 28.423 0.560547 26.4844 0.560547H3.51562C1.577 0.560547 0 2.13754 0 4.07617V27.0449C0 28.9836 1.577 30.5605 3.51562 30.5605H26.4844C28.423 30.5605 30 28.9836 30 27.0449ZM26.4844 2.9043C27.1305 2.9043 27.6562 3.43004 27.6562 4.07617V27.0449C27.6562 27.6911 27.1305 28.2168 26.4844 28.2168H3.51562C2.86949 28.2168 2.34375 27.6911 2.34375 27.0449V4.07617C2.34375 3.43004 2.86949 2.9043 3.51562 2.9043H26.4844Z" fill="white"/>
</g>
<defs>
<clipPath id="clip0_122_31">
<rect width="30" height="30" fill="white" transform="translate(0 0.560547)"/>
</clipPath>
</defs>
</svg>
