<svg width="30" height="31" viewBox="0 0 30 31" fill="none" xmlns="http://www.w3.org/2000/svg">
<g clip-path="url(#clip0_122_33)">
<path d="M26.9175 9.4518C28.1375 8.58555 29.1637 7.5043 30 6.2593V6.25805C28.8838 6.7468 27.6963 7.0718 26.4563 7.2293C27.7313 6.46805 28.705 5.2718 29.1625 3.83055C27.9737 4.5393 26.6612 5.0393 25.2625 5.3193C24.1337 4.1168 22.525 3.37305 20.77 3.37305C17.365 3.37305 14.6238 6.1368 14.6238 9.5243C14.6238 10.0118 14.665 10.4805 14.7662 10.9268C9.65375 10.6768 5.12875 8.2268 2.08875 4.49305C1.55875 5.4143 1.24625 6.46805 1.24625 7.6018C1.24625 9.7318 2.3425 11.6193 3.97875 12.713C2.99 12.6943 2.02125 12.4068 1.2 11.9555V12.023C1.2 15.0118 3.33125 17.4943 6.1275 18.0668C5.62625 18.2043 5.08125 18.2693 4.515 18.2693C4.12125 18.2693 3.72375 18.2468 3.35125 18.1643C4.1475 20.5993 6.41 22.3905 9.0975 22.4493C7.005 24.0855 4.3475 25.0718 1.47125 25.0718C0.9675 25.0718 0.48375 25.0493 0 24.988C2.725 26.7443 5.9525 27.748 9.435 27.748C20.2887 27.748 27.3625 18.693 26.9175 9.4518Z" fill="white"/>
</g>
<defs>
<clipPath id="clip0_122_33">
<rect width="30" height="30" fill="white" transform="translate(0 0.560547)"/>
</clipPath>
</defs>
</svg>
