<svg width="30" height="31" viewBox="0 0 30 31" fill="none" xmlns="http://www.w3.org/2000/svg">
<g clip-path="url(#clip0_122_35)">
<path d="M18.1306 3.42358V10.0191C18.1306 10.5887 18.175 11.007 18.2644 11.2747C18.4094 11.6881 18.7387 11.8942 19.2519 11.8942C19.8097 11.8942 20.3846 11.549 20.976 10.8564V11.7771H22.4996V3.42358H20.9763V9.80157C20.6414 10.2822 20.3237 10.5215 20.022 10.5215C19.8212 10.5215 19.7039 10.3992 19.6706 10.1533C19.6594 10.1312 19.6538 9.93542 19.6538 9.56753V3.42358H18.1306Z" fill="white"/>
<path d="M14.6486 11.8941C15.4187 11.8941 16.0101 11.6096 16.4231 11.0407C16.7356 10.6279 16.8919 9.969 16.8919 9.06512V6.13554C16.8919 5.24286 16.7356 4.59019 16.4231 4.17711C16.0101 3.60751 15.4187 3.323 14.6486 3.323C13.9007 3.323 13.3148 3.60751 12.8906 4.17711C12.5781 4.59051 12.4218 5.24318 12.4218 6.13554V9.06512C12.4218 9.95845 12.5781 10.6171 12.8906 11.0407C13.3145 11.6096 13.9006 11.8941 14.6486 11.8941ZM13.9286 5.83395C13.9286 5.06419 14.1686 4.67923 14.6486 4.67923C15.1282 4.67923 15.3685 5.06424 15.3685 5.83395V9.34963C15.3685 10.1312 15.1282 10.5215 14.6486 10.5215C14.1686 10.5215 13.9286 10.1312 13.9286 9.34963V5.83395Z" fill="white"/>
<path d="M10.3796 11.777V7.24044L12.4053 0.560547H10.6977L9.55946 4.96362L8.37043 0.560547H6.59595C6.90846 1.49842 7.27107 2.54208 7.6841 3.69088C8.20857 5.23165 8.54877 6.41438 8.70535 7.24049V11.7768H10.3796V11.777H10.3796Z" fill="white"/>
<path d="M26.0071 14.4055C25.5103 13.9595 24.9384 13.6974 24.2913 13.6186C22.2377 13.3958 19.1406 13.2837 15.0003 13.2837C10.8596 13.2837 7.7682 13.3955 5.72575 13.6186C5.06711 13.6971 4.49254 13.9595 4.00136 14.4055C3.51018 14.8528 3.18651 15.4046 3.03026 16.0632C2.73982 17.358 2.59509 19.3105 2.59509 21.9227C2.59509 24.5789 2.74015 26.5317 3.03026 27.7821C3.17526 28.44 3.49601 28.9925 3.9928 29.4392C4.48926 29.8859 5.06118 30.1423 5.70857 30.2096C7.76195 30.4436 10.8589 30.5607 15 30.5607C19.1406 30.5607 22.2377 30.4436 24.291 30.2096C24.9381 30.1423 25.5074 29.8859 25.9985 29.4392C26.4894 28.9925 26.8131 28.44 26.9697 27.7821C27.2598 26.4872 27.4048 24.5341 27.4048 21.9227C27.4048 19.2664 27.2598 17.3135 26.9697 16.0632C26.8243 15.4046 26.5036 14.8528 26.0071 14.4055ZM9.67648 17.7537H7.88519V27.2794H6.21122V17.7537H4.4536V16.1803H9.67686V17.7537H9.67648ZM14.1963 27.2794H12.7062V26.3749C12.1036 27.0556 11.5344 27.3964 10.9987 27.3964C10.4851 27.3964 10.1617 27.1898 10.0276 26.777C9.9382 26.509 9.89371 26.1023 9.89371 25.5547V19.009H11.3837V25.1031C11.3837 25.4601 11.3893 25.6556 11.4005 25.6889C11.4342 25.9229 11.5512 26.04 11.7523 26.04C12.0536 26.04 12.3717 25.8059 12.7066 25.3368V19.009H14.1966V27.2794H14.1963ZM19.8883 24.8018C19.8883 25.6167 19.8381 26.1744 19.7376 26.4757C19.5477 27.0892 19.1518 27.3964 18.5489 27.3964C18.0133 27.3964 17.4943 27.0892 16.992 26.4757V27.2794H15.502V16.1803H16.992V19.8129C17.4716 19.2106 17.9908 18.909 18.5489 18.909C19.1515 18.909 19.5477 19.2216 19.7376 19.8462C19.8381 20.1366 19.8883 20.6891 19.8883 21.504V24.8018ZM25.5466 23.4291H22.5501V24.8855C22.5501 25.6559 22.8066 26.0403 23.3202 26.0403C23.6884 26.0403 23.9115 25.8395 23.9897 25.438C24.0118 25.3262 24.0233 24.986 24.0233 24.4164H25.5466V24.6343C25.5466 25.1815 25.5354 25.5046 25.513 25.6054C25.4793 25.9071 25.3623 26.2077 25.1616 26.5093C24.7598 27.1004 24.1572 27.3968 23.3535 27.3968C22.5835 27.3968 21.9805 27.1122 21.5454 26.5426C21.2217 26.1299 21.0598 25.4831 21.0598 24.601V21.7047C21.0598 20.8233 21.2161 20.1759 21.5286 19.7625C21.9637 19.1935 22.5607 18.909 23.3199 18.909C24.0675 18.909 24.6592 19.1934 25.0943 19.7625C25.3956 20.1759 25.5463 20.8232 25.5463 21.7047V23.4291H25.5466Z" fill="white"/>
<path d="M23.3034 20.2644C22.8011 20.2644 22.5502 20.6442 22.5502 21.403V22.1734H24.057V21.403C24.0566 20.6445 23.8058 20.2644 23.3034 20.2644Z" fill="white"/>
<path d="M17.7457 20.2644C17.4888 20.2644 17.2377 20.3874 16.9924 20.6333V25.6719C17.2377 25.9178 17.4889 26.0401 17.7457 26.0401C18.1808 26.0401 18.3987 25.6666 18.3987 24.9187V21.3866C18.3983 20.6385 18.1808 20.2644 17.7457 20.2644Z" fill="white"/>
</g>
<defs>
<clipPath id="clip0_122_35">
<rect width="30" height="30" fill="white" transform="translate(0 0.560547)"/>
</clipPath>
</defs>
</svg>
